{"glyphs":{"0":{"ha":1004,"x_min":124,"x_max":882,"o":"m 303 0 l 124 197 l 124 768 l 311 965 l 693 965 l 882 768 l 882 197 l 701 0 l 303 0 m 422 842 l 668 157 l 753 239 l 753 728 l 629 842 l 422 842 m 371 124 l 586 124 l 342 807 l 253 728 l 253 239 l 371 124 z "},"1":{"ha":749,"x_min":103,"x_max":668,"o":"m 103 0 l 103 129 l 314 129 l 314 836 l 103 836 l 103 965 l 451 965 l 451 129 l 668 129 l 668 0 l 103 0 z "},"2":{"ha":1000,"x_min":129,"x_max":871,"o":"m 129 0 l 129 367 l 308 508 l 628 508 l 739 597 l 739 732 l 625 843 l 372 843 l 260 732 l 260 618 l 129 618 l 129 781 l 303 965 l 697 965 l 871 781 l 871 549 l 694 400 l 372 400 l 263 314 l 263 129 l 854 129 l 854 0 l 129 0 z "},"3":{"ha":1008,"x_min":119,"x_max":885,"o":"m 299 0 l 119 197 l 119 372 l 251 372 l 251 249 l 371 129 l 626 129 l 751 247 l 751 353 l 660 443 l 421 443 l 421 549 l 657 549 l 744 632 l 744 725 l 621 842 l 376 842 l 251 725 l 251 618 l 119 618 l 119 768 l 308 965 l 690 965 l 879 768 l 879 611 l 772 500 l 885 378 l 885 197 l 697 0 l 299 0 z "},"4":{"ha":979,"x_min":71,"x_max":908,"o":"m 640 0 l 640 192 l 71 192 l 71 306 l 631 965 l 774 965 l 774 306 l 908 306 l 908 192 l 774 192 l 774 0 l 640 0 m 640 771 l 221 306 l 640 306 l 640 771 z "},"5":{"ha":1000,"x_min":129,"x_max":871,"o":"m 303 0 l 129 183 l 129 347 l 260 347 l 260 231 l 375 122 l 626 122 l 739 232 l 739 368 l 628 457 l 296 457 l 129 590 l 129 965 l 854 965 l 854 836 l 263 836 l 263 642 l 363 565 l 694 565 l 871 417 l 871 183 l 697 0 l 303 0 z "},"6":{"ha":1007,"x_min":124,"x_max":883,"o":"m 293 0 l 124 183 l 124 781 l 301 965 l 688 965 l 875 768 l 875 628 l 743 628 l 743 732 l 621 844 l 372 844 l 258 739 l 258 551 l 717 551 l 883 378 l 883 174 l 722 0 l 293 0 m 751 217 l 751 343 l 644 442 l 258 442 l 258 225 l 367 118 l 650 118 l 751 217 z "},"7":{"ha":901,"x_min":106,"x_max":840,"o":"m 250 0 l 688 836 l 106 836 l 106 965 l 746 965 l 840 854 l 400 0 l 250 0 z "},"8":{"ha":1033,"x_min":124,"x_max":910,"o":"m 311 0 l 124 197 l 124 378 l 238 500 l 129 611 l 129 768 l 319 965 l 713 965 l 901 768 l 901 611 l 793 500 l 910 378 l 910 197 l 719 0 l 311 0 m 776 356 l 682 443 l 351 443 l 257 356 l 257 246 l 381 128 l 651 128 l 776 246 l 776 356 m 768 729 l 643 846 l 389 846 l 264 729 l 264 632 l 353 547 l 678 547 l 768 632 l 768 729 z "},"9":{"ha":1007,"x_min":124,"x_max":883,"o":"m 715 965 l 883 782 l 883 185 l 707 0 l 319 0 l 132 197 l 132 338 l 264 338 l 264 233 l 386 121 l 635 121 l 749 226 l 749 414 l 292 414 l 124 588 l 124 792 l 286 965 l 715 965 m 256 749 l 256 622 l 363 524 l 749 524 l 749 740 l 640 847 l 358 847 l 256 749 z "},"\u0017":{"ha":401,"x_min":0,"x_max":0,"o":""}," ":{"ha":401,"x_min":0,"x_max":0,"o":""},"!":{"ha":419,"x_min":129,"x_max":290,"o":"m 161 249 l 129 965 l 290 965 l 258 249 l 161 249 m 142 0 l 142 153 l 278 153 l 278 0 l 142 0 z "},"\"":{"ha":690,"x_min":128,"x_max":563,"o":"m 128 560 m 150 560 l 128 965 l 275 965 l 251 560 l 150 560 m 438 560 l 415 965 l 563 965 l 539 560 l 438 560 z "},"#":{"ha":1051,"x_min":85,"x_max":968,"o":"m 286 0 l 286 250 l 85 250 l 85 353 l 286 353 l 286 610 l 85 610 l 85 713 l 286 713 l 286 965 l 396 965 l 396 713 l 656 713 l 656 965 l 765 965 l 765 713 l 968 713 l 968 610 l 765 610 l 765 353 l 968 353 l 968 250 l 765 250 l 765 0 l 656 0 l 656 250 l 396 250 l 396 0 l 286 0 m 396 353 l 656 353 l 656 610 l 396 610 l 396 353 z "},"$":{"ha":1093,"x_min":124,"x_max":969,"o":"m 403 -137 l 403 26 l 294 26 l 124 211 l 124 322 l 250 322 l 250 242 l 365 133 l 403 133 l 403 431 l 299 431 l 124 578 l 124 754 l 294 938 l 403 938 l 403 1075 l 469 1075 l 469 938 l 614 938 l 614 1075 l 681 1075 l 681 938 l 779 938 l 953 754 l 953 642 l 825 642 l 825 722 l 711 832 l 681 832 l 681 536 l 792 536 l 969 394 l 969 211 l 794 26 l 681 26 l 681 -137 l 614 -137 l 614 26 l 469 26 l 469 -137 l 403 -137 m 469 133 l 614 133 l 614 431 l 469 431 l 469 133 m 469 536 l 614 536 l 614 832 l 469 832 l 469 536 m 681 431 l 681 133 l 725 133 l 839 243 l 839 350 l 731 431 l 681 431 m 360 536 l 403 536 l 403 832 l 365 832 l 253 722 l 253 625 l 360 536 z "},"%":{"ha":1146,"x_min":29,"x_max":1114,"o":"m 29 0 m 131 435 l 29 543 l 29 857 l 135 965 l 344 965 l 447 857 l 447 543 l 350 435 l 131 435 m 354 575 l 354 831 l 294 885 l 183 885 l 124 831 l 124 575 l 181 519 l 297 519 l 354 575 m 200 0 l 829 965 l 947 965 l 314 0 l 200 0 m 797 0 l 696 108 l 696 422 l 801 531 l 1011 531 l 1114 422 l 1114 108 l 1017 0 l 797 0 m 1021 140 l 1021 396 l 961 450 l 850 450 l 790 396 l 790 140 l 847 85 l 964 85 l 1021 140 z "},"&":{"ha":1172,"x_min":89,"x_max":1099,"o":"m 926 0 l 769 138 l 657 0 l 239 0 l 89 160 l 89 422 l 319 535 l 200 642 l 200 858 l 304 965 l 658 965 l 764 860 l 764 644 l 517 517 l 749 310 l 928 518 l 1082 518 l 843 226 l 1099 0 l 926 0 m 593 128 l 674 222 l 406 460 l 222 365 l 222 214 l 315 128 l 593 128 m 326 686 l 433 590 l 638 690 l 638 813 l 585 861 l 381 861 l 326 811 l 326 686 z "},"'":{"ha":403,"x_min":128,"x_max":275,"o":"m 150 560 l 128 965 l 275 965 l 251 560 l 150 560 z "},"(":{"ha":656,"x_min":171,"x_max":585,"o":"m 369 -333 l 171 -150 l 171 1076 l 369 1260 l 585 1260 l 585 1157 l 410 1157 l 281 1046 l 281 -119 l 410 -231 l 585 -231 l 585 -333 l 369 -333 z "},")":{"ha":656,"x_min":71,"x_max":485,"o":"m 286 1258 l 485 1075 l 485 -151 l 286 -335 l 71 -335 l 71 -232 l 244 -232 l 375 -121 l 375 1044 l 244 1156 l 71 1156 l 71 1258 l 286 1258 z "},"*":{"ha":1051,"x_min":85,"x_max":968,"o":"m 688 133 l 525 386 l 364 132 l 275 176 l 442 435 l 85 435 l 85 526 l 442 526 l 275 785 l 365 829 l 525 576 l 688 829 l 775 785 l 611 526 l 968 526 l 968 435 l 611 435 l 775 175 l 688 133 z "},"+":{"ha":1051,"x_min":85,"x_max":968,"o":"m 581 431 l 581 97 l 471 97 l 471 431 l 85 431 l 85 533 l 471 533 l 471 869 l 581 869 l 581 533 l 968 533 l 968 431 l 581 431 z "},",":{"ha":392,"x_min":128,"x_max":264,"o":"m 146 -168 l 172 0 l 128 0 l 128 153 l 264 153 l 264 10 l 217 -168 l 146 -168 z "},"-":{"ha":724,"x_min":75,"x_max":649,"o":"m 75 385 l 75 506 l 649 506 l 649 385 l 75 385 z "},".":{"ha":392,"x_min":128,"x_max":264,"o":"m 128 0 l 128 153 l 264 153 l 264 0 l 128 0 z "},"/":{"ha":625,"x_min":0,"x_max":625,"o":"m 0 -235 l 510 1038 l 625 1038 l 117 -235 l 0 -235 z "},":":{"ha":443,"x_min":153,"x_max":289,"o":"m 153 151 m 153 151 l 153 304 l 289 304 l 289 151 l 153 151 m 153 542 l 153 694 l 289 694 l 289 542 l 153 542 z "},";":{"ha":443,"x_min":153,"x_max":289,"o":"m 153 0 m 171 -17 l 197 151 l 153 151 l 153 304 l 289 304 l 289 161 l 242 -17 l 171 -17 m 153 542 l 153 694 l 289 694 l 289 542 l 153 542 z "},"<":{"ha":1051,"x_min":85,"x_max":968,"o":"m 85 422 l 85 542 l 968 775 l 968 664 l 221 481 l 968 301 l 968 190 l 85 422 z "},"=":{"ha":1051,"x_min":85,"x_max":968,"o":"m 85 601 l 85 704 l 968 704 l 968 601 l 85 601 m 85 260 l 85 363 l 968 363 l 968 260 l 85 260 z "},">":{"ha":1051,"x_min":85,"x_max":967,"o":"m 967 542 l 967 422 l 85 189 l 85 300 l 832 483 l 85 663 l 85 774 l 967 542 z "},"?":{"ha":922,"x_min":85,"x_max":836,"o":"m 531 393 l 476 354 l 476 247 l 357 247 l 357 413 l 467 507 l 618 507 l 701 581 l 701 756 l 604 838 l 311 838 l 215 756 l 215 635 l 85 635 l 85 813 l 247 965 l 674 965 l 836 813 l 836 526 l 696 393 l 531 393 m 350 -1 l 350 153 l 485 153 l 485 -1 l 350 -1 z "},"@":{"ha":1101,"x_min":128,"x_max":974,"o":"m 276 -235 l 128 -101 l 128 736 l 244 849 l 864 849 l 974 749 l 974 67 l 872 67 l 872 126 l 808 67 l 553 67 l 444 168 l 444 472 l 553 574 l 796 574 l 867 519 l 867 688 l 814 736 l 314 736 l 250 679 l 250 -40 l 338 -114 l 974 -114 l 974 -235 l 276 -235 m 867 231 l 867 421 l 785 479 l 604 479 l 550 431 l 550 211 l 604 161 l 793 161 l 867 231 z "},"A":{"ha":924,"x_min":69,"x_max":854,"o":"m 713 0 l 660 171 l 261 171 l 208 0 l 69 0 l 363 965 l 563 965 l 854 0 l 713 0 m 294 279 l 626 279 l 461 821 l 294 279 z "},"B":{"ha":1006,"x_min":138,"x_max":882,"o":"m 138 0 l 138 965 l 688 965 l 875 768 l 875 611 l 769 500 l 882 378 l 882 197 l 694 0 l 138 0 m 740 632 l 740 728 l 617 844 l 275 844 l 275 549 l 653 549 l 740 632 m 747 247 l 747 353 l 657 443 l 275 443 l 275 129 l 624 129 l 747 247 z "},"C":{"ha":1000,"x_min":124,"x_max":878,"o":"m 303 0 l 124 197 l 124 768 l 311 965 l 690 965 l 878 768 l 878 613 l 746 613 l 746 722 l 628 836 l 382 836 l 258 722 l 258 244 l 382 129 l 628 129 l 746 244 l 746 378 l 878 378 l 878 197 l 699 0 l 303 0 z "},"D":{"ha":971,"x_min":138,"x_max":849,"o":"m 138 0 l 138 965 l 660 965 l 849 768 l 849 197 l 667 0 l 138 0 m 714 244 l 714 722 l 594 836 l 275 836 l 275 129 l 594 129 l 714 244 z "},"E":{"ha":876,"x_min":138,"x_max":772,"o":"m 138 0 l 138 965 l 772 965 l 772 836 l 275 836 l 275 553 l 615 553 l 615 439 l 275 439 l 275 129 l 772 129 l 772 0 l 138 0 z "},"F":{"ha":861,"x_min":138,"x_max":782,"o":"m 138 0 l 138 965 l 782 965 l 782 836 l 275 836 l 275 529 l 651 529 l 651 410 l 275 410 l 275 0 l 138 0 z "},"G":{"ha":1000,"x_min":124,"x_max":878,"o":"m 303 0 l 124 197 l 124 768 l 311 965 l 690 965 l 878 768 l 878 613 l 747 613 l 747 729 l 625 843 l 375 843 l 257 729 l 257 238 l 375 124 l 632 124 l 751 235 l 751 403 l 483 403 l 483 508 l 878 508 l 878 192 l 699 0 l 303 0 z "},"H":{"ha":1003,"x_min":138,"x_max":865,"o":"m 729 0 l 729 438 l 275 438 l 275 0 l 138 0 l 138 965 l 275 965 l 275 557 l 729 557 l 729 965 l 865 965 l 865 0 l 729 0 z "},"I":{"ha":413,"x_min":138,"x_max":275,"o":"m 138 0 l 138 965 l 275 965 l 275 0 l 138 0 z "},"J":{"ha":950,"x_min":78,"x_max":821,"o":"m 261 0 l 78 197 l 78 372 l 211 372 l 211 247 l 332 129 l 564 129 l 686 247 l 686 965 l 821 965 l 821 197 l 638 0 l 261 0 z "},"K":{"ha":978,"x_min":138,"x_max":899,"o":"m 749 0 l 467 515 l 275 304 l 275 0 l 138 0 l 138 965 l 275 965 l 275 504 l 715 965 l 875 965 l 567 626 l 899 0 l 749 0 z "},"L":{"ha":822,"x_min":138,"x_max":742,"o":"m 138 0 l 138 965 l 275 965 l 275 129 l 742 129 l 742 0 l 138 0 z "},"M":{"ha":1283,"x_min":138,"x_max":1146,"o":"m 1013 0 l 1013 689 l 701 0 l 585 0 l 271 689 l 271 0 l 138 0 l 138 965 l 299 965 l 642 189 l 983 965 l 1146 965 l 1146 0 l 1013 0 z "},"N":{"ha":1021,"x_min":138,"x_max":882,"o":"m 753 0 l 271 701 l 271 0 l 138 0 l 138 965 l 285 965 l 749 282 l 749 965 l 882 965 l 882 0 l 753 0 z "},"O":{"ha":1004,"x_min":124,"x_max":882,"o":"m 303 0 l 124 197 l 124 768 l 311 965 l 693 965 l 882 768 l 882 197 l 701 0 l 303 0 m 747 244 l 747 722 l 625 836 l 382 836 l 258 722 l 258 244 l 376 129 l 629 129 l 747 244 z "},"P":{"ha":960,"x_min":138,"x_max":871,"o":"m 138 0 l 138 965 l 682 965 l 871 768 l 871 557 l 676 360 l 275 360 l 275 0 l 138 0 m 738 717 l 613 836 l 275 836 l 275 482 l 613 482 l 738 599 l 738 717 z "},"Q":{"ha":1004,"x_min":124,"x_max":882,"o":"m 754 -162 l 626 0 l 303 0 l 124 197 l 124 768 l 311 965 l 693 965 l 882 768 l 882 197 l 750 53 l 864 -90 l 754 -162 m 376 129 l 525 129 l 493 169 l 603 240 l 664 163 l 747 244 l 747 722 l 625 836 l 382 836 l 258 722 l 258 244 l 376 129 z "},"R":{"ha":992,"x_min":138,"x_max":899,"o":"m 753 0 l 583 361 l 275 361 l 275 0 l 138 0 l 138 965 l 682 965 l 871 768 l 871 560 l 708 403 l 899 0 l 753 0 m 738 717 l 613 836 l 275 836 l 275 479 l 604 479 l 738 597 l 738 717 z "},"S":{"ha":1000,"x_min":124,"x_max":878,"o":"m 294 0 l 124 183 l 124 322 l 253 322 l 253 225 l 367 118 l 632 118 l 746 226 l 746 353 l 639 439 l 299 439 l 124 586 l 124 781 l 294 965 l 690 965 l 864 781 l 864 642 l 733 642 l 733 738 l 619 847 l 368 847 l 256 739 l 256 633 l 367 544 l 703 544 l 878 403 l 878 183 l 707 0 l 294 0 z "},"T":{"ha":879,"x_min":78,"x_max":800,"o":"m 371 0 l 371 836 l 78 836 l 78 965 l 800 965 l 800 836 l 508 836 l 508 0 l 371 0 z "},"U":{"ha":1003,"x_min":129,"x_max":874,"o":"m 293 0 l 129 178 l 129 965 l 264 965 l 264 238 l 369 132 l 635 132 l 740 238 l 740 965 l 874 965 l 874 178 l 711 0 l 293 0 z "},"V":{"ha":924,"x_min":69,"x_max":854,"o":"m 382 0 l 69 965 l 214 965 l 463 213 l 711 965 l 854 965 l 546 0 l 382 0 z "},"W":{"ha":1331,"x_min":75,"x_max":1254,"o":"m 869 0 l 661 767 l 457 0 l 261 0 l 75 965 l 211 965 l 367 174 l 575 965 l 751 965 l 964 174 l 1118 965 l 1254 965 l 1065 0 l 869 0 z "},"X":{"ha":979,"x_min":78,"x_max":900,"o":"m 78 0 l 406 504 l 104 965 l 256 965 l 493 617 l 732 965 l 875 965 l 572 499 l 900 0 l 747 0 l 486 383 l 222 0 l 78 0 z "},"Y":{"ha":951,"x_min":60,"x_max":890,"o":"m 414 0 l 414 431 l 60 965 l 210 965 l 479 575 l 739 965 l 890 965 l 550 433 l 550 0 l 414 0 z "},"Z":{"ha":911,"x_min":89,"x_max":824,"o":"m 178 0 l 89 107 l 650 836 l 121 836 l 121 965 l 735 965 l 824 858 l 263 129 l 797 129 l 797 0 l 178 0 z "},"[":{"ha":656,"x_min":171,"x_max":585,"o":"m 171 -333 l 171 1260 l 585 1260 l 585 1157 l 281 1157 l 281 -231 l 585 -231 l 585 -333 l 171 -333 z "},"\\":{"ha":628,"x_min":0,"x_max":628,"o":"m 510 -235 l 0 1038 l 118 1038 l 628 -235 l 510 -235 z "},"]":{"ha":656,"x_min":71,"x_max":485,"o":"m 485 1258 l 485 -335 l 71 -335 l 71 -232 l 375 -232 l 375 1156 l 71 1156 l 71 1258 l 485 1258 z "},"^":{"ha":1051,"x_min":93,"x_max":960,"o":"m 838 331 l 526 853 l 215 331 l 93 331 l 463 965 l 590 965 l 960 331 l 838 331 z "},"_":{"ha":785,"x_min":0,"x_max":790,"o":"m 0 -203 l 0 -100 l 790 -100 l 790 -203 l 0 -203 z "},"`":{"ha":635,"x_min":185,"x_max":461,"o":"m 343 764 l 185 1078 l 326 1078 l 461 764 l 343 764 z "},"a":{"ha":961,"x_min":104,"x_max":839,"o":"m 708 0 l 708 92 l 593 0 l 225 0 l 104 108 l 104 304 l 218 411 l 697 411 l 697 522 l 624 579 l 168 579 l 168 700 l 701 700 l 839 582 l 839 0 l 708 0 m 697 211 l 697 317 l 297 317 l 239 268 l 239 161 l 303 111 l 565 111 l 697 211 z "},"b":{"ha":972,"x_min":128,"x_max":858,"o":"m 376 0 l 257 92 l 257 0 l 128 0 l 128 967 l 264 967 l 264 608 l 382 700 l 696 700 l 858 557 l 858 142 l 696 0 l 376 0 m 722 200 l 722 499 l 626 574 l 394 574 l 264 481 l 264 219 l 394 126 l 626 126 l 722 200 z "},"c":{"ha":944,"x_min":114,"x_max":831,"o":"m 276 0 l 114 142 l 114 557 l 276 700 l 667 700 l 831 557 l 831 414 l 699 414 l 699 499 l 604 574 l 344 574 l 249 499 l 249 200 l 344 126 l 604 126 l 699 200 l 699 285 l 831 285 l 831 142 l 667 0 l 276 0 z "},"d":{"ha":971,"x_min":114,"x_max":843,"o":"m 714 0 l 714 92 l 594 0 l 276 0 l 114 142 l 114 557 l 276 700 l 588 700 l 707 608 l 707 965 l 843 965 l 843 0 l 714 0 m 707 219 l 707 481 l 578 574 l 346 574 l 250 499 l 250 200 l 346 126 l 578 126 l 707 219 z "},"e":{"ha":953,"x_min":114,"x_max":831,"o":"m 699 511 l 604 586 l 342 586 l 246 511 l 246 396 l 699 396 l 699 511 m 276 0 l 114 142 l 114 557 l 276 700 l 667 700 l 831 557 l 831 297 l 246 297 l 246 196 l 342 121 l 821 121 l 821 0 l 276 0 z "},"f":{"ha":667,"x_min":75,"x_max":592,"o":"m 197 0 l 197 579 l 75 579 l 75 700 l 197 700 l 197 876 l 336 996 l 592 996 l 592 879 l 408 879 l 333 822 l 333 700 l 592 700 l 592 579 l 333 579 l 333 0 l 197 0 z "},"g":{"ha":971,"x_min":114,"x_max":843,"o":"m 172 -235 l 172 -114 l 635 -114 l 710 -56 l 710 131 l 590 39 l 276 39 l 114 182 l 114 557 l 276 700 l 594 700 l 714 608 l 714 700 l 843 700 l 843 -115 l 707 -235 l 172 -235 m 707 256 l 707 481 l 578 574 l 346 574 l 250 499 l 250 238 l 346 163 l 578 163 l 707 256 z "},"h":{"ha":976,"x_min":128,"x_max":854,"o":"m 719 0 l 719 499 l 626 574 l 394 574 l 264 481 l 264 0 l 128 0 l 128 965 l 264 965 l 264 608 l 382 700 l 694 700 l 854 557 l 854 0 l 719 0 z "},"i":{"ha":392,"x_min":128,"x_max":264,"o":"m 128 0 m 128 0 l 128 700 l 264 700 l 264 0 l 128 0 m 128 843 l 128 996 l 264 996 l 264 843 l 128 843 z "},"j":{"ha":422,"x_min":-31,"x_max":290,"o":"m 0 0 m -31 -235 l -31 -114 l 82 -114 l 156 -56 l 156 700 l 290 700 l 290 -115 l 154 -235 l -31 -235 m 154 843 l 154 996 l 290 996 l 290 843 l 154 843 z "},"k":{"ha":949,"x_min":128,"x_max":876,"o":"m 725 0 l 494 385 l 264 181 l 264 0 l 128 0 l 128 965 l 264 965 l 264 356 l 682 700 l 851 700 l 599 476 l 876 0 l 725 0 z "},"l":{"ha":392,"x_min":128,"x_max":264,"o":"m 128 0 l 128 965 l 264 965 l 264 0 l 128 0 z "},"m":{"ha":1415,"x_min":128,"x_max":1293,"o":"m 1158 0 l 1158 499 l 1064 574 l 858 574 l 778 510 l 778 0 l 643 0 l 643 510 l 564 574 l 394 574 l 264 481 l 264 0 l 128 0 l 128 700 l 257 700 l 257 608 l 376 700 l 632 700 l 736 608 l 840 700 l 1132 700 l 1293 557 l 1293 0 l 1158 0 z "},"n":{"ha":976,"x_min":128,"x_max":854,"o":"m 719 0 l 719 499 l 626 574 l 394 574 l 264 481 l 264 0 l 128 0 l 128 700 l 257 700 l 257 608 l 376 700 l 694 700 l 854 557 l 854 0 l 719 0 z "},"o":{"ha":957,"x_min":114,"x_max":843,"o":"m 276 0 l 114 142 l 114 557 l 276 700 l 681 700 l 843 557 l 843 142 l 681 0 l 276 0 m 706 200 l 706 499 l 613 574 l 344 574 l 249 499 l 249 200 l 344 126 l 613 126 l 706 200 z "},"p":{"ha":972,"x_min":128,"x_max":858,"o":"m 722 200 l 722 499 l 626 574 l 394 574 l 264 481 l 264 219 l 394 126 l 626 126 l 722 200 m 382 0 l 264 92 l 264 -235 l 128 -235 l 128 700 l 257 700 l 257 608 l 376 700 l 696 700 l 858 557 l 858 142 l 696 0 l 382 0 z "},"q":{"ha":971,"x_min":114,"x_max":843,"o":"m 707 -235 l 707 92 l 588 0 l 276 0 l 114 142 l 114 557 l 276 700 l 594 700 l 714 608 l 714 700 l 843 700 l 843 -235 l 707 -235 m 707 219 l 707 481 l 578 574 l 346 574 l 250 499 l 250 200 l 346 126 l 578 126 l 707 219 z "},"r":{"ha":731,"x_min":128,"x_max":654,"o":"m 128 0 l 128 700 l 257 700 l 257 583 l 421 700 l 654 700 l 654 579 l 433 579 l 264 464 l 264 0 l 128 0 z "},"s":{"ha":883,"x_min":103,"x_max":782,"o":"m 117 0 l 117 121 l 575 121 l 651 178 l 651 247 l 571 304 l 253 304 l 103 410 l 103 582 l 240 700 l 757 700 l 757 579 l 311 579 l 235 524 l 235 457 l 318 401 l 633 401 l 782 294 l 782 119 l 646 0 l 117 0 z "},"t":{"ha":667,"x_min":75,"x_max":592,"o":"m 333 579 l 333 175 l 408 117 l 592 117 l 592 0 l 336 0 l 197 119 l 197 579 l 75 579 l 75 700 l 197 700 l 197 899 l 333 899 l 333 700 l 592 700 l 592 579 l 333 579 z "},"u":{"ha":976,"x_min":122,"x_max":849,"o":"m 719 0 l 719 100 l 594 0 l 285 0 l 122 142 l 122 700 l 257 700 l 257 200 l 353 126 l 578 126 l 713 228 l 713 700 l 849 700 l 849 0 l 719 0 z "},"v":{"ha":907,"x_min":60,"x_max":847,"o":"m 378 0 l 60 700 l 204 700 l 453 163 l 706 700 l 847 700 l 535 0 l 378 0 z "},"w":{"ha":1315,"x_min":58,"x_max":1257,"o":"m 868 0 l 653 554 l 444 0 l 257 0 l 58 700 l 200 700 l 358 146 l 569 700 l 740 700 l 957 146 l 1118 700 l 1257 700 l 1058 0 l 868 0 z "},"x":{"ha":996,"x_min":72,"x_max":925,"o":"m 72 0 l 406 367 l 101 700 l 264 700 l 503 453 l 743 700 l 897 700 l 589 361 l 925 0 l 761 0 l 493 274 l 226 0 l 72 0 z "},"y":{"ha":907,"x_min":60,"x_max":847,"o":"m 121 -235 l 121 -114 l 278 -114 l 361 -50 l 382 -3 l 60 700 l 207 700 l 451 149 l 703 700 l 847 700 l 465 -115 l 331 -235 l 121 -235 z "},"z":{"ha":849,"x_min":75,"x_max":778,"o":"m 158 0 l 75 89 l 585 579 l 106 579 l 106 700 l 696 700 l 778 611 l 268 121 l 765 121 l 765 0 l 158 0 z "},"{":{"ha":657,"x_min":79,"x_max":586,"o":"m 410 -333 l 272 -211 l 272 338 l 186 411 l 79 411 l 79 511 l 186 511 l 272 589 l 272 1138 l 410 1260 l 586 1260 l 586 1157 l 461 1157 l 381 1090 l 381 557 l 279 461 l 381 371 l 381 -164 l 461 -231 l 586 -231 l 586 -333 l 410 -333 z "},"|":{"ha":589,"x_min":239,"x_max":349,"o":"m 239 -333 l 239 1260 l 349 1260 l 349 -333 l 239 -333 z "},"}":{"ha":657,"x_min":71,"x_max":578,"o":"m 247 1258 l 385 1136 l 385 588 l 469 514 l 578 514 l 578 414 l 469 414 l 385 336 l 385 -212 l 247 -335 l 71 -335 l 71 -232 l 196 -232 l 275 -165 l 275 368 l 376 464 l 275 554 l 275 1089 l 194 1156 l 71 1156 l 71 1258 l 247 1258 z "},"~":{"ha":1051,"x_min":85,"x_max":968,"o":"m 821 374 l 647 374 l 390 501 l 254 501 l 85 386 l 85 499 l 235 604 l 404 604 l 663 476 l 797 476 l 968 593 l 968 479 l 821 374 z "}," ":{"ha":401,"x_min":0,"x_max":0,"o":""},"¡":{"ha":419,"x_min":131,"x_max":292,"o":"m 260 492 l 292 -225 l 131 -225 l 163 492 l 260 492 m 279 740 l 279 588 l 143 588 l 143 740 l 279 740 z "},"¢":{"ha":1043,"x_min":114,"x_max":940,"o":"m 492 -137 l 492 26 l 276 26 l 114 181 l 114 783 l 276 938 l 492 938 l 492 1075 l 567 1075 l 567 938 l 778 938 l 940 783 l 940 629 l 810 629 l 810 726 l 713 811 l 567 811 l 567 154 l 714 154 l 810 239 l 810 335 l 940 335 l 940 181 l 778 26 l 567 26 l 567 -137 l 492 -137 m 346 154 l 492 154 l 492 811 l 346 811 l 249 726 l 249 239 l 346 154 z "},"£":{"ha":1003,"x_min":92,"x_max":896,"o":"m 92 0 l 92 129 l 214 129 l 214 428 l 93 428 l 93 506 l 214 506 l 214 781 l 389 965 l 722 965 l 896 781 l 896 618 l 765 618 l 765 731 l 650 842 l 461 842 l 346 731 l 346 506 l 689 506 l 689 428 l 346 428 l 346 129 l 896 129 l 896 0 l 92 0 z "},"¤":{"ha":1051,"x_min":153,"x_max":894,"o":"m 349 232 l 331 249 l 232 168 l 154 240 l 253 321 l 231 343 l 231 621 l 251 640 l 153 722 l 231 794 l 329 714 l 349 732 l 707 732 l 722 717 l 815 794 l 894 721 l 800 643 l 825 621 l 825 343 l 799 318 l 894 240 l 817 168 l 722 246 l 707 232 l 349 232 m 717 388 l 717 576 l 653 635 l 404 635 l 339 576 l 339 388 l 404 329 l 653 329 l 717 388 z "},"¥":{"ha":951,"x_min":60,"x_max":890,"o":"m 414 0 l 414 169 l 107 169 l 107 257 l 414 257 l 414 404 l 107 404 l 107 492 l 374 492 l 60 965 l 210 965 l 479 575 l 739 965 l 890 965 l 588 492 l 826 492 l 826 404 l 550 404 l 550 257 l 826 257 l 826 169 l 550 169 l 550 0 l 414 0 z "},"¦":{"ha":589,"x_min":239,"x_max":349,"o":"m 239 603 l 239 1260 l 349 1260 l 349 603 l 239 603 m 239 -333 l 239 322 l 349 322 l 349 -333 l 239 -333 z "},"§":{"ha":1024,"x_min":144,"x_max":878,"o":"m 329 -235 l 161 -69 l 161 56 l 288 56 l 288 -29 l 397 -126 l 642 -126 l 747 -29 l 747 100 l 686 140 l 315 140 l 144 267 l 144 476 l 208 542 l 144 596 l 144 799 l 313 965 l 694 965 l 861 799 l 861 676 l 735 676 l 735 760 l 625 857 l 383 857 l 275 758 l 275 636 l 329 589 l 708 589 l 878 465 l 878 253 l 808 188 l 878 135 l 878 -69 l 711 -235 l 329 -235 m 747 418 l 647 492 l 333 492 l 275 438 l 275 314 l 378 238 l 683 238 l 747 294 l 747 418 z "},"¨":{"ha":721,"x_min":128,"x_max":593,"o":"m 458 843 l 458 996 l 593 996 l 593 843 l 458 843 m 128 843 l 128 996 l 264 996 l 264 843 l 128 843 z "},"©":{"ha":1269,"x_min":124,"x_max":1147,"o":"m 494 171 l 376 297 l 376 668 l 501 796 l 750 796 l 874 668 l 874 568 l 792 568 l 792 642 l 713 717 l 543 717 l 460 642 l 460 326 l 543 249 l 713 249 l 792 326 l 792 415 l 874 415 l 874 297 l 754 171 l 494 171 m 303 0 l 124 197 l 124 768 l 311 965 l 957 965 l 1147 768 l 1147 197 l 965 0 l 303 0 m 1061 228 l 1061 736 l 911 885 l 358 885 l 210 738 l 210 228 l 350 79 l 918 79 l 1061 228 z "},"ª":{"ha":693,"x_min":110,"x_max":550,"o":"m 461 546 l 461 600 l 403 546 l 183 546 l 110 610 l 110 736 l 178 800 l 456 800 l 456 860 l 421 885 l 149 885 l 149 965 l 468 965 l 550 894 l 550 546 l 461 546 m 456 681 l 456 735 l 238 735 l 201 706 l 201 650 l 240 619 l 386 619 l 456 681 z "},"«":{"ha":696,"x_min":69,"x_max":626,"o":"m 69 0 m 242 0 l 69 350 l 242 700 l 357 700 l 186 350 l 357 0 l 242 0 m 511 0 l 339 350 l 511 700 l 626 700 l 456 350 l 626 0 l 511 0 z "},"¬":{"ha":1051,"x_min":85,"x_max":968,"o":"m 857 0 l 857 431 l 85 431 l 85 533 l 968 533 l 968 0 l 857 0 z "},"­":{"ha":724,"x_min":75,"x_max":649,"o":"m 75 385 m 75 385 l 75 506 l 649 506 l 649 385 l 75 385 z "},"®":{"ha":1269,"x_min":124,"x_max":1147,"o":"m 303 0 l 124 197 l 124 768 l 311 965 l 957 965 l 1147 768 l 1147 197 l 965 0 l 303 0 m 1061 228 l 1061 736 l 911 885 l 358 885 l 210 738 l 210 228 l 350 79 l 918 79 l 1061 228 m 808 171 l 694 406 l 482 406 l 482 171 l 397 171 l 397 796 l 757 796 l 881 668 l 881 533 l 772 431 l 900 171 l 808 171 m 799 638 l 714 718 l 482 718 l 482 478 l 708 478 l 799 557 l 799 638 z "},"¯":{"ha":946,"x_min":128,"x_max":817,"o":"m 128 854 l 128 957 l 817 957 l 817 854 l 128 854 z "},"°":{"ha":813,"x_min":108,"x_max":703,"o":"m 226 465 l 108 576 l 108 854 l 226 965 l 585 965 l 703 854 l 703 576 l 585 465 l 226 465 m 594 621 l 594 810 l 531 868 l 282 868 l 217 810 l 217 621 l 282 563 l 531 563 l 594 621 z "},"±":{"ha":1051,"x_min":85,"x_max":968,"o":"m 85 33 m 581 572 l 581 239 l 471 239 l 471 572 l 85 572 l 85 675 l 471 675 l 471 1011 l 581 1011 l 581 675 l 968 675 l 968 572 l 581 572 m 85 33 l 85 136 l 968 136 l 968 33 l 85 33 z "},"²":{"ha":640,"x_min":117,"x_max":524,"o":"m 117 435 m 117 435 l 117 643 l 214 722 l 383 722 l 431 761 l 431 835 l 379 885 l 261 885 l 208 835 l 208 775 l 117 775 l 117 864 l 213 965 l 431 965 l 524 864 l 524 729 l 426 649 l 258 649 l 211 610 l 211 519 l 515 519 l 515 435 l 117 435 z "},"³":{"ha":646,"x_min":110,"x_max":532,"o":"m 110 435 m 208 435 l 110 543 l 110 639 l 203 639 l 203 575 l 260 519 l 381 519 l 438 575 l 438 626 l 389 675 l 278 675 l 278 747 l 388 747 l 433 792 l 433 831 l 375 885 l 263 885 l 203 831 l 203 775 l 110 775 l 110 857 l 215 965 l 425 965 l 528 857 l 528 775 l 468 714 l 532 646 l 532 543 l 431 435 l 208 435 z "},"´":{"ha":633,"x_min":181,"x_max":447,"o":"m 181 764 l 307 1078 l 447 1078 l 290 764 l 181 764 z "},"¶":{"ha":1094,"x_min":89,"x_max":956,"o":"m 860 -235 l 860 879 l 572 879 l 572 -235 l 478 -235 l 478 419 l 243 419 l 89 575 l 89 810 l 238 965 l 956 965 l 956 -235 l 860 -235 m 478 879 l 285 879 l 183 776 l 183 604 l 289 501 l 478 501 l 478 879 z "},"·":{"ha":392,"x_min":128,"x_max":264,"o":"m 128 379 m 128 379 l 128 532 l 264 532 l 264 379 l 128 379 z "},"¸":{"ha":382,"x_min":122,"x_max":260,"o":"m 122 -389 l 122 -53 l 260 -53 l 211 -389 l 122 -389 z "},"¹":{"ha":336,"x_min":119,"x_max":215,"o":"m 119 435 m 119 435 l 119 965 l 215 965 l 215 435 l 119 435 z "},"º":{"ha":694,"x_min":108,"x_max":546,"o":"m 206 546 l 108 631 l 108 879 l 206 965 l 449 965 l 546 879 l 546 631 l 449 546 l 206 546 m 451 674 l 451 836 l 396 882 l 257 882 l 200 836 l 200 674 l 257 629 l 396 629 l 451 674 z "},"»":{"ha":699,"x_min":69,"x_max":629,"o":"m 69 0 m 69 0 l 240 350 l 69 700 l 183 700 l 360 350 l 183 0 l 69 0 m 339 0 l 510 350 l 339 700 l 453 700 l 629 350 l 453 0 l 339 0 z "},"¼":{"ha":1146,"x_min":139,"x_max":1007,"o":"m 139 0 m 197 435 l 197 965 l 293 965 l 293 435 l 197 435 m 139 0 l 768 965 l 886 965 l 253 0 l 139 0 m 842 0 l 842 121 l 550 121 l 550 199 l 842 531 l 936 531 l 936 199 l 1007 199 l 1007 121 l 936 121 l 936 0 l 842 0 m 842 396 l 658 199 l 842 199 l 842 396 z "},"½":{"ha":1146,"x_min":119,"x_max":1026,"o":"m 119 0 m 178 435 l 178 965 l 274 965 l 274 435 l 178 435 m 119 0 l 749 965 l 867 965 l 233 0 l 119 0 m 619 0 l 619 208 l 717 288 l 886 288 l 933 326 l 933 400 l 882 450 l 764 450 l 711 400 l 711 340 l 619 340 l 619 429 l 715 531 l 933 531 l 1026 429 l 1026 294 l 929 214 l 761 214 l 714 175 l 714 85 l 1018 85 l 1018 0 l 619 0 z "},"¾":{"ha":1146,"x_min":50,"x_max":1093,"o":"m 50 0 m 149 435 l 50 543 l 50 639 l 143 639 l 143 575 l 200 519 l 321 519 l 378 575 l 378 626 l 329 675 l 218 675 l 218 747 l 328 747 l 374 792 l 374 831 l 315 885 l 203 885 l 143 831 l 143 775 l 50 775 l 50 857 l 156 965 l 365 965 l 468 857 l 468 775 l 408 714 l 472 646 l 472 543 l 371 435 l 149 435 m 225 0 l 854 965 l 972 965 l 339 0 l 225 0 m 928 0 l 928 121 l 636 121 l 636 199 l 928 531 l 1022 531 l 1022 199 l 1093 199 l 1093 121 l 1022 121 l 1022 0 l 928 0 m 928 396 l 744 199 l 928 199 l 928 396 z "},"¿":{"ha":922,"x_min":85,"x_max":836,"o":"m 390 346 l 444 385 l 444 492 l 564 492 l 564 326 l 454 232 l 303 232 l 219 158 l 219 -17 l 317 -99 l 610 -99 l 706 -17 l 706 104 l 836 104 l 836 -74 l 674 -226 l 247 -226 l 85 -74 l 85 213 l 225 346 l 390 346 m 571 740 l 571 586 l 436 586 l 436 740 l 571 740 z "},"À":{"ha":924,"x_min":69,"x_max":854,"o":"m 69 0 m 713 0 l 660 171 l 261 171 l 208 0 l 69 0 l 363 965 l 563 965 l 854 0 l 713 0 m 294 279 l 626 279 l 461 821 l 294 279 m 425 1000 l 274 1278 l 414 1278 l 544 1000 l 425 1000 z "},"Á":{"ha":924,"x_min":69,"x_max":854,"o":"m 69 0 m 713 0 l 660 171 l 261 171 l 208 0 l 69 0 l 363 965 l 563 965 l 854 0 l 713 0 m 294 279 l 626 279 l 461 821 l 294 279 m 372 1000 l 506 1278 l 646 1278 l 492 1000 l 372 1000 z "},"Â":{"ha":924,"x_min":69,"x_max":854,"o":"m 69 0 m 713 0 l 660 171 l 261 171 l 208 0 l 69 0 l 363 965 l 563 965 l 854 0 l 713 0 m 294 279 l 626 279 l 461 821 l 294 279 m 647 1000 l 460 1196 l 274 1000 l 154 1000 l 382 1278 l 538 1278 l 767 1000 l 647 1000 z "},"Ã":{"ha":924,"x_min":69,"x_max":854,"o":"m 69 0 m 713 0 l 660 171 l 261 171 l 208 0 l 69 0 l 363 965 l 563 965 l 854 0 l 713 0 m 294 279 l 626 279 l 461 821 l 294 279 m 635 1050 l 313 1129 l 196 1060 l 133 1133 l 288 1228 l 608 1147 l 728 1221 l 788 1144 l 635 1050 z "},"Ä":{"ha":924,"x_min":69,"x_max":854,"o":"m 69 0 m 713 0 l 660 171 l 261 171 l 208 0 l 69 0 l 363 965 l 563 965 l 854 0 l 713 0 m 294 279 l 626 279 l 461 821 l 294 279 m 556 1057 l 556 1200 l 690 1200 l 690 1057 l 556 1057 m 228 1057 l 228 1200 l 363 1200 l 363 1057 l 228 1057 z "},"Å":{"ha":924,"x_min":69,"x_max":854,"o":"m 69 0 m 713 0 l 660 171 l 261 171 l 208 0 l 69 0 l 363 965 l 563 965 l 854 0 l 713 0 m 294 279 l 626 279 l 461 821 l 294 279 m 586 996 l 338 996 l 256 1064 l 256 1210 l 338 1278 l 586 1278 l 665 1210 l 665 1064 l 586 996 m 576 1178 l 543 1206 l 381 1206 l 344 1176 l 344 1097 l 381 1068 l 542 1068 l 576 1096 l 576 1178 z "},"Æ":{"ha":1293,"x_min":69,"x_max":1189,"o":"m 574 0 l 574 171 l 261 171 l 208 0 l 69 0 l 367 965 l 1189 965 l 1189 836 l 711 836 l 711 553 l 1032 553 l 1032 439 l 711 439 l 711 129 l 1189 129 l 1189 0 l 574 0 m 294 279 l 574 279 l 574 836 l 468 836 l 294 279 z "},"Ç":{"ha":1000,"x_min":124,"x_max":878,"o":"m 124 0 m 303 0 l 124 197 l 124 768 l 311 965 l 690 965 l 878 768 l 878 613 l 746 613 l 746 722 l 628 836 l 382 836 l 258 722 l 258 244 l 382 129 l 628 129 l 746 244 l 746 378 l 878 378 l 878 197 l 699 0 l 303 0 m 435 -389 l 435 -53 l 572 -53 l 524 -389 l 435 -389 z "},"È":{"ha":876,"x_min":138,"x_max":772,"o":"m 138 0 m 138 0 l 138 965 l 772 965 l 772 836 l 275 836 l 275 553 l 615 553 l 615 439 l 275 439 l 275 129 l 772 129 l 772 0 l 138 0 m 433 1000 l 282 1278 l 422 1278 l 553 1000 l 433 1000 z "},"É":{"ha":876,"x_min":138,"x_max":772,"o":"m 138 0 m 138 0 l 138 965 l 772 965 l 772 836 l 275 836 l 275 553 l 615 553 l 615 439 l 275 439 l 275 129 l 772 129 l 772 0 l 138 0 m 378 1000 l 511 1278 l 651 1278 l 497 1000 l 378 1000 z "},"Ê":{"ha":876,"x_min":138,"x_max":774,"o":"m 138 0 m 138 0 l 138 965 l 772 965 l 772 836 l 275 836 l 275 553 l 615 553 l 615 439 l 275 439 l 275 129 l 772 129 l 772 0 l 138 0 m 654 1000 l 467 1196 l 281 1000 l 161 1000 l 389 1278 l 544 1278 l 774 1000 l 654 1000 z "},"Ë":{"ha":876,"x_min":138,"x_max":772,"o":"m 138 0 m 138 0 l 138 965 l 772 965 l 772 836 l 275 836 l 275 553 l 615 553 l 615 439 l 275 439 l 275 129 l 772 129 l 772 0 l 138 0 m 563 1057 l 563 1200 l 697 1200 l 697 1057 l 563 1057 m 235 1057 l 235 1200 l 369 1200 l 369 1057 l 235 1057 z "},"Ì":{"ha":426,"x_min":15,"x_max":289,"o":"m 15 0 m 151 0 l 151 965 l 289 965 l 289 0 l 151 0 m 167 1000 l 15 1278 l 156 1278 l 286 1000 l 167 1000 z "},"Í":{"ha":413,"x_min":138,"x_max":413,"o":"m 138 0 m 138 0 l 138 965 l 275 965 l 275 0 l 138 0 m 139 1000 l 272 1278 l 413 1278 l 258 1000 l 139 1000 z "},"Î":{"ha":613,"x_min":0,"x_max":613,"o":"m 0 0 m 238 0 l 238 965 l 375 965 l 375 0 l 238 0 m 493 1000 l 306 1196 l 119 1000 l 0 1000 l 228 1278 l 383 1278 l 613 1000 l 493 1000 z "},"Ï":{"ha":464,"x_min":0,"x_max":463,"o":"m 0 0 m 164 0 l 164 965 l 301 965 l 301 0 l 164 0 m 328 1057 l 328 1200 l 463 1200 l 463 1057 l 328 1057 m 0 1057 l 0 1200 l 135 1200 l 135 1057 l 0 1057 z "},"Ð":{"ha":972,"x_min":14,"x_max":850,"o":"m 138 0 l 138 439 l 14 439 l 14 553 l 138 553 l 138 965 l 660 965 l 850 768 l 850 197 l 667 0 l 138 0 m 275 439 l 275 129 l 594 129 l 715 244 l 715 722 l 594 836 l 275 836 l 275 553 l 501 553 l 501 439 l 275 439 z "},"Ñ":{"ha":1021,"x_min":138,"x_max":882,"o":"m 138 0 m 753 0 l 271 701 l 271 0 l 138 0 l 138 965 l 285 965 l 749 282 l 749 965 l 882 965 l 882 0 l 753 0 m 685 1050 l 363 1129 l 246 1060 l 183 1133 l 338 1228 l 658 1147 l 778 1221 l 838 1144 l 685 1050 z "},"Ò":{"ha":1004,"x_min":124,"x_max":882,"o":"m 124 0 m 303 0 l 124 197 l 124 768 l 311 965 l 693 965 l 882 768 l 882 197 l 701 0 l 303 0 m 747 244 l 747 722 l 625 836 l 382 836 l 258 722 l 258 244 l 376 129 l 629 129 l 747 244 m 471 1000 l 319 1278 l 460 1278 l 590 1000 l 471 1000 z "},"Ó":{"ha":1004,"x_min":124,"x_max":882,"o":"m 124 0 m 303 0 l 124 197 l 124 768 l 311 965 l 693 965 l 882 768 l 882 197 l 701 0 l 303 0 m 747 244 l 747 722 l 625 836 l 382 836 l 258 722 l 258 244 l 376 129 l 629 129 l 747 244 m 415 1000 l 549 1278 l 689 1278 l 535 1000 l 415 1000 z "},"Ô":{"ha":1004,"x_min":124,"x_max":882,"o":"m 124 0 m 303 0 l 124 197 l 124 768 l 311 965 l 693 965 l 882 768 l 882 197 l 701 0 l 303 0 m 747 244 l 747 722 l 625 836 l 382 836 l 258 722 l 258 244 l 376 129 l 629 129 l 747 244 m 692 1000 l 504 1196 l 318 1000 l 199 1000 l 426 1278 l 582 1278 l 811 1000 l 692 1000 z "},"Õ":{"ha":1004,"x_min":124,"x_max":882,"o":"m 124 0 m 303 0 l 124 197 l 124 768 l 311 965 l 693 965 l 882 768 l 882 197 l 701 0 l 303 0 m 747 244 l 747 722 l 625 836 l 382 836 l 258 722 l 258 244 l 376 129 l 629 129 l 747 244 m 676 1050 l 354 1129 l 238 1060 l 175 1133 l 329 1228 l 650 1147 l 769 1221 l 829 1144 l 676 1050 z "},"Ö":{"ha":1004,"x_min":124,"x_max":882,"o":"m 124 0 m 303 0 l 124 197 l 124 768 l 311 965 l 693 965 l 882 768 l 882 197 l 701 0 l 303 0 m 747 244 l 747 722 l 625 836 l 382 836 l 258 722 l 258 244 l 376 129 l 629 129 l 747 244 m 599 1057 l 599 1200 l 733 1200 l 733 1057 l 599 1057 m 271 1057 l 271 1200 l 406 1200 l 406 1057 l 271 1057 z "},"×":{"ha":1051,"x_min":153,"x_max":894,"o":"m 817 168 l 525 408 l 232 168 l 154 240 l 446 481 l 153 722 l 231 794 l 525 553 l 815 794 l 894 721 l 603 481 l 894 240 l 817 168 z "},"Ø":{"ha":1004,"x_min":93,"x_max":911,"o":"m 93 -18 l 192 122 l 124 197 l 124 768 l 313 965 l 694 965 l 754 903 l 839 1024 l 911 983 l 811 842 l 882 768 l 882 197 l 701 0 l 303 0 l 247 60 l 164 -58 l 93 -18 m 747 244 l 747 722 l 726 740 l 336 168 l 375 129 l 629 129 l 747 244 m 258 244 l 276 226 l 665 799 l 625 836 l 381 836 l 258 722 l 258 244 z "},"Ù":{"ha":1003,"x_min":129,"x_max":874,"o":"m 129 0 m 293 0 l 129 178 l 129 965 l 264 965 l 264 238 l 369 132 l 635 132 l 740 238 l 740 965 l 874 965 l 874 178 l 711 0 l 293 0 m 468 1000 l 317 1278 l 457 1278 l 588 1000 l 468 1000 z "},"Ú":{"ha":1003,"x_min":129,"x_max":874,"o":"m 129 0 m 293 0 l 129 178 l 129 965 l 264 965 l 264 238 l 369 132 l 635 132 l 740 238 l 740 965 l 874 965 l 874 178 l 711 0 l 293 0 m 415 1000 l 549 1278 l 689 1278 l 535 1000 l 415 1000 z "},"Û":{"ha":1003,"x_min":129,"x_max":874,"o":"m 129 0 m 293 0 l 129 178 l 129 965 l 264 965 l 264 238 l 369 132 l 635 132 l 740 238 l 740 965 l 874 965 l 874 178 l 711 0 l 293 0 m 689 1000 l 501 1196 l 315 1000 l 196 1000 l 424 1278 l 579 1278 l 808 1000 l 689 1000 z "},"Ü":{"ha":1003,"x_min":129,"x_max":874,"o":"m 129 0 m 293 0 l 129 178 l 129 965 l 264 965 l 264 238 l 369 132 l 635 132 l 740 238 l 740 965 l 874 965 l 874 178 l 711 0 l 293 0 m 597 1057 l 597 1200 l 732 1200 l 732 1057 l 597 1057 m 269 1057 l 269 1200 l 404 1200 l 404 1057 l 269 1057 z "},"Ý":{"ha":951,"x_min":60,"x_max":890,"o":"m 60 0 m 414 0 l 414 431 l 60 965 l 210 965 l 479 575 l 739 965 l 890 965 l 550 433 l 550 0 l 414 0 m 404 1000 l 538 1278 l 678 1278 l 524 1000 l 404 1000 z "},"Þ":{"ha":971,"x_min":138,"x_max":849,"o":"m 275 168 l 275 0 l 138 0 l 138 965 l 275 965 l 275 801 l 660 801 l 849 604 l 849 365 l 667 168 l 275 168 m 714 564 l 589 681 l 275 681 l 275 297 l 593 297 l 714 415 l 714 564 z "},"ß":{"ha":1138,"x_min":128,"x_max":1024,"o":"m 415 0 l 415 121 l 815 121 l 893 178 l 893 375 l 811 432 l 635 432 l 533 515 l 533 822 l 460 879 l 338 879 l 264 822 l 264 0 l 128 0 l 128 876 l 265 996 l 532 996 l 668 876 l 668 578 l 703 547 l 874 547 l 1024 439 l 1024 119 l 888 0 l 415 0 z "},"à":{"ha":961,"x_min":104,"x_max":839,"o":"m 104 0 m 708 0 l 708 92 l 593 0 l 225 0 l 104 108 l 104 304 l 218 411 l 697 411 l 697 522 l 624 579 l 168 579 l 168 700 l 701 700 l 839 582 l 839 0 l 708 0 m 697 211 l 697 317 l 297 317 l 239 268 l 239 161 l 303 111 l 565 111 l 697 211 m 444 764 l 286 1078 l 428 1078 l 563 764 l 444 764 z "},"á":{"ha":961,"x_min":104,"x_max":839,"o":"m 104 0 m 708 0 l 708 92 l 593 0 l 225 0 l 104 108 l 104 304 l 218 411 l 697 411 l 697 522 l 624 579 l 168 579 l 168 700 l 701 700 l 839 582 l 839 0 l 708 0 m 697 211 l 697 317 l 297 317 l 239 268 l 239 161 l 303 111 l 565 111 l 697 211 m 389 764 l 515 1078 l 656 1078 l 499 764 l 389 764 z "},"â":{"ha":961,"x_min":104,"x_max":839,"o":"m 104 0 m 708 0 l 708 92 l 593 0 l 225 0 l 104 108 l 104 304 l 218 411 l 697 411 l 697 522 l 624 579 l 168 579 l 168 700 l 701 700 l 839 582 l 839 0 l 708 0 m 697 211 l 697 317 l 297 317 l 239 268 l 239 161 l 303 111 l 565 111 l 697 211 m 667 764 l 479 989 l 292 764 l 172 764 l 401 1078 l 557 1078 l 785 764 l 667 764 z "},"ã":{"ha":958,"x_min":104,"x_max":839,"o":"m 104 0 m 708 0 l 708 92 l 593 0 l 225 0 l 104 108 l 104 304 l 218 411 l 697 411 l 697 522 l 624 579 l 168 579 l 168 700 l 701 700 l 839 582 l 839 0 l 708 0 m 697 211 l 697 317 l 297 317 l 239 268 l 239 161 l 303 111 l 565 111 l 697 211 m 651 832 l 332 915 l 214 843 l 151 924 l 306 1024 l 626 939 l 746 1017 l 806 933 l 651 832 z "},"ä":{"ha":961,"x_min":104,"x_max":839,"o":"m 104 0 m 708 0 l 708 92 l 593 0 l 225 0 l 104 108 l 104 304 l 218 411 l 697 411 l 697 522 l 624 579 l 168 579 l 168 700 l 701 700 l 839 582 l 839 0 l 708 0 m 697 211 l 697 317 l 297 317 l 239 268 l 239 161 l 303 111 l 565 111 l 697 211 m 565 843 l 565 996 l 700 996 l 700 843 l 565 843 m 235 843 l 235 996 l 371 996 l 371 843 l 235 843 z "},"å":{"ha":961,"x_min":104,"x_max":839,"o":"m 104 0 m 708 0 l 708 92 l 593 0 l 225 0 l 104 108 l 104 304 l 218 411 l 697 411 l 697 522 l 624 579 l 168 579 l 168 700 l 701 700 l 839 582 l 839 0 l 708 0 m 697 211 l 697 317 l 297 317 l 239 268 l 239 161 l 303 111 l 565 111 l 697 211 m 356 771 l 275 847 l 275 1039 l 356 1115 l 604 1115 l 685 1039 l 685 847 l 604 771 l 356 771 m 596 881 l 596 1004 l 556 1040 l 408 1040 l 363 1003 l 363 882 l 400 847 l 558 847 l 596 881 z "},"æ":{"ha":1546,"x_min":104,"x_max":1424,"o":"m 871 0 l 725 124 l 649 50 l 593 0 l 225 0 l 104 108 l 104 304 l 218 411 l 697 411 l 697 522 l 624 579 l 168 579 l 168 700 l 701 700 l 786 635 l 871 700 l 1261 700 l 1424 557 l 1424 297 l 840 297 l 840 196 l 936 121 l 1415 121 l 1415 0 l 871 0 m 697 211 l 697 317 l 297 317 l 239 268 l 239 161 l 303 111 l 565 111 l 697 211 m 1293 511 l 1199 586 l 936 586 l 840 511 l 840 396 l 1293 396 l 1293 511 z "},"ç":{"ha":944,"x_min":114,"x_max":831,"o":"m 114 0 m 276 0 l 114 142 l 114 557 l 276 700 l 667 700 l 831 557 l 831 414 l 699 414 l 699 499 l 604 574 l 344 574 l 249 499 l 249 200 l 344 126 l 604 126 l 699 200 l 699 285 l 831 285 l 831 142 l 667 0 l 276 0 m 401 -389 l 401 -53 l 539 -53 l 490 -389 l 401 -389 z "},"è":{"ha":953,"x_min":114,"x_max":831,"o":"m 114 0 m 699 511 l 604 586 l 342 586 l 246 511 l 246 396 l 699 396 l 699 511 m 276 0 l 114 142 l 114 557 l 276 700 l 667 700 l 831 557 l 831 297 l 246 297 l 246 196 l 342 121 l 821 121 l 821 0 l 276 0 m 446 764 l 288 1078 l 429 1078 l 564 764 l 446 764 z "},"é":{"ha":953,"x_min":114,"x_max":831,"o":"m 114 0 m 699 511 l 604 586 l 342 586 l 246 511 l 246 396 l 699 396 l 699 511 m 276 0 l 114 142 l 114 557 l 276 700 l 667 700 l 831 557 l 831 297 l 246 297 l 246 196 l 342 121 l 821 121 l 821 0 l 276 0 m 388 764 l 514 1078 l 654 1078 l 497 764 l 388 764 z "},"ê":{"ha":953,"x_min":114,"x_max":831,"o":"m 114 0 m 699 511 l 604 586 l 342 586 l 246 511 l 246 396 l 699 396 l 699 511 m 276 0 l 114 142 l 114 557 l 276 700 l 667 700 l 831 557 l 831 297 l 246 297 l 246 196 l 342 121 l 821 121 l 821 0 l 276 0 m 664 764 l 476 989 l 289 764 l 169 764 l 399 1078 l 554 1078 l 782 764 l 664 764 z "},"ë":{"ha":953,"x_min":114,"x_max":831,"o":"m 114 0 m 699 511 l 604 586 l 342 586 l 246 511 l 246 396 l 699 396 l 699 511 m 276 0 l 114 142 l 114 557 l 276 700 l 667 700 l 831 557 l 831 297 l 246 297 l 246 196 l 342 121 l 821 121 l 821 0 l 276 0 m 571 843 l 571 996 l 706 996 l 706 843 l 571 843 m 240 843 l 240 996 l 376 996 l 376 843 l 240 843 z "},"ì":{"ha":401,"x_min":0,"x_max":276,"o":"m 0 0 m 121 0 l 121 700 l 257 700 l 257 0 l 121 0 m 158 764 l 0 1078 l 142 1078 l 276 764 l 158 764 z "},"í":{"ha":401,"x_min":128,"x_max":401,"o":"m 128 0 m 128 0 l 128 700 l 264 700 l 264 0 l 128 0 m 135 764 l 261 1078 l 401 1078 l 244 764 l 135 764 z "},"î":{"ha":568,"x_min":-22,"x_max":590,"o":"m 0 0 m 215 0 l 215 700 l 351 700 l 351 0 l 215 0 m 472 764 l 285 989 l 97 764 l -22 764 l 207 1078 l 363 1078 l 590 764 l 472 764 z "},"ï":{"ha":488,"x_min":13,"x_max":478,"o":"m 13 0 m 176 0 l 176 700 l 313 700 l 313 0 l 176 0 m 343 843 l 343 996 l 478 996 l 478 843 l 343 843 m 13 843 l 13 996 l 149 996 l 149 843 l 13 843 z "},"ð":{"ha":971,"x_min":114,"x_max":843,"o":"m 253 744 l 361 875 l 176 875 l 176 996 l 463 996 l 553 1104 l 642 1104 l 551 996 l 697 996 l 843 872 l 843 142 l 681 0 l 276 0 l 114 142 l 114 513 l 276 656 l 638 656 l 721 590 l 721 808 l 632 875 l 450 875 l 342 744 l 253 744 m 706 201 l 706 454 l 613 529 l 343 529 l 249 454 l 249 203 l 347 126 l 611 126 l 706 201 z "},"ñ":{"ha":976,"x_min":128,"x_max":854,"o":"m 128 0 m 719 0 l 719 499 l 626 574 l 394 574 l 264 481 l 264 0 l 128 0 l 128 700 l 257 700 l 257 608 l 376 700 l 694 700 l 854 557 l 854 0 l 719 0 m 661 832 l 342 915 l 224 843 l 161 924 l 315 1024 l 636 939 l 756 1017 l 815 933 l 661 832 z "},"ò":{"ha":957,"x_min":114,"x_max":843,"o":"m 114 0 m 276 0 l 114 142 l 114 557 l 276 700 l 681 700 l 843 557 l 843 142 l 681 0 l 276 0 m 706 200 l 706 499 l 613 574 l 344 574 l 249 499 l 249 200 l 344 126 l 613 126 l 706 200 m 447 764 l 289 1078 l 431 1078 l 565 764 l 447 764 z "},"ó":{"ha":957,"x_min":114,"x_max":843,"o":"m 114 0 m 276 0 l 114 142 l 114 557 l 276 700 l 681 700 l 843 557 l 843 142 l 681 0 l 276 0 m 706 200 l 706 499 l 613 574 l 344 574 l 249 499 l 249 200 l 344 126 l 613 126 l 706 200 m 394 764 l 521 1078 l 661 1078 l 504 764 l 394 764 z "},"ô":{"ha":957,"x_min":114,"x_max":843,"o":"m 114 0 m 276 0 l 114 142 l 114 557 l 276 700 l 681 700 l 843 557 l 843 142 l 681 0 l 276 0 m 706 200 l 706 499 l 613 574 l 344 574 l 249 499 l 249 200 l 344 126 l 613 126 l 706 200 m 665 764 l 478 989 l 290 764 l 171 764 l 400 1078 l 556 1078 l 783 764 l 665 764 z "},"õ":{"ha":957,"x_min":114,"x_max":843,"o":"m 114 0 m 276 0 l 114 142 l 114 557 l 276 700 l 681 700 l 843 557 l 843 142 l 681 0 l 276 0 m 706 200 l 706 499 l 613 574 l 344 574 l 249 499 l 249 200 l 344 126 l 613 126 l 706 200 m 651 832 l 332 915 l 214 843 l 151 924 l 306 1024 l 626 939 l 746 1017 l 806 933 l 651 832 z "},"ö":{"ha":957,"x_min":114,"x_max":843,"o":"m 114 0 m 276 0 l 114 142 l 114 557 l 276 700 l 681 700 l 843 557 l 843 142 l 681 0 l 276 0 m 706 200 l 706 499 l 613 574 l 344 574 l 249 499 l 249 200 l 344 126 l 613 126 l 706 200 m 578 843 l 578 996 l 713 996 l 713 843 l 578 843 m 247 843 l 247 996 l 383 996 l 383 843 l 247 843 z "},"÷":{"ha":1051,"x_min":85,"x_max":968,"o":"m 85 106 m 85 431 l 85 533 l 968 533 l 968 431 l 85 431 m 460 706 l 460 858 l 596 858 l 596 706 l 460 706 m 460 106 l 460 258 l 596 258 l 596 106 l 460 106 z "},"ø":{"ha":957,"x_min":81,"x_max":876,"o":"m 81 -11 l 171 90 l 114 142 l 114 557 l 275 700 l 681 700 l 726 658 l 815 756 l 876 708 l 783 608 l 843 557 l 843 142 l 681 0 l 275 0 l 229 40 l 140 -57 l 81 -11 m 249 200 l 272 182 l 625 563 l 611 574 l 344 574 l 249 499 l 249 200 m 706 200 l 706 499 l 685 514 l 331 136 l 344 126 l 611 126 l 706 200 z "},"ù":{"ha":976,"x_min":122,"x_max":849,"o":"m 122 0 m 719 0 l 719 100 l 594 0 l 285 0 l 122 142 l 122 700 l 257 700 l 257 200 l 353 126 l 578 126 l 713 228 l 713 700 l 849 700 l 849 0 l 719 0 m 456 764 l 297 1078 l 439 1078 l 574 764 l 456 764 z "},"ú":{"ha":976,"x_min":122,"x_max":849,"o":"m 122 0 m 719 0 l 719 100 l 594 0 l 285 0 l 122 142 l 122 700 l 257 700 l 257 200 l 353 126 l 578 126 l 713 228 l 713 700 l 849 700 l 849 0 l 719 0 m 403 764 l 529 1078 l 669 1078 l 513 764 l 403 764 z "},"û":{"ha":976,"x_min":122,"x_max":849,"o":"m 122 0 m 719 0 l 719 100 l 594 0 l 285 0 l 122 142 l 122 700 l 257 700 l 257 200 l 353 126 l 578 126 l 713 228 l 713 700 l 849 700 l 849 0 l 719 0 m 676 764 l 489 989 l 301 764 l 182 764 l 411 1078 l 567 1078 l 794 764 l 676 764 z "},"ü":{"ha":976,"x_min":122,"x_max":849,"o":"m 122 0 m 719 0 l 719 100 l 594 0 l 285 0 l 122 142 l 122 700 l 257 700 l 257 200 l 353 126 l 578 126 l 713 228 l 713 700 l 849 700 l 849 0 l 719 0 m 583 843 l 583 996 l 718 996 l 718 843 l 583 843 m 253 843 l 253 996 l 389 996 l 389 843 l 253 843 z "},"ý":{"ha":907,"x_min":60,"x_max":847,"o":"m 60 0 m 121 -235 l 121 -114 l 278 -114 l 361 -50 l 382 -3 l 60 700 l 207 700 l 451 149 l 703 700 l 847 700 l 465 -115 l 331 -235 l 121 -235 m 383 764 l 510 1078 l 650 1078 l 493 764 l 383 764 z "},"þ":{"ha":972,"x_min":128,"x_max":858,"o":"m 382 0 l 264 92 l 264 -235 l 128 -235 l 128 967 l 264 967 l 264 608 l 382 700 l 696 700 l 858 557 l 858 142 l 696 0 l 382 0 m 722 200 l 722 499 l 626 574 l 394 574 l 264 481 l 264 219 l 394 126 l 626 126 l 722 200 z "},"ÿ":{"ha":907,"x_min":60,"x_max":847,"o":"m 60 0 m 121 -235 l 121 -114 l 278 -114 l 361 -50 l 382 -3 l 60 700 l 207 700 l 451 149 l 703 700 l 847 700 l 465 -115 l 331 -235 l 121 -235 m 551 843 l 551 996 l 686 996 l 686 843 l 551 843 m 221 843 l 221 996 l 357 996 l 357 843 l 221 843 z "},"Ā":{"ha":924,"x_min":69,"x_max":854,"o":"m 69 0 m 713 0 l 660 171 l 261 171 l 208 0 l 69 0 l 363 965 l 563 965 l 854 0 l 713 0 m 294 279 l 626 279 l 461 821 l 294 279 m 115 1078 l 115 1172 l 807 1172 l 807 1078 l 115 1078 z "},"ā":{"ha":961,"x_min":104,"x_max":839,"o":"m 104 0 m 708 0 l 708 92 l 593 0 l 225 0 l 104 108 l 104 304 l 218 411 l 697 411 l 697 522 l 624 579 l 168 579 l 168 700 l 701 700 l 839 582 l 839 0 l 708 0 m 697 211 l 697 317 l 297 317 l 239 268 l 239 161 l 303 111 l 565 111 l 697 211 m 135 854 l 135 957 l 824 957 l 824 854 l 135 854 z "},"Ă":{"ha":924,"x_min":69,"x_max":854,"o":"m 69 0 m 713 0 l 660 171 l 261 171 l 208 0 l 69 0 l 363 965 l 563 965 l 854 0 l 713 0 m 294 279 l 626 279 l 461 821 l 294 279 m 636 1008 l 283 1008 l 171 1104 l 171 1278 l 275 1278 l 275 1150 l 333 1106 l 586 1106 l 644 1150 l 644 1278 l 751 1278 l 751 1104 l 636 1008 z "},"ă":{"ha":961,"x_min":104,"x_max":839,"o":"m 104 0 m 708 0 l 708 92 l 593 0 l 225 0 l 104 108 l 104 304 l 218 411 l 697 411 l 697 522 l 624 579 l 168 579 l 168 700 l 701 700 l 839 582 l 839 0 l 708 0 m 697 211 l 697 317 l 297 317 l 239 268 l 239 161 l 303 111 l 565 111 l 697 211 m 300 779 l 188 888 l 188 1078 l 293 1078 l 293 938 l 353 885 l 601 885 l 663 938 l 663 1078 l 769 1078 l 769 888 l 653 779 l 300 779 z "},"Ą":{"ha":924,"x_min":69,"x_max":897,"o":"m 592 -389 l 454 -260 l 717 -36 l 658 171 l 263 171 l 208 0 l 69 0 l 363 965 l 563 965 l 854 0 l 614 -215 l 676 -268 l 897 -268 l 897 -389 l 592 -389 m 288 279 l 633 279 l 461 821 l 288 279 z "},"ą":{"ha":960,"x_min":104,"x_max":882,"o":"m 576 -389 l 438 -260 l 708 -28 l 708 92 l 593 0 l 225 0 l 104 108 l 104 304 l 218 411 l 697 411 l 697 522 l 624 579 l 168 579 l 168 700 l 701 700 l 839 582 l 839 0 l 600 -215 l 661 -268 l 882 -268 l 882 -389 l 576 -389 m 697 211 l 697 317 l 297 317 l 239 268 l 239 161 l 303 111 l 565 111 l 697 211 z "},"Ć":{"ha":1000,"x_min":124,"x_max":878,"o":"m 124 0 m 303 0 l 124 197 l 124 768 l 311 965 l 690 965 l 878 768 l 878 613 l 746 613 l 746 722 l 628 836 l 382 836 l 258 722 l 258 244 l 382 129 l 628 129 l 746 244 l 746 378 l 878 378 l 878 197 l 699 0 l 303 0 m 419 1000 l 553 1278 l 693 1278 l 539 1000 l 419 1000 z "},"ć":{"ha":944,"x_min":114,"x_max":831,"o":"m 114 0 m 276 0 l 114 142 l 114 557 l 276 700 l 667 700 l 831 557 l 831 414 l 699 414 l 699 499 l 604 574 l 344 574 l 249 499 l 249 200 l 344 126 l 604 126 l 699 200 l 699 285 l 831 285 l 831 142 l 667 0 l 276 0 m 390 764 l 517 1078 l 657 1078 l 500 764 l 390 764 z "},"Ċ":{"ha":1000,"x_min":124,"x_max":878,"o":"m 124 0 m 303 0 l 124 197 l 124 768 l 311 965 l 690 965 l 878 768 l 878 613 l 746 613 l 746 722 l 628 836 l 382 836 l 258 722 l 258 244 l 382 129 l 628 129 l 746 244 l 746 378 l 878 378 l 878 197 l 699 0 l 303 0 m 433 1057 l 433 1200 l 569 1200 l 569 1057 l 433 1057 z "},"ċ":{"ha":944,"x_min":114,"x_max":831,"o":"m 114 0 m 276 0 l 114 142 l 114 557 l 276 700 l 667 700 l 831 557 l 831 414 l 699 414 l 699 499 l 604 574 l 344 574 l 249 499 l 249 200 l 344 126 l 604 126 l 699 200 l 699 285 l 831 285 l 831 142 l 667 0 l 276 0 m 410 843 l 410 996 l 546 996 l 546 843 l 410 843 z "},"Č":{"ha":1000,"x_min":124,"x_max":878,"o":"m 124 0 m 303 0 l 124 197 l 124 768 l 311 965 l 690 965 l 878 768 l 878 613 l 746 613 l 746 722 l 628 836 l 382 836 l 258 722 l 258 244 l 382 129 l 628 129 l 746 244 l 746 378 l 878 378 l 878 197 l 699 0 l 303 0 m 428 1001 l 197 1279 l 318 1279 l 504 1083 l 692 1279 l 810 1279 l 583 1001 l 428 1001 z "},"č":{"ha":944,"x_min":114,"x_max":831,"o":"m 114 0 m 276 0 l 114 142 l 114 557 l 276 700 l 667 700 l 831 557 l 831 414 l 699 414 l 699 499 l 604 574 l 344 574 l 249 499 l 249 200 l 344 126 l 604 126 l 699 200 l 699 285 l 831 285 l 831 142 l 667 0 l 276 0 m 400 765 l 169 1079 l 289 1079 l 478 853 l 664 1079 l 782 1079 l 556 765 l 400 765 z "},"Ď":{"ha":971,"x_min":138,"x_max":849,"o":"m 138 0 m 138 0 l 138 965 l 660 965 l 849 768 l 849 197 l 667 0 l 138 0 m 714 244 l 714 722 l 594 836 l 275 836 l 275 129 l 594 129 l 714 244 m 378 1001 l 147 1279 l 268 1279 l 454 1083 l 642 1279 l 760 1279 l 533 1001 l 378 1001 z "},"ď":{"ha":1049,"x_min":114,"x_max":1085,"o":"m 114 0 m 714 0 l 714 92 l 594 0 l 276 0 l 114 142 l 114 557 l 276 700 l 588 700 l 707 608 l 707 965 l 843 965 l 843 0 l 714 0 m 707 219 l 707 481 l 578 574 l 346 574 l 250 499 l 250 200 l 346 126 l 578 126 l 707 219 m 947 669 l 947 1006 l 1085 1006 l 1036 669 l 947 669 z "},"Đ":{"ha":972,"x_min":14,"x_max":850,"o":"m 14 0 m 138 0 l 138 439 l 14 439 l 14 553 l 138 553 l 138 965 l 660 965 l 850 768 l 850 197 l 667 0 l 138 0 m 275 439 l 275 129 l 594 129 l 715 244 l 715 722 l 594 836 l 275 836 l 275 553 l 501 553 l 501 439 l 275 439 z "},"đ":{"ha":971,"x_min":114,"x_max":972,"o":"m 714 0 l 714 92 l 594 0 l 276 0 l 114 142 l 114 557 l 276 700 l 588 700 l 707 608 l 707 826 l 283 826 l 283 929 l 707 929 l 707 965 l 843 965 l 843 929 l 972 929 l 972 826 l 843 826 l 843 0 l 714 0 m 707 219 l 707 481 l 578 574 l 346 574 l 250 499 l 250 200 l 346 126 l 578 126 l 707 219 z "},"Ē":{"ha":876,"x_min":121,"x_max":813,"o":"m 121 0 m 138 0 l 138 965 l 772 965 l 772 836 l 275 836 l 275 553 l 615 553 l 615 439 l 275 439 l 275 129 l 772 129 l 772 0 l 138 0 m 121 1078 l 121 1172 l 813 1172 l 813 1078 l 121 1078 z "},"ē":{"ha":951,"x_min":114,"x_max":831,"o":"m 114 0 m 699 511 l 604 586 l 342 586 l 246 511 l 246 396 l 699 396 l 699 511 m 276 0 l 114 142 l 114 557 l 276 700 l 667 700 l 831 557 l 831 297 l 246 297 l 246 196 l 342 121 l 821 121 l 821 0 l 276 0 m 131 854 l 131 957 l 819 957 l 819 854 l 131 854 z "},"Ĕ":{"ha":876,"x_min":138,"x_max":772,"o":"m 138 0 m 138 0 l 138 965 l 772 965 l 772 836 l 275 836 l 275 553 l 615 553 l 615 439 l 275 439 l 275 129 l 772 129 l 772 0 l 138 0 m 642 1008 l 289 1008 l 176 1104 l 176 1278 l 281 1278 l 281 1150 l 339 1106 l 592 1106 l 650 1150 l 650 1278 l 757 1278 l 757 1104 l 642 1008 z "},"ĕ":{"ha":953,"x_min":114,"x_max":831,"o":"m 114 0 m 699 511 l 604 586 l 342 586 l 246 511 l 246 396 l 699 396 l 699 511 m 276 0 l 114 142 l 114 557 l 276 700 l 667 700 l 831 557 l 831 297 l 246 297 l 246 196 l 342 121 l 821 121 l 821 0 l 276 0 m 297 779 l 185 888 l 185 1078 l 290 1078 l 290 938 l 350 885 l 599 885 l 660 938 l 660 1078 l 767 1078 l 767 888 l 650 779 l 297 779 z "},"Ė":{"ha":876,"x_min":138,"x_max":772,"o":"m 138 0 m 138 0 l 138 965 l 772 965 l 772 836 l 275 836 l 275 553 l 615 553 l 615 439 l 275 439 l 275 129 l 772 129 l 772 0 l 138 0 m 397 1057 l 397 1200 l 533 1200 l 533 1057 l 397 1057 z "},"ė":{"ha":953,"x_min":114,"x_max":831,"o":"m 114 0 m 699 511 l 604 586 l 342 586 l 246 511 l 246 396 l 699 396 l 699 511 m 276 0 l 114 142 l 114 557 l 276 700 l 667 700 l 831 557 l 831 297 l 246 297 l 246 196 l 342 121 l 821 121 l 821 0 l 276 0 m 408 843 l 408 996 l 544 996 l 544 843 l 408 843 z "},"Ę":{"ha":876,"x_min":138,"x_max":817,"o":"m 511 -389 l 372 -260 l 668 0 l 138 0 l 138 965 l 772 965 l 772 836 l 275 836 l 275 553 l 615 553 l 615 439 l 275 439 l 275 129 l 772 129 l 772 0 l 533 -215 l 596 -268 l 817 -268 l 817 -389 l 511 -389 z "},"ę":{"ha":951,"x_min":114,"x_max":864,"o":"m 558 -389 l 421 -260 l 715 0 l 276 0 l 114 142 l 114 557 l 276 700 l 667 700 l 831 557 l 831 297 l 246 297 l 246 196 l 342 121 l 821 121 l 821 0 l 582 -215 l 643 -268 l 864 -268 l 864 -389 l 558 -389 m 699 511 l 604 586 l 342 586 l 246 511 l 246 396 l 699 396 l 699 511 z "},"Ě":{"ha":876,"x_min":138,"x_max":772,"o":"m 138 0 m 138 0 l 138 965 l 772 965 l 772 836 l 275 836 l 275 553 l 615 553 l 615 439 l 275 439 l 275 129 l 772 129 l 772 0 l 138 0 m 390 1001 l 160 1279 l 281 1279 l 467 1083 l 654 1279 l 772 1279 l 546 1001 l 390 1001 z "},"ě":{"ha":953,"x_min":114,"x_max":831,"o":"m 114 0 m 699 511 l 604 586 l 342 586 l 246 511 l 246 396 l 699 396 l 699 511 m 276 0 l 114 142 l 114 557 l 276 700 l 667 700 l 831 557 l 831 297 l 246 297 l 246 196 l 342 121 l 821 121 l 821 0 l 276 0 m 400 765 l 169 1079 l 289 1079 l 478 853 l 664 1079 l 782 1079 l 556 765 l 400 765 z "},"Ğ":{"ha":1000,"x_min":124,"x_max":878,"o":"m 124 0 m 303 0 l 124 197 l 124 768 l 311 965 l 690 965 l 878 768 l 878 613 l 747 613 l 747 729 l 625 843 l 375 843 l 257 729 l 257 238 l 375 124 l 632 124 l 751 235 l 751 403 l 483 403 l 483 508 l 878 508 l 878 192 l 699 0 l 303 0 m 678 1008 l 325 1008 l 213 1104 l 213 1278 l 317 1278 l 317 1150 l 375 1106 l 628 1106 l 686 1150 l 686 1278 l 793 1278 l 793 1104 l 678 1008 z "},"ğ":{"ha":971,"x_min":114,"x_max":843,"o":"m 114 0 m 172 -235 l 172 -114 l 635 -114 l 710 -56 l 710 131 l 590 39 l 276 39 l 114 182 l 114 557 l 276 700 l 594 700 l 714 608 l 714 700 l 843 700 l 843 -115 l 707 -235 l 172 -235 m 707 256 l 707 481 l 578 574 l 346 574 l 250 499 l 250 238 l 346 163 l 578 163 l 707 256 m 292 779 l 179 888 l 179 1078 l 285 1078 l 285 938 l 344 885 l 593 885 l 654 938 l 654 1078 l 761 1078 l 761 888 l 644 779 l 292 779 z "},"Ġ":{"ha":1000,"x_min":124,"x_max":878,"o":"m 124 0 m 303 0 l 124 197 l 124 768 l 311 965 l 690 965 l 878 768 l 878 613 l 747 613 l 747 729 l 625 843 l 375 843 l 257 729 l 257 238 l 375 124 l 632 124 l 751 235 l 751 403 l 483 403 l 483 508 l 878 508 l 878 192 l 699 0 l 303 0 m 438 1057 l 438 1200 l 574 1200 l 574 1057 l 438 1057 z "},"ġ":{"ha":971,"x_min":114,"x_max":843,"o":"m 114 0 m 172 -235 l 172 -114 l 635 -114 l 710 -56 l 710 131 l 590 39 l 276 39 l 114 182 l 114 557 l 276 700 l 594 700 l 714 608 l 714 700 l 843 700 l 843 -115 l 707 -235 l 172 -235 m 707 256 l 707 481 l 578 574 l 346 574 l 250 499 l 250 238 l 346 163 l 578 163 l 707 256 m 399 843 l 399 996 l 535 996 l 535 843 l 399 843 z "},"Ģ":{"ha":1000,"x_min":124,"x_max":878,"o":"m 124 0 m 303 0 l 124 197 l 124 768 l 311 965 l 690 965 l 878 768 l 878 613 l 747 613 l 747 729 l 625 843 l 375 843 l 257 729 l 257 238 l 375 124 l 632 124 l 751 235 l 751 403 l 483 403 l 483 508 l 878 508 l 878 192 l 699 0 l 303 0 m 421 -389 l 421 -53 l 558 -53 l 510 -389 l 421 -389 z "},"ģ":{"ha":971,"x_min":114,"x_max":843,"o":"m 114 0 m 172 -235 l 172 -114 l 635 -114 l 710 -56 l 710 131 l 590 39 l 276 39 l 114 182 l 114 557 l 276 700 l 594 700 l 714 608 l 714 700 l 843 700 l 843 -115 l 707 -235 l 172 -235 m 707 256 l 707 481 l 578 574 l 346 574 l 250 499 l 250 238 l 346 163 l 578 163 l 707 256 m 407 781 l 407 925 l 460 1101 l 531 1101 l 497 933 l 543 933 l 543 781 l 407 781 z "},"Ħ":{"ha":1004,"x_min":0,"x_max":1004,"o":"m 731 0 l 731 438 l 275 438 l 275 0 l 138 0 l 138 693 l 0 693 l 0 796 l 138 796 l 138 965 l 275 965 l 275 796 l 731 796 l 731 965 l 867 965 l 867 796 l 1004 796 l 1004 693 l 867 693 l 867 0 l 731 0 m 731 557 l 731 693 l 275 693 l 275 557 l 731 557 z "},"ħ":{"ha":976,"x_min":-10,"x_max":854,"o":"m 264 826 l 264 608 l 382 700 l 694 700 l 854 557 l 854 0 l 719 0 l 719 499 l 626 574 l 394 574 l 264 481 l 264 0 l 128 0 l 128 826 l -10 826 l -10 929 l 128 929 l 128 965 l 264 965 l 264 929 l 679 929 l 679 826 l 264 826 z "},"Ĩ":{"ha":488,"x_min":-82,"x_max":572,"o":"m 0 0 m 178 0 l 178 965 l 315 965 l 315 0 l 178 0 m 419 1050 l 97 1129 l -19 1060 l -82 1133 l 72 1228 l 393 1147 l 513 1221 l 572 1144 l 419 1050 z "},"ĩ":{"ha":549,"x_min":-54,"x_max":600,"o":"m 0 0 m 206 0 l 206 700 l 342 700 l 342 0 l 206 0 m 446 832 l 126 915 l 8 843 l -54 924 l 100 1024 l 421 939 l 540 1017 l 600 933 l 446 832 z "},"Ī":{"ha":624,"x_min":-33,"x_max":658,"o":"m 0 0 m 243 0 l 243 965 l 381 965 l 381 0 l 243 0 m -33 1078 l -33 1172 l 658 1172 l 658 1078 l -33 1078 z "},"ī":{"ha":644,"x_min":-22,"x_max":667,"o":"m 0 0 m 254 0 l 254 700 l 390 700 l 390 0 l 254 0 m -22 854 l -22 957 l 667 957 l 667 854 l -22 854 z "},"Ĭ":{"ha":558,"x_min":-11,"x_max":569,"o":"m 0 0 m 211 0 l 211 965 l 349 965 l 349 0 l 211 0 m 454 1008 l 101 1008 l -11 1104 l -11 1278 l 93 1278 l 93 1150 l 151 1106 l 404 1106 l 463 1150 l 463 1278 l 569 1278 l 569 1104 l 454 1008 z "},"ĭ":{"ha":582,"x_min":0,"x_max":582,"o":"m 0 0 m 222 0 l 222 700 l 358 700 l 358 0 l 222 0 m 113 779 l 0 888 l 0 1078 l 106 1078 l 106 938 l 165 885 l 414 885 l 475 938 l 475 1078 l 582 1078 l 582 888 l 465 779 l 113 779 z "},"Į":{"ha":428,"x_min":-125,"x_max":319,"o":"m 14 -389 l -125 -260 l 139 -37 l 139 965 l 276 965 l 276 0 l 36 -215 l 99 -268 l 319 -268 l 319 -389 l 14 -389 z "},"į":{"ha":400,"x_min":-106,"x_max":338,"o":"m 0 0 m 128 0 l 128 700 l 264 700 l 264 0 l 128 0 m 128 843 l 128 996 l 264 996 l 264 843 l 128 843 m 32 -389 l -106 -260 l 189 0 l 294 0 l 56 -215 l 117 -268 l 338 -268 l 338 -389 l 32 -389 z "},"İ":{"ha":413,"x_min":138,"x_max":275,"o":"m 138 0 m 138 0 l 138 965 l 275 965 l 275 0 l 138 0 m 138 1057 l 138 1200 l 274 1200 l 274 1057 l 138 1057 z "},"ı":{"ha":392,"x_min":128,"x_max":264,"o":"m 128 0 l 128 700 l 264 700 l 264 0 l 128 0 z "},"Ĳ":{"ha":1029,"x_min":138,"x_max":892,"o":"m 138 206 l 138 965 l 275 965 l 275 206 l 138 206 m 321 -235 l 138 -37 l 138 106 l 275 106 l 275 13 l 394 -106 l 635 -106 l 757 13 l 757 965 l 892 965 l 892 -37 l 710 -235 l 321 -235 z "},"ĳ":{"ha":767,"x_min":128,"x_max":638,"o":"m 128 0 m 128 0 l 128 700 l 264 700 l 264 0 l 128 0 m 128 843 l 128 996 l 264 996 l 264 843 l 128 843 m 317 -235 l 317 -114 l 429 -114 l 503 -56 l 503 700 l 638 700 l 638 -115 l 501 -235 l 317 -235 m 501 843 l 501 996 l 638 996 l 638 843 l 501 843 z "},"Ķ":{"ha":978,"x_min":138,"x_max":899,"o":"m 138 0 m 749 0 l 467 515 l 275 304 l 275 0 l 138 0 l 138 965 l 275 965 l 275 504 l 715 965 l 875 965 l 567 626 l 899 0 l 749 0 m 417 -389 l 417 -53 l 554 -53 l 506 -389 l 417 -389 z "},"ķ":{"ha":949,"x_min":128,"x_max":876,"o":"m 128 0 m 725 0 l 494 385 l 264 181 l 264 0 l 128 0 l 128 965 l 264 965 l 264 356 l 682 700 l 851 700 l 599 476 l 876 0 l 725 0 m 415 -389 l 415 -53 l 553 -53 l 504 -389 l 415 -389 z "},"Ĺ":{"ha":822,"x_min":138,"x_max":742,"o":"m 138 0 m 138 0 l 138 965 l 275 965 l 275 129 l 742 129 l 742 0 l 138 0 m 154 1000 l 288 1278 l 428 1278 l 274 1000 l 154 1000 z "},"ĺ":{"ha":399,"x_min":128,"x_max":403,"o":"m 128 0 m 128 0 l 128 965 l 264 965 l 264 0 l 128 0 m 129 1000 l 263 1278 l 403 1278 l 249 1000 l 129 1000 z "},"Ļ":{"ha":822,"x_min":138,"x_max":742,"o":"m 138 0 m 138 0 l 138 965 l 275 965 l 275 129 l 742 129 l 742 0 l 138 0 m 360 -389 l 360 -53 l 497 -53 l 449 -389 l 360 -389 z "},"ļ":{"ha":392,"x_min":124,"x_max":264,"o":"m 124 0 m 128 0 l 128 965 l 264 965 l 264 0 l 128 0 m 124 -389 l 124 -53 l 261 -53 l 213 -389 l 124 -389 z "},"Ľ":{"ha":822,"x_min":138,"x_max":742,"o":"m 138 0 m 138 0 l 138 965 l 275 965 l 275 129 l 742 129 l 742 0 l 138 0 m 492 669 l 492 1006 l 629 1006 l 581 669 l 492 669 z "},"ľ":{"ha":469,"x_min":128,"x_max":507,"o":"m 128 0 m 128 0 l 128 965 l 264 965 l 264 0 l 128 0 m 369 669 l 369 1006 l 507 1006 l 458 669 l 369 669 z "},"Ł":{"ha":824,"x_min":29,"x_max":743,"o":"m 275 497 l 275 129 l 743 129 l 743 0 l 138 0 l 138 438 l 29 392 l 29 488 l 138 533 l 138 965 l 275 965 l 275 593 l 601 733 l 601 638 l 275 497 z "},"ł":{"ha":572,"x_min":0,"x_max":572,"o":"m 218 0 l 218 550 l 0 457 l 0 553 l 218 646 l 218 965 l 354 965 l 354 704 l 572 799 l 572 703 l 354 608 l 354 0 l 218 0 z "},"Ń":{"ha":1021,"x_min":138,"x_max":882,"o":"m 138 0 m 753 0 l 271 701 l 271 0 l 138 0 l 138 965 l 285 965 l 749 282 l 749 965 l 882 965 l 882 0 l 753 0 m 428 1000 l 561 1278 l 701 1278 l 547 1000 l 428 1000 z "},"ń":{"ha":976,"x_min":128,"x_max":854,"o":"m 128 0 m 719 0 l 719 499 l 626 574 l 394 574 l 264 481 l 264 0 l 128 0 l 128 700 l 257 700 l 257 608 l 376 700 l 694 700 l 854 557 l 854 0 l 719 0 m 410 764 l 536 1078 l 676 1078 l 519 764 l 410 764 z "},"Ņ":{"ha":1021,"x_min":138,"x_max":882,"o":"m 138 0 m 753 0 l 271 701 l 271 0 l 138 0 l 138 965 l 285 965 l 749 282 l 749 965 l 882 965 l 882 0 l 753 0 m 444 -389 l 444 -53 l 582 -53 l 533 -389 l 444 -389 z "},"ņ":{"ha":976,"x_min":128,"x_max":854,"o":"m 128 0 m 719 0 l 719 499 l 626 574 l 394 574 l 264 481 l 264 0 l 128 0 l 128 700 l 257 700 l 257 608 l 376 700 l 694 700 l 854 557 l 854 0 l 719 0 m 431 -389 l 431 -53 l 568 -53 l 519 -389 l 431 -389 z "},"Ň":{"ha":1021,"x_min":138,"x_max":882,"o":"m 138 0 m 753 0 l 271 701 l 271 0 l 138 0 l 138 965 l 285 965 l 749 282 l 749 965 l 882 965 l 882 0 l 753 0 m 432 1001 l 201 1279 l 322 1279 l 508 1083 l 696 1279 l 814 1279 l 588 1001 l 432 1001 z "},"ň":{"ha":976,"x_min":128,"x_max":854,"o":"m 128 0 m 719 0 l 719 499 l 626 574 l 394 574 l 264 481 l 264 0 l 128 0 l 128 700 l 257 700 l 257 608 l 376 700 l 694 700 l 854 557 l 854 0 l 719 0 m 413 765 l 182 1079 l 301 1079 l 490 853 l 676 1079 l 794 1079 l 568 765 l 413 765 z "},"Ŋ":{"ha":1003,"x_min":138,"x_max":865,"o":"m 478 -235 l 478 -112 l 651 -112 l 729 -46 l 729 750 l 635 836 l 411 836 l 275 729 l 275 0 l 138 0 l 138 965 l 268 965 l 268 861 l 396 965 l 701 965 l 865 808 l 865 -104 l 726 -235 l 478 -235 z "},"ŋ":{"ha":976,"x_min":128,"x_max":854,"o":"m 557 -235 l 557 -114 l 647 -114 l 719 -56 l 719 499 l 626 574 l 394 574 l 264 481 l 264 0 l 128 0 l 128 700 l 257 700 l 257 608 l 376 700 l 694 700 l 854 557 l 854 -115 l 719 -235 l 557 -235 z "},"Ō":{"ha":1004,"x_min":124,"x_max":882,"o":"m 124 0 m 303 0 l 124 197 l 124 768 l 311 965 l 693 965 l 882 768 l 882 197 l 701 0 l 303 0 m 747 244 l 747 722 l 625 836 l 382 836 l 258 722 l 258 244 l 376 129 l 629 129 l 747 244 m 157 1078 l 157 1172 l 849 1172 l 849 1078 l 157 1078 z "},"ō":{"ha":957,"x_min":114,"x_max":843,"o":"m 114 0 m 276 0 l 114 142 l 114 557 l 276 700 l 681 700 l 843 557 l 843 142 l 681 0 l 276 0 m 706 200 l 706 499 l 613 574 l 344 574 l 249 499 l 249 200 l 344 126 l 613 126 l 706 200 m 133 854 l 133 957 l 822 957 l 822 854 l 133 854 z "},"Ŏ":{"ha":1004,"x_min":124,"x_max":882,"o":"m 124 0 m 303 0 l 124 197 l 124 768 l 311 965 l 693 965 l 882 768 l 882 197 l 701 0 l 303 0 m 747 244 l 747 722 l 625 836 l 382 836 l 258 722 l 258 244 l 376 129 l 629 129 l 747 244 m 676 1008 l 324 1008 l 211 1104 l 211 1278 l 315 1278 l 315 1150 l 374 1106 l 626 1106 l 685 1150 l 685 1278 l 792 1278 l 792 1104 l 676 1008 z "},"ŏ":{"ha":957,"x_min":114,"x_max":843,"o":"m 114 0 m 276 0 l 114 142 l 114 557 l 276 700 l 681 700 l 843 557 l 843 142 l 681 0 l 276 0 m 706 200 l 706 499 l 613 574 l 344 574 l 249 499 l 249 200 l 344 126 l 613 126 l 706 200 m 300 779 l 188 888 l 188 1078 l 293 1078 l 293 938 l 353 885 l 601 885 l 663 938 l 663 1078 l 769 1078 l 769 888 l 653 779 l 300 779 z "},"Ő":{"ha":1004,"x_min":124,"x_max":882,"o":"m 124 0 m 303 0 l 124 197 l 124 768 l 311 965 l 693 965 l 882 768 l 882 197 l 701 0 l 303 0 m 747 244 l 747 722 l 625 836 l 382 836 l 258 722 l 258 244 l 376 129 l 629 129 l 747 244 m 575 1001 l 704 1279 l 843 1279 l 694 1001 l 575 1001 m 258 1001 l 388 1279 l 528 1279 l 378 1001 l 258 1001 z "},"ő":{"ha":957,"x_min":114,"x_max":843,"o":"m 114 0 m 276 0 l 114 142 l 114 557 l 276 700 l 681 700 l 843 557 l 843 142 l 681 0 l 276 0 m 706 200 l 706 499 l 613 574 l 344 574 l 249 499 l 249 200 l 344 126 l 613 126 l 706 200 m 563 765 l 683 1079 l 824 1079 l 682 765 l 563 765 m 221 765 l 342 1079 l 483 1079 l 340 765 l 221 765 z "},"Œ":{"ha":1489,"x_min":124,"x_max":1386,"o":"m 303 0 l 124 197 l 124 768 l 311 965 l 1386 965 l 1386 836 l 888 836 l 888 553 l 1229 553 l 1229 439 l 888 439 l 888 129 l 1386 129 l 1386 0 l 303 0 m 376 129 l 750 129 l 750 836 l 382 836 l 258 722 l 258 244 l 376 129 z "},"œ":{"ha":1551,"x_min":114,"x_max":1431,"o":"m 276 0 l 114 142 l 114 557 l 276 700 l 681 700 l 778 622 l 876 700 l 1268 700 l 1431 557 l 1431 297 l 847 297 l 847 196 l 943 121 l 1421 121 l 1421 0 l 876 0 l 778 76 l 681 0 l 276 0 m 706 200 l 706 499 l 613 574 l 344 574 l 249 499 l 249 200 l 344 126 l 613 126 l 706 200 m 1300 511 l 1206 586 l 943 586 l 847 511 l 847 396 l 1300 396 l 1300 511 z "},"Ŕ":{"ha":992,"x_min":138,"x_max":899,"o":"m 138 0 m 753 0 l 583 361 l 275 361 l 275 0 l 138 0 l 138 965 l 682 965 l 871 768 l 871 560 l 708 403 l 899 0 l 753 0 m 738 717 l 613 836 l 275 836 l 275 479 l 604 479 l 738 597 l 738 717 m 365 1000 l 499 1278 l 639 1278 l 485 1000 l 365 1000 z "},"ŕ":{"ha":731,"x_min":128,"x_max":654,"o":"m 128 0 m 128 0 l 128 700 l 257 700 l 257 583 l 421 700 l 654 700 l 654 579 l 433 579 l 264 464 l 264 0 l 128 0 m 281 764 l 407 1078 l 547 1078 l 390 764 l 281 764 z "},"Ŗ":{"ha":992,"x_min":138,"x_max":899,"o":"m 138 0 m 753 0 l 583 361 l 275 361 l 275 0 l 138 0 l 138 965 l 682 965 l 871 768 l 871 560 l 708 403 l 899 0 l 753 0 m 738 717 l 613 836 l 275 836 l 275 479 l 604 479 l 738 597 l 738 717 m 415 -389 l 415 -53 l 553 -53 l 504 -389 l 415 -389 z "},"ŗ":{"ha":731,"x_min":126,"x_max":654,"o":"m 126 0 m 128 0 l 128 700 l 257 700 l 257 583 l 421 700 l 654 700 l 654 579 l 433 579 l 264 464 l 264 0 l 128 0 m 126 -389 l 126 -53 l 264 -53 l 215 -389 l 126 -389 z "},"Ř":{"ha":992,"x_min":138,"x_max":899,"o":"m 138 0 m 753 0 l 583 361 l 275 361 l 275 0 l 138 0 l 138 965 l 682 965 l 871 768 l 871 560 l 708 403 l 899 0 l 753 0 m 738 717 l 613 836 l 275 836 l 275 479 l 604 479 l 738 597 l 738 717 m 378 1001 l 147 1279 l 268 1279 l 454 1083 l 642 1279 l 760 1279 l 533 1001 l 378 1001 z "},"ř":{"ha":731,"x_min":75,"x_max":688,"o":"m 75 0 m 128 0 l 128 700 l 257 700 l 257 583 l 421 700 l 654 700 l 654 579 l 433 579 l 264 464 l 264 0 l 128 0 m 306 765 l 75 1079 l 194 1079 l 383 853 l 569 1079 l 688 1079 l 461 765 l 306 765 z "},"Ś":{"ha":1000,"x_min":124,"x_max":878,"o":"m 124 0 m 294 0 l 124 183 l 124 322 l 253 322 l 253 225 l 367 118 l 632 118 l 746 226 l 746 353 l 639 439 l 299 439 l 124 586 l 124 781 l 294 965 l 690 965 l 864 781 l 864 642 l 733 642 l 733 738 l 619 847 l 368 847 l 256 739 l 256 633 l 367 544 l 703 544 l 878 403 l 878 183 l 707 0 l 294 0 m 406 1000 l 539 1278 l 679 1278 l 525 1000 l 406 1000 z "},"ś":{"ha":883,"x_min":103,"x_max":782,"o":"m 103 0 m 117 0 l 117 121 l 575 121 l 651 178 l 651 247 l 571 304 l 253 304 l 103 410 l 103 582 l 240 700 l 757 700 l 757 579 l 311 579 l 235 524 l 235 457 l 318 401 l 633 401 l 782 294 l 782 119 l 646 0 l 117 0 m 360 764 l 486 1078 l 626 1078 l 469 764 l 360 764 z "},"Ş":{"ha":1000,"x_min":124,"x_max":878,"o":"m 124 0 m 294 0 l 124 183 l 124 322 l 253 322 l 253 225 l 367 118 l 632 118 l 746 226 l 746 353 l 639 439 l 299 439 l 124 586 l 124 781 l 294 965 l 690 965 l 864 781 l 864 642 l 733 642 l 733 738 l 619 847 l 368 847 l 256 739 l 256 633 l 367 544 l 703 544 l 878 403 l 878 183 l 707 0 l 294 0 m 425 -389 l 425 -53 l 563 -53 l 514 -389 l 425 -389 z "},"ş":{"ha":883,"x_min":103,"x_max":782,"o":"m 103 0 m 117 0 l 117 121 l 575 121 l 651 178 l 651 247 l 571 304 l 253 304 l 103 410 l 103 582 l 240 700 l 757 700 l 757 579 l 311 579 l 235 524 l 235 457 l 318 401 l 633 401 l 782 294 l 782 119 l 646 0 l 117 0 m 372 -389 l 372 -53 l 510 -53 l 461 -389 l 372 -389 z "},"Š":{"ha":1000,"x_min":124,"x_max":878,"o":"m 124 0 m 294 0 l 124 183 l 124 322 l 253 322 l 253 225 l 367 118 l 632 118 l 746 226 l 746 353 l 639 439 l 299 439 l 124 586 l 124 781 l 294 965 l 690 965 l 864 781 l 864 642 l 733 642 l 733 738 l 619 847 l 368 847 l 256 739 l 256 633 l 367 544 l 703 544 l 878 403 l 878 183 l 707 0 l 294 0 m 419 1001 l 189 1279 l 310 1279 l 496 1083 l 683 1279 l 801 1279 l 575 1001 l 419 1001 z "},"š":{"ha":883,"x_min":103,"x_max":782,"o":"m 103 0 m 117 0 l 117 121 l 575 121 l 651 178 l 651 247 l 571 304 l 253 304 l 103 410 l 103 582 l 240 700 l 757 700 l 757 579 l 311 579 l 235 524 l 235 457 l 318 401 l 633 401 l 782 294 l 782 119 l 646 0 l 117 0 m 365 765 l 135 1079 l 254 1079 l 443 853 l 629 1079 l 747 1079 l 521 765 l 365 765 z "},"Ţ":{"ha":879,"x_min":78,"x_max":800,"o":"m 78 0 m 371 0 l 371 836 l 78 836 l 78 965 l 800 965 l 800 836 l 508 836 l 508 0 l 371 0 m 369 -389 l 369 -53 l 507 -53 l 458 -389 l 369 -389 z "},"ţ":{"ha":667,"x_min":75,"x_max":592,"o":"m 75 0 m 333 579 l 333 175 l 408 117 l 592 117 l 592 0 l 336 0 l 197 119 l 197 579 l 75 579 l 75 700 l 197 700 l 197 899 l 333 899 l 333 700 l 592 700 l 592 579 l 333 579 m 299 -389 l 299 -53 l 436 -53 l 388 -389 l 299 -389 z "},"Ť":{"ha":879,"x_min":78,"x_max":800,"o":"m 78 0 m 371 0 l 371 836 l 78 836 l 78 965 l 800 965 l 800 836 l 508 836 l 508 0 l 371 0 m 364 1001 l 133 1279 l 254 1279 l 440 1083 l 628 1279 l 746 1279 l 519 1001 l 364 1001 z "},"ť":{"ha":733,"x_min":75,"x_max":771,"o":"m 75 0 m 333 579 l 333 175 l 408 117 l 592 117 l 592 0 l 336 0 l 197 119 l 197 579 l 75 579 l 75 700 l 197 700 l 197 899 l 333 899 l 333 700 l 592 700 l 592 579 l 333 579 m 633 669 l 633 1006 l 771 1006 l 722 669 l 633 669 z "},"Ŧ":{"ha":879,"x_min":78,"x_max":800,"o":"m 371 0 l 371 413 l 94 413 l 94 515 l 371 515 l 371 836 l 78 836 l 78 965 l 800 965 l 800 836 l 508 836 l 508 515 l 783 515 l 783 413 l 508 413 l 508 0 l 371 0 z "},"ŧ":{"ha":713,"x_min":28,"x_max":675,"o":"m 339 324 l 339 175 l 414 117 l 599 117 l 599 0 l 342 0 l 204 119 l 204 324 l 28 324 l 28 426 l 204 426 l 204 579 l 81 579 l 81 700 l 204 700 l 204 899 l 339 899 l 339 700 l 599 700 l 599 579 l 339 579 l 339 426 l 675 426 l 675 324 l 339 324 z "},"Ũ":{"ha":1003,"x_min":129,"x_max":874,"o":"m 129 0 m 293 0 l 129 178 l 129 965 l 264 965 l 264 238 l 369 132 l 635 132 l 740 238 l 740 965 l 874 965 l 874 178 l 711 0 l 293 0 m 674 1050 l 351 1129 l 235 1060 l 172 1133 l 326 1228 l 647 1147 l 767 1221 l 826 1144 l 674 1050 z "},"ũ":{"ha":976,"x_min":122,"x_max":849,"o":"m 122 0 m 719 0 l 719 100 l 594 0 l 285 0 l 122 142 l 122 700 l 257 700 l 257 200 l 353 126 l 578 126 l 713 228 l 713 700 l 849 700 l 849 0 l 719 0 m 661 832 l 342 915 l 224 843 l 161 924 l 315 1024 l 636 939 l 756 1017 l 815 933 l 661 832 z "},"Ū":{"ha":1003,"x_min":129,"x_max":874,"o":"m 129 0 m 293 0 l 129 178 l 129 965 l 264 965 l 264 238 l 369 132 l 635 132 l 740 238 l 740 965 l 874 965 l 874 178 l 711 0 l 293 0 m 157 1078 l 157 1172 l 849 1172 l 849 1078 l 157 1078 z "},"ū":{"ha":976,"x_min":122,"x_max":849,"o":"m 122 0 m 719 0 l 719 100 l 594 0 l 285 0 l 122 142 l 122 700 l 257 700 l 257 200 l 353 126 l 578 126 l 713 228 l 713 700 l 849 700 l 849 0 l 719 0 m 143 854 l 143 957 l 832 957 l 832 854 l 143 854 z "},"Ů":{"ha":1003,"x_min":129,"x_max":874,"o":"m 129 0 m 293 0 l 129 178 l 129 965 l 264 965 l 264 238 l 369 132 l 635 132 l 740 238 l 740 965 l 874 965 l 874 178 l 711 0 l 293 0 m 625 996 l 376 996 l 294 1064 l 294 1210 l 376 1278 l 625 1278 l 704 1210 l 704 1064 l 625 996 m 615 1178 l 582 1206 l 419 1206 l 383 1176 l 383 1097 l 419 1068 l 581 1068 l 615 1096 l 615 1178 z "},"ů":{"ha":976,"x_min":122,"x_max":849,"o":"m 122 0 m 719 0 l 719 100 l 594 0 l 285 0 l 122 142 l 122 700 l 257 700 l 257 200 l 353 126 l 578 126 l 713 228 l 713 700 l 849 700 l 849 0 l 719 0 m 364 771 l 283 847 l 283 1039 l 364 1115 l 613 1115 l 693 1039 l 693 847 l 613 771 l 364 771 m 604 881 l 604 1004 l 564 1040 l 417 1040 l 371 1003 l 371 882 l 408 847 l 567 847 l 604 881 z "},"Ű":{"ha":1003,"x_min":129,"x_max":874,"o":"m 129 0 m 293 0 l 129 178 l 129 965 l 264 965 l 264 238 l 369 132 l 635 132 l 740 238 l 740 965 l 874 965 l 874 178 l 711 0 l 293 0 m 574 1001 l 703 1279 l 842 1279 l 693 1001 l 574 1001 m 257 1001 l 386 1279 l 526 1279 l 376 1001 l 257 1001 z "},"ű":{"ha":976,"x_min":122,"x_max":849,"o":"m 122 0 m 719 0 l 719 100 l 594 0 l 285 0 l 122 142 l 122 700 l 257 700 l 257 200 l 353 126 l 578 126 l 713 228 l 713 700 l 849 700 l 849 0 l 719 0 m 572 765 l 693 1079 l 833 1079 l 692 765 l 572 765 m 231 765 l 351 1079 l 493 1079 l 350 765 l 231 765 z "},"Ų":{"ha":1003,"x_min":129,"x_max":874,"o":"m 450 -389 l 311 -260 l 597 0 l 293 0 l 129 178 l 129 965 l 264 965 l 264 238 l 369 132 l 628 132 l 740 238 l 740 965 l 874 965 l 874 178 l 472 -215 l 535 -268 l 754 -268 l 754 -389 l 450 -389 z "},"ų":{"ha":976,"x_min":122,"x_max":892,"o":"m 586 -389 l 447 -260 l 719 -29 l 719 100 l 594 0 l 285 0 l 122 142 l 122 700 l 257 700 l 257 200 l 353 126 l 578 126 l 713 228 l 713 700 l 849 700 l 849 0 l 610 -215 l 671 -268 l 892 -268 l 892 -389 l 586 -389 z "},"Ŵ":{"ha":1331,"x_min":75,"x_max":1254,"o":"m 75 0 m 869 0 l 661 767 l 457 0 l 261 0 l 75 965 l 211 965 l 367 174 l 575 965 l 751 965 l 964 174 l 1118 965 l 1254 965 l 1065 0 l 869 0 m 850 1000 l 663 1196 l 476 1000 l 357 1000 l 585 1278 l 740 1278 l 969 1000 l 850 1000 z "},"ŵ":{"ha":1315,"x_min":58,"x_max":1257,"o":"m 58 0 m 868 0 l 653 554 l 444 0 l 257 0 l 58 700 l 200 700 l 358 146 l 569 700 l 740 700 l 957 146 l 1118 700 l 1257 700 l 1058 0 l 868 0 m 844 764 l 657 989 l 469 764 l 350 764 l 579 1078 l 735 1078 l 963 764 l 844 764 z "},"Ŷ":{"ha":951,"x_min":60,"x_max":890,"o":"m 60 0 m 414 0 l 414 431 l 60 965 l 210 965 l 479 575 l 739 965 l 890 965 l 550 433 l 550 0 l 414 0 m 667 1000 l 479 1196 l 293 1000 l 174 1000 l 401 1278 l 557 1278 l 786 1000 l 667 1000 z "},"ŷ":{"ha":907,"x_min":60,"x_max":847,"o":"m 60 0 m 121 -235 l 121 -114 l 278 -114 l 361 -50 l 382 -3 l 60 700 l 207 700 l 451 149 l 703 700 l 847 700 l 465 -115 l 331 -235 l 121 -235 m 640 764 l 453 989 l 265 764 l 146 764 l 375 1078 l 531 1078 l 758 764 l 640 764 z "},"Ÿ":{"ha":951,"x_min":60,"x_max":890,"o":"m 60 0 m 414 0 l 414 431 l 60 965 l 210 965 l 479 575 l 739 965 l 890 965 l 550 433 l 550 0 l 414 0 m 575 1057 l 575 1200 l 710 1200 l 710 1057 l 575 1057 m 247 1057 l 247 1200 l 382 1200 l 382 1057 l 247 1057 z "},"Ź":{"ha":911,"x_min":89,"x_max":824,"o":"m 89 0 m 178 0 l 89 107 l 650 836 l 121 836 l 121 965 l 735 965 l 824 858 l 263 129 l 797 129 l 797 0 l 178 0 m 382 1000 l 515 1278 l 656 1278 l 501 1000 l 382 1000 z "},"ź":{"ha":849,"x_min":75,"x_max":778,"o":"m 75 0 m 158 0 l 75 89 l 585 579 l 106 579 l 106 700 l 696 700 l 778 611 l 268 121 l 765 121 l 765 0 l 158 0 m 333 764 l 460 1078 l 600 1078 l 443 764 l 333 764 z "},"Ż":{"ha":911,"x_min":89,"x_max":824,"o":"m 89 0 m 178 0 l 89 107 l 650 836 l 121 836 l 121 965 l 735 965 l 824 858 l 263 129 l 797 129 l 797 0 l 178 0 m 389 1057 l 389 1200 l 525 1200 l 525 1057 l 389 1057 z "},"ż":{"ha":849,"x_min":75,"x_max":778,"o":"m 75 0 m 158 0 l 75 89 l 585 579 l 106 579 l 106 700 l 696 700 l 778 611 l 268 121 l 765 121 l 765 0 l 158 0 m 369 843 l 369 996 l 506 996 l 506 843 l 369 843 z "},"Ž":{"ha":911,"x_min":89,"x_max":824,"o":"m 89 0 m 178 0 l 89 107 l 650 836 l 121 836 l 121 965 l 735 965 l 824 858 l 263 129 l 797 129 l 797 0 l 178 0 m 389 1001 l 158 1279 l 279 1279 l 465 1083 l 653 1279 l 771 1279 l 544 1001 l 389 1001 z "},"ž":{"ha":849,"x_min":75,"x_max":778,"o":"m 75 0 m 158 0 l 75 89 l 585 579 l 106 579 l 106 700 l 696 700 l 778 611 l 268 121 l 765 121 l 765 0 l 158 0 m 349 765 l 118 1079 l 238 1079 l 426 853 l 613 1079 l 731 1079 l 504 765 l 349 765 z "},"ƀ":{"ha":972,"x_min":0,"x_max":858,"o":"m 264 854 l 264 608 l 383 700 l 696 700 l 858 557 l 858 142 l 696 0 l 376 0 l 257 92 l 257 0 l 128 0 l 128 854 l 0 854 l 0 957 l 128 957 l 128 967 l 264 967 l 264 957 l 689 957 l 689 854 l 264 854 m 722 200 l 722 499 l 626 574 l 394 574 l 264 481 l 264 219 l 394 126 l 626 126 l 722 200 z "},"Ɓ":{"ha":1278,"x_min":0,"x_max":1154,"o":"m 410 0 l 410 878 l 201 878 l 124 811 l 124 597 l 0 597 l 0 838 l 139 965 l 960 965 l 1149 768 l 1149 611 l 1042 500 l 1154 378 l 1154 197 l 967 0 l 410 0 m 1019 247 l 1019 353 l 929 443 l 547 443 l 547 129 l 897 129 l 1019 247 m 1013 632 l 1013 728 l 889 844 l 547 844 l 547 549 l 925 549 l 1013 632 z "},"Ƈ":{"ha":1131,"x_min":124,"x_max":1131,"o":"m 746 642 l 746 722 l 628 836 l 382 836 l 258 722 l 258 244 l 382 129 l 628 129 l 746 244 l 746 378 l 878 378 l 878 197 l 699 0 l 303 0 l 124 197 l 124 768 l 311 965 l 682 965 l 782 864 l 782 919 l 935 1038 l 1131 1038 l 1131 921 l 972 921 l 878 849 l 878 642 l 746 642 z "},"ƈ":{"ha":1082,"x_min":114,"x_max":1082,"o":"m 276 0 l 114 142 l 114 557 l 276 700 l 650 700 l 726 638 l 726 733 l 871 847 l 1082 847 l 1082 731 l 907 731 l 831 665 l 831 444 l 699 444 l 699 499 l 604 574 l 344 574 l 249 499 l 249 200 l 344 126 l 604 126 l 699 200 l 699 285 l 831 285 l 831 142 l 667 0 l 276 0 z "},"Ɗ":{"ha":1244,"x_min":0,"x_max":1122,"o":"m 410 0 l 410 878 l 201 878 l 124 811 l 124 597 l 0 597 l 0 838 l 139 965 l 932 965 l 1122 768 l 1122 197 l 939 0 l 410 0 m 988 244 l 988 722 l 867 836 l 547 836 l 547 129 l 867 129 l 988 244 z "},"Ǝ":{"ha":876,"x_min":103,"x_max":739,"o":"m 103 0 l 103 129 l 601 129 l 601 439 l 261 439 l 261 553 l 601 553 l 601 836 l 103 836 l 103 965 l 739 965 l 739 0 l 103 0 z "},"Ə":{"ha":1004,"x_min":124,"x_max":878,"o":"m 311 0 l 124 197 l 124 504 l 743 504 l 743 721 l 626 836 l 375 836 l 256 721 l 256 599 l 124 599 l 124 768 l 304 965 l 700 965 l 878 768 l 878 197 l 690 0 l 311 0 m 743 401 l 256 401 l 256 247 l 382 129 l 622 129 l 743 247 l 743 401 z "},"ƒ":{"ha":886,"x_min":94,"x_max":811,"o":"m 94 -235 l 293 586 l 119 586 l 147 707 l 322 707 l 363 868 l 531 996 l 811 996 l 786 879 l 585 879 l 486 810 l 461 707 l 719 707 l 693 586 l 431 586 l 229 -235 l 94 -235 z "},"Ɣ":{"ha":924,"x_min":69,"x_max":857,"o":"m 340 -389 l 260 -312 l 260 -189 l 399 167 l 69 965 l 215 965 l 463 332 l 711 965 l 857 965 l 528 167 l 668 -189 l 668 -312 l 586 -389 l 340 -389 m 464 10 l 379 -196 l 379 -256 l 418 -289 l 511 -289 l 549 -254 l 549 -196 l 464 10 z "},"Ɨ":{"ha":640,"x_min":103,"x_max":538,"o":"m 103 0 l 103 129 l 251 129 l 251 836 l 103 836 l 103 965 l 538 965 l 538 836 l 389 836 l 389 129 l 538 129 l 538 0 l 103 0 z "},"Ƙ":{"ha":1038,"x_min":138,"x_max":1038,"o":"m 749 0 l 465 492 l 275 304 l 275 0 l 138 0 l 138 965 l 275 965 l 275 504 l 814 1038 l 1038 1038 l 1038 921 l 858 921 l 558 626 l 899 0 l 749 0 z "},"ƙ":{"ha":949,"x_min":128,"x_max":876,"o":"m 725 0 l 499 367 l 264 181 l 264 0 l 128 0 l 128 868 l 265 996 l 515 996 l 515 879 l 340 879 l 264 813 l 264 356 l 682 700 l 851 700 l 594 471 l 876 0 l 725 0 z "},"Ɲ":{"ha":1022,"x_min":-25,"x_max":882,"o":"m -25 -235 l -25 -114 l 65 -114 l 138 -56 l 138 965 l 285 965 l 749 282 l 749 965 l 882 965 l 882 0 l 753 0 l 272 699 l 272 -115 l 136 -235 l -25 -235 z "},"Ơ":{"ha":1032,"x_min":124,"x_max":1032,"o":"m 769 881 l 882 768 l 882 197 l 701 0 l 303 0 l 124 197 l 124 768 l 311 965 l 858 965 l 919 1021 l 919 1190 l 1032 1190 l 1032 992 l 913 881 l 769 881 m 747 244 l 747 722 l 629 836 l 382 836 l 258 722 l 258 244 l 382 129 l 629 129 l 747 244 z "},"ơ":{"ha":1093,"x_min":114,"x_max":1046,"o":"m 769 615 l 843 557 l 843 142 l 681 0 l 276 0 l 114 142 l 114 557 l 276 700 l 872 700 l 933 756 l 933 925 l 1046 925 l 1046 726 l 928 615 l 769 615 m 706 200 l 706 499 l 613 574 l 344 574 l 249 499 l 249 200 l 344 126 l 613 126 l 706 200 z "},"Ư":{"ha":1132,"x_min":129,"x_max":1132,"o":"m 293 0 l 129 178 l 129 965 l 264 965 l 264 238 l 368 132 l 636 132 l 740 238 l 740 965 l 957 965 l 1018 1021 l 1018 1190 l 1132 1190 l 1132 992 l 1013 881 l 874 881 l 874 178 l 711 0 l 293 0 z "},"ư":{"ha":1108,"x_min":122,"x_max":1108,"o":"m 719 0 l 719 100 l 594 0 l 285 0 l 122 142 l 122 700 l 257 700 l 257 200 l 353 126 l 578 126 l 713 228 l 713 700 l 933 700 l 994 756 l 994 925 l 1108 925 l 1108 726 l 989 615 l 849 615 l 849 0 l 719 0 z "},"Ƴ":{"ha":1079,"x_min":60,"x_max":1082,"o":"m 414 0 l 414 431 l 60 965 l 210 965 l 483 565 l 838 1038 l 1082 1038 l 1082 921 l 897 921 l 550 433 l 550 0 l 414 0 z "},"ƴ":{"ha":1118,"x_min":60,"x_max":1118,"o":"m 465 -115 l 331 -235 l 121 -235 l 121 -114 l 278 -114 l 356 -56 l 388 -7 l 60 700 l 207 700 l 453 194 l 739 767 l 911 907 l 1118 907 l 1118 790 l 967 790 l 858 692 l 465 -115 z "},"Ǆ":{"ha":1882,"x_min":138,"x_max":1796,"o":"m 138 0 m 138 0 l 138 965 l 660 965 l 849 768 l 849 197 l 667 0 l 138 0 m 714 244 l 714 722 l 594 836 l 275 836 l 275 129 l 594 129 l 714 244 m 1150 0 l 1061 107 l 1622 836 l 1093 836 l 1093 965 l 1707 965 l 1796 858 l 1235 129 l 1769 129 l 1769 0 l 1150 0 m 1360 1001 l 1129 1279 l 1250 1279 l 1436 1083 l 1624 1279 l 1742 1279 l 1515 1001 l 1360 1001 z "},"ǅ":{"ha":1819,"x_min":138,"x_max":1750,"o":"m 138 0 m 138 0 l 138 965 l 660 965 l 849 768 l 849 197 l 667 0 l 138 0 m 714 244 l 714 722 l 594 836 l 275 836 l 275 129 l 594 129 l 714 244 m 1131 0 l 1047 89 l 1557 579 l 1078 579 l 1078 700 l 1668 700 l 1750 611 l 1240 121 l 1738 121 l 1738 0 l 1131 0 m 1319 765 l 1089 1079 l 1208 1079 l 1397 853 l 1583 1079 l 1701 1079 l 1475 765 l 1319 765 z "},"ǆ":{"ha":1821,"x_min":114,"x_max":1750,"o":"m 114 0 m 714 0 l 714 92 l 594 0 l 276 0 l 114 142 l 114 557 l 276 700 l 588 700 l 707 608 l 707 965 l 843 965 l 843 0 l 714 0 m 707 219 l 707 481 l 578 574 l 346 574 l 250 499 l 250 200 l 346 126 l 578 126 l 707 219 m 1131 0 l 1047 89 l 1557 579 l 1078 579 l 1078 700 l 1668 700 l 1750 611 l 1240 121 l 1738 121 l 1738 0 l 1131 0 m 1319 765 l 1089 1079 l 1208 1079 l 1397 853 l 1583 1079 l 1701 1079 l 1475 765 l 1319 765 z "},"ǝ":{"ha":951,"x_min":115,"x_max":831,"o":"m 246 190 l 340 114 l 603 114 l 699 190 l 699 306 l 246 306 l 246 190 m 668 700 l 831 558 l 831 143 l 668 0 l 276 0 l 115 143 l 115 403 l 699 403 l 699 506 l 603 579 l 124 579 l 124 700 l 668 700 z "},"Ǧ":{"ha":1000,"x_min":124,"x_max":878,"o":"m 124 0 m 303 0 l 124 197 l 124 768 l 311 965 l 690 965 l 878 768 l 878 613 l 747 613 l 747 729 l 625 843 l 375 843 l 257 729 l 257 238 l 375 124 l 632 124 l 751 235 l 751 403 l 483 403 l 483 508 l 878 508 l 878 192 l 699 0 l 303 0 m 419 1001 l 189 1279 l 310 1279 l 496 1083 l 683 1279 l 801 1279 l 575 1001 l 419 1001 z "},"ǧ":{"ha":971,"x_min":114,"x_max":843,"o":"m 114 0 m 172 -235 l 172 -114 l 635 -114 l 710 -56 l 710 131 l 590 39 l 276 39 l 114 182 l 114 557 l 276 700 l 594 700 l 714 608 l 714 700 l 843 700 l 843 -115 l 707 -235 l 172 -235 m 707 256 l 707 481 l 578 574 l 346 574 l 250 499 l 250 238 l 346 163 l 578 163 l 707 256 m 410 765 l 179 1079 l 299 1079 l 488 853 l 674 1079 l 792 1079 l 565 765 l 410 765 z "},"ǰ":{"ha":558,"x_min":-22,"x_max":590,"o":"m 0 0 m 32 -235 l 32 -114 l 144 -114 l 218 -56 l 218 700 l 353 700 l 353 -115 l 217 -235 l 32 -235 m 208 765 l -22 1079 l 97 1079 l 286 853 l 472 1079 l 590 1079 l 364 765 l 208 765 z "},"Ǳ":{"ha":1882,"x_min":138,"x_max":1796,"o":"m 138 0 m 138 0 l 138 965 l 660 965 l 849 768 l 849 197 l 667 0 l 138 0 m 714 244 l 714 722 l 594 836 l 275 836 l 275 129 l 594 129 l 714 244 m 1150 0 l 1061 107 l 1622 836 l 1093 836 l 1093 965 l 1707 965 l 1796 858 l 1235 129 l 1769 129 l 1769 0 l 1150 0 z "},"ǲ":{"ha":1819,"x_min":138,"x_max":1750,"o":"m 138 0 m 138 0 l 138 965 l 660 965 l 849 768 l 849 197 l 667 0 l 138 0 m 714 244 l 714 722 l 594 836 l 275 836 l 275 129 l 594 129 l 714 244 m 1131 0 l 1047 89 l 1557 579 l 1078 579 l 1078 700 l 1668 700 l 1750 611 l 1240 121 l 1738 121 l 1738 0 l 1131 0 z "},"ǳ":{"ha":1821,"x_min":114,"x_max":1750,"o":"m 114 0 m 714 0 l 714 92 l 594 0 l 276 0 l 114 142 l 114 557 l 276 700 l 588 700 l 707 608 l 707 965 l 843 965 l 843 0 l 714 0 m 707 219 l 707 481 l 578 574 l 346 574 l 250 499 l 250 200 l 346 126 l 578 126 l 707 219 m 1131 0 l 1047 89 l 1557 579 l 1078 579 l 1078 700 l 1668 700 l 1750 611 l 1240 121 l 1738 121 l 1738 0 l 1131 0 z "},"Ǵ":{"ha":1000,"x_min":124,"x_max":878,"o":"m 124 0 m 303 0 l 124 197 l 124 768 l 311 965 l 690 965 l 878 768 l 878 613 l 747 613 l 747 729 l 625 843 l 375 843 l 257 729 l 257 238 l 375 124 l 632 124 l 751 235 l 751 403 l 483 403 l 483 508 l 878 508 l 878 192 l 699 0 l 303 0 m 414 1000 l 547 1278 l 688 1278 l 533 1000 l 414 1000 z "},"ǵ":{"ha":971,"x_min":114,"x_max":843,"o":"m 114 0 m 172 -235 l 172 -114 l 635 -114 l 710 -56 l 710 131 l 590 39 l 276 39 l 114 182 l 114 557 l 276 700 l 594 700 l 714 608 l 714 700 l 843 700 l 843 -115 l 707 -235 l 172 -235 m 707 256 l 707 481 l 578 574 l 346 574 l 250 499 l 250 238 l 346 163 l 578 163 l 707 256 m 379 764 l 506 1078 l 646 1078 l 489 764 l 379 764 z "},"Ǹ":{"ha":1021,"x_min":138,"x_max":882,"o":"m 138 0 m 753 0 l 271 701 l 271 0 l 138 0 l 138 965 l 285 965 l 749 282 l 749 965 l 882 965 l 882 0 l 753 0 m 476 1000 l 325 1278 l 465 1278 l 596 1000 l 476 1000 z "},"ǹ":{"ha":976,"x_min":128,"x_max":854,"o":"m 128 0 m 719 0 l 719 499 l 626 574 l 394 574 l 264 481 l 264 0 l 128 0 l 128 700 l 257 700 l 257 608 l 376 700 l 694 700 l 854 557 l 854 0 l 719 0 m 463 764 l 304 1078 l 446 1078 l 581 764 l 463 764 z "},"Ș":{"ha":1000,"x_min":124,"x_max":878,"o":"m 124 0 m 294 0 l 124 183 l 124 322 l 253 322 l 253 225 l 367 118 l 632 118 l 746 226 l 746 353 l 639 439 l 299 439 l 124 586 l 124 781 l 294 965 l 690 965 l 864 781 l 864 642 l 733 642 l 733 738 l 619 847 l 368 847 l 256 739 l 256 633 l 367 544 l 703 544 l 878 403 l 878 183 l 707 0 l 294 0 m 429 -389 l 429 -53 l 567 -53 l 518 -389 l 429 -389 z "},"ș":{"ha":883,"x_min":103,"x_max":782,"o":"m 103 0 m 117 0 l 117 121 l 575 121 l 651 178 l 651 247 l 571 304 l 253 304 l 103 410 l 103 582 l 240 700 l 757 700 l 757 579 l 311 579 l 235 524 l 235 457 l 318 401 l 633 401 l 782 294 l 782 119 l 646 0 l 117 0 m 375 -389 l 375 -53 l 513 -53 l 464 -389 l 375 -389 z "},"Ț":{"ha":879,"x_min":78,"x_max":800,"o":"m 78 0 m 371 0 l 371 836 l 78 836 l 78 965 l 800 965 l 800 836 l 508 836 l 508 0 l 371 0 m 369 -389 l 369 -53 l 507 -53 l 458 -389 l 369 -389 z "},"ț":{"ha":667,"x_min":75,"x_max":592,"o":"m 75 0 m 333 579 l 333 175 l 408 117 l 592 117 l 592 0 l 336 0 l 197 119 l 197 579 l 75 579 l 75 700 l 197 700 l 197 899 l 333 899 l 333 700 l 592 700 l 592 579 l 333 579 m 299 -389 l 299 -53 l 436 -53 l 388 -389 l 299 -389 z "},"ȷ":{"ha":422,"x_min":-31,"x_max":290,"o":"m -31 -235 l -31 -114 l 82 -114 l 156 -56 l 156 700 l 290 700 l 290 -115 l 154 -235 l -31 -235 z "},"Ɂ":{"ha":922,"x_min":85,"x_max":836,"o":"m 364 0 l 364 381 l 482 490 l 618 490 l 701 564 l 701 753 l 604 836 l 311 836 l 215 753 l 215 635 l 85 635 l 85 813 l 247 965 l 674 965 l 836 813 l 836 510 l 696 376 l 564 376 l 501 322 l 501 0 l 364 0 z "},"ɂ":{"ha":958,"x_min":103,"x_max":844,"o":"m 385 0 l 385 196 l 503 293 l 638 293 l 710 353 l 710 507 l 619 578 l 322 578 l 233 507 l 233 408 l 103 408 l 103 565 l 263 700 l 686 700 l 844 565 l 844 299 l 706 181 l 579 181 l 521 139 l 521 0 l 385 0 z "},"Ɍ":{"ha":1046,"x_min":0,"x_max":953,"o":"m 807 0 l 632 361 l 329 361 l 329 0 l 192 0 l 192 361 l 0 361 l 0 464 l 192 464 l 192 965 l 736 965 l 925 768 l 925 560 l 760 403 l 953 0 l 807 0 m 790 717 l 667 836 l 329 836 l 329 479 l 658 479 l 790 597 l 790 717 z "},"ɍ":{"ha":761,"x_min":7,"x_max":696,"o":"m 160 0 l 160 275 l 7 275 l 7 378 l 160 378 l 160 700 l 288 700 l 288 583 l 453 700 l 686 700 l 686 579 l 465 579 l 296 464 l 296 378 l 696 378 l 696 275 l 296 275 l 296 0 l 160 0 z "},"ɓ":{"ha":972,"x_min":128,"x_max":858,"o":"m 376 0 l 257 92 l 257 0 l 128 0 l 128 868 l 265 996 l 515 996 l 515 879 l 340 879 l 264 813 l 264 608 l 382 700 l 696 700 l 858 557 l 858 142 l 696 0 l 376 0 m 722 200 l 722 499 l 626 574 l 394 574 l 264 481 l 264 219 l 394 126 l 626 126 l 722 200 z "},"ɗ":{"ha":1096,"x_min":114,"x_max":1096,"o":"m 714 0 l 714 92 l 594 0 l 276 0 l 114 142 l 114 557 l 276 700 l 588 700 l 707 608 l 707 868 l 846 996 l 1096 996 l 1096 879 l 921 879 l 843 813 l 843 0 l 714 0 m 707 219 l 707 481 l 578 574 l 346 574 l 250 499 l 250 200 l 346 126 l 578 126 l 707 219 z "},"ɣ":{"ha":907,"x_min":60,"x_max":847,"o":"m 565 -389 l 340 -389 l 260 -329 l 260 -214 l 388 51 l 60 700 l 207 700 l 453 188 l 700 700 l 847 700 l 518 51 l 646 -214 l 646 -329 l 565 -389 m 453 -76 l 381 -221 l 381 -276 l 413 -299 l 493 -299 l 526 -276 l 526 -221 l 453 -76 z "},"ɲ":{"ha":978,"x_min":-36,"x_max":856,"o":"m -36 -235 l -36 -114 l 54 -114 l 126 -56 l 126 700 l 257 700 l 257 608 l 376 700 l 693 700 l 856 557 l 856 0 l 719 0 l 719 499 l 626 574 l 393 574 l 263 481 l 263 -115 l 126 -235 l -36 -235 z "},"ˆ":{"ha":872,"x_min":128,"x_max":740,"o":"m 622 764 l 435 989 l 247 764 l 128 764 l 357 1078 l 513 1078 l 740 764 l 622 764 z "},"ˇ":{"ha":872,"x_min":128,"x_max":740,"o":"m 358 765 l 128 1079 l 247 1079 l 436 853 l 622 1079 l 740 1079 l 514 765 l 358 765 z "},"˘":{"ha":838,"x_min":128,"x_max":710,"o":"m 240 779 l 128 888 l 128 1078 l 233 1078 l 233 938 l 293 885 l 542 885 l 603 938 l 603 1078 l 710 1078 l 710 888 l 593 779 l 240 779 z "},"˙":{"ha":392,"x_min":128,"x_max":264,"o":"m 128 843 l 128 996 l 264 996 l 264 843 l 128 843 z "},"˚":{"ha":665,"x_min":128,"x_max":538,"o":"m 208 771 l 128 847 l 128 1039 l 208 1115 l 457 1115 l 538 1039 l 538 847 l 457 771 l 208 771 m 449 881 l 449 1004 l 408 1040 l 261 1040 l 215 1003 l 215 882 l 253 847 l 411 847 l 449 881 z "},"˛":{"ha":700,"x_min":128,"x_max":571,"o":"m 265 -389 l 128 -260 l 422 0 l 528 0 l 289 -215 l 350 -268 l 571 -268 l 571 -389 l 265 -389 z "},"˜":{"ha":957,"x_min":151,"x_max":806,"o":"m 651 832 l 332 915 l 214 843 l 151 924 l 306 1024 l 626 939 l 746 1017 l 806 933 l 651 832 z "},"˝":{"ha":996,"x_min":192,"x_max":794,"o":"m 533 765 l 654 1079 l 794 1079 l 653 765 l 533 765 m 192 765 l 313 1079 l 454 1079 l 311 765 l 192 765 z "},"̀":{"ha":94,"x_min":-637,"x_max":-361,"o":"m -361 764 m -479 764 l -637 1078 l -496 1078 l -361 764 l -479 764 z "},"́":{"ha":94,"x_min":-601,"x_max":-335,"o":"m -335 764 m -601 764 l -475 1078 l -335 1078 l -492 764 l -601 764 z "},"̂":{"ha":94,"x_min":-792,"x_max":-179,"o":"m -179 764 m -297 764 l -485 989 l -672 764 l -792 764 l -562 1078 l -407 1078 l -179 764 l -297 764 z "},"̃":{"ha":94,"x_min":-812,"x_max":-158,"o":"m -158 832 m -312 832 l -632 915 l -750 843 l -812 924 l -658 1024 l -337 939 l -218 1017 l -158 933 l -312 832 z "},"̄":{"ha":94,"x_min":-829,"x_max":-140,"o":"m -140 854 m -829 854 l -829 957 l -140 957 l -140 854 l -829 854 z "},"̆":{"ha":94,"x_min":-776,"x_max":-194,"o":"m -194 779 m -664 779 l -776 888 l -776 1078 l -671 1078 l -671 938 l -611 885 l -362 885 l -301 938 l -301 1078 l -194 1078 l -194 888 l -311 779 l -664 779 z "},"̇":{"ha":94,"x_min":-554,"x_max":-418,"o":"m -418 843 m -554 843 l -554 996 l -418 996 l -418 843 l -554 843 z "},"̈":{"ha":94,"x_min":-718,"x_max":-253,"o":"m -253 843 m -387 843 l -387 996 l -253 996 l -253 843 l -387 843 m -718 843 l -718 996 l -582 996 l -582 843 l -718 843 z "},"̉":{"ha":93,"x_min":-654,"x_max":-315,"o":"m -461 832 l -490 808 l -490 775 l -575 775 l -575 846 l -512 904 l -446 904 l -407 936 l -407 978 l -449 1014 l -654 1014 l -654 1096 l -403 1096 l -315 1014 l -315 903 l -389 832 l -461 832 z "},"̊":{"ha":94,"x_min":-689,"x_max":-279,"o":"m -279 771 m -608 771 l -689 847 l -689 1039 l -608 1115 l -360 1115 l -279 1039 l -279 847 l -360 771 l -608 771 m -368 881 l -368 1004 l -408 1040 l -556 1040 l -601 1003 l -601 882 l -564 847 l -406 847 l -368 881 z "},"̋":{"ha":94,"x_min":-769,"x_max":-167,"o":"m -167 765 m -428 765 l -307 1079 l -167 1079 l -308 765 l -428 765 m -769 765 l -649 1079 l -507 1079 l -650 765 l -769 765 z "},"̌":{"ha":94,"x_min":-792,"x_max":-179,"o":"m -179 765 m -561 765 l -792 1079 l -672 1079 l -483 853 l -297 1079 l -179 1079 l -406 765 l -561 765 z "},"̓":{"ha":94,"x_min":-553,"x_max":-417,"o":"m -417 768 m -553 768 l -553 913 l -500 1089 l -429 1089 l -462 921 l -417 921 l -417 768 l -553 768 z "},"̛":{"ha":94,"x_min":-297,"x_max":94,"o":"m -297 615 l -297 700 l -79 700 l -18 756 l -18 925 l 94 925 l 94 726 l -25 615 l -297 615 z "},"̣":{"ha":93,"x_min":-553,"x_max":-417,"o":"m -417 -146 m -553 -289 l -553 -146 l -417 -146 l -417 -289 l -553 -289 z "},"̦":{"ha":94,"x_min":-554,"x_max":-417,"o":"m -417 -53 m -554 -389 l -554 -53 l -417 -53 l -465 -389 l -554 -389 z "},"̨":{"ha":94,"x_min":-731,"x_max":-287,"o":"m -287 0 m -593 -389 l -731 -260 l -436 0 l -331 0 l -569 -215 l -508 -268 l -287 -268 l -287 -389 l -593 -389 z "},"̭":{"ha":94,"x_min":-790,"x_max":-178,"o":"m -178 -111 m -297 -389 l -485 -193 l -671 -389 l -790 -389 l -562 -111 l -407 -111 l -178 -389 l -297 -389 z "},"΄":{"ha":293,"x_min":64,"x_max":231,"o":"m 64 764 l 96 1078 l 231 1078 l 178 764 l 64 764 z "},"΅":{"ha":707,"x_min":56,"x_max":649,"o":"m 56 764 m 56 843 l 56 996 l 192 996 l 192 843 l 56 843 m 271 764 l 303 1078 l 438 1078 l 385 764 l 271 764 m 513 843 l 513 996 l 649 996 l 649 843 l 513 843 z "},"Ά":{"ha":1001,"x_min":64,"x_max":935,"o":"m 64 0 m 64 764 l 96 1078 l 231 1078 l 178 764 l 64 764 m 793 0 l 740 171 l 342 171 l 289 0 l 150 0 l 443 965 l 643 965 l 935 0 l 793 0 m 375 279 l 707 279 l 542 821 l 375 279 z "},"·":{"ha":392,"x_min":128,"x_max":264,"o":"m 128 546 m 128 546 l 128 699 l 264 699 l 264 546 l 128 546 z "},"Έ":{"ha":1038,"x_min":64,"x_max":935,"o":"m 64 0 m 64 764 l 96 1078 l 231 1078 l 178 764 l 64 764 m 300 0 l 300 965 l 935 965 l 935 836 l 438 836 l 438 553 l 778 553 l 778 439 l 438 439 l 438 129 l 935 129 l 935 0 l 300 0 z "},"Ή":{"ha":1165,"x_min":64,"x_max":1028,"o":"m 64 0 m 64 764 l 96 1078 l 231 1078 l 178 764 l 64 764 m 892 0 l 892 438 l 438 438 l 438 0 l 300 0 l 300 965 l 438 965 l 438 557 l 892 557 l 892 965 l 1028 965 l 1028 0 l 892 0 z "},"Ί":{"ha":574,"x_min":64,"x_max":438,"o":"m 64 0 m 64 764 l 96 1078 l 231 1078 l 178 764 l 64 764 m 300 0 l 300 965 l 438 965 l 438 0 l 300 0 z "},"Ό":{"ha":1149,"x_min":64,"x_max":1028,"o":"m 64 0 m 64 764 l 96 1078 l 231 1078 l 178 764 l 64 764 m 449 0 l 269 197 l 269 768 l 457 965 l 839 965 l 1028 768 l 1028 197 l 847 0 l 449 0 m 893 244 l 893 722 l 771 836 l 528 836 l 404 722 l 404 244 l 522 129 l 775 129 l 893 244 z "},"Ύ":{"ha":1161,"x_min":64,"x_max":1101,"o":"m 64 0 m 64 764 l 96 1078 l 231 1078 l 178 764 l 64 764 m 625 0 l 625 431 l 271 965 l 421 965 l 690 575 l 950 965 l 1101 965 l 761 433 l 761 0 l 625 0 z "},"Ώ":{"ha":1160,"x_min":64,"x_max":1051,"o":"m 64 0 m 64 764 l 96 1078 l 231 1078 l 178 764 l 64 764 m 707 0 l 707 140 l 889 342 l 889 718 l 765 836 l 524 836 l 399 718 l 399 342 l 583 140 l 583 0 l 236 0 l 236 129 l 457 129 l 263 333 l 263 768 l 454 965 l 836 965 l 1024 768 l 1024 333 l 831 129 l 1051 129 l 1051 0 l 707 0 z "},"ΐ":{"ha":640,"x_min":0,"x_max":593,"o":"m 0 0 m 331 0 l 193 119 l 193 700 l 328 700 l 328 175 l 403 117 l 506 117 l 506 0 l 331 0 m 0 843 l 0 996 l 136 996 l 136 843 l 0 843 m 213 764 l 244 1078 l 379 1078 l 326 764 l 213 764 m 457 843 l 457 996 l 593 996 l 593 843 l 457 843 z "},"Α":{"ha":924,"x_min":69,"x_max":854,"o":"m 69 0 m 713 0 l 660 171 l 261 171 l 208 0 l 69 0 l 363 965 l 563 965 l 854 0 l 713 0 m 294 279 l 626 279 l 461 821 l 294 279 z "},"Β":{"ha":1006,"x_min":138,"x_max":882,"o":"m 138 0 m 138 0 l 138 965 l 688 965 l 875 768 l 875 611 l 769 500 l 882 378 l 882 197 l 694 0 l 138 0 m 740 632 l 740 728 l 617 844 l 275 844 l 275 549 l 653 549 l 740 632 m 747 247 l 747 353 l 657 443 l 275 443 l 275 129 l 624 129 l 747 247 z "},"Γ":{"ha":822,"x_min":138,"x_max":742,"o":"m 138 0 m 138 0 l 138 965 l 742 965 l 742 836 l 275 836 l 275 0 l 138 0 z "},"Δ":{"ha":924,"x_min":69,"x_max":854,"o":"m 69 0 l 363 965 l 563 965 l 854 0 l 69 0 m 463 821 l 236 129 l 688 129 l 463 821 z "},"Ε":{"ha":876,"x_min":138,"x_max":772,"o":"m 138 0 m 138 0 l 138 965 l 772 965 l 772 836 l 275 836 l 275 553 l 615 553 l 615 439 l 275 439 l 275 129 l 772 129 l 772 0 l 138 0 z "},"Ζ":{"ha":911,"x_min":89,"x_max":824,"o":"m 89 0 m 178 0 l 89 107 l 650 836 l 121 836 l 121 965 l 735 965 l 824 858 l 263 129 l 797 129 l 797 0 l 178 0 z "},"Η":{"ha":1003,"x_min":138,"x_max":865,"o":"m 138 0 m 729 0 l 729 438 l 275 438 l 275 0 l 138 0 l 138 965 l 275 965 l 275 557 l 729 557 l 729 965 l 865 965 l 865 0 l 729 0 z "},"Θ":{"ha":1004,"x_min":124,"x_max":882,"o":"m 303 0 l 124 197 l 124 768 l 311 965 l 693 965 l 882 768 l 882 197 l 701 0 l 303 0 m 753 244 l 753 722 l 629 836 l 375 836 l 253 722 l 253 244 l 371 129 l 635 129 l 753 244 m 313 439 l 313 553 l 692 553 l 692 439 l 313 439 z "},"Ι":{"ha":413,"x_min":138,"x_max":275,"o":"m 138 0 m 138 0 l 138 965 l 275 965 l 275 0 l 138 0 z "},"Κ":{"ha":935,"x_min":138,"x_max":854,"o":"m 138 0 m 138 0 l 138 965 l 275 965 l 275 536 l 678 965 l 835 965 l 404 525 l 854 0 l 699 0 l 275 489 l 275 0 l 138 0 z "},"Λ":{"ha":924,"x_min":69,"x_max":854,"o":"m 542 965 l 854 0 l 710 0 l 461 753 l 211 0 l 69 0 l 378 965 l 542 965 z "},"Μ":{"ha":1283,"x_min":138,"x_max":1146,"o":"m 138 0 m 1013 0 l 1013 689 l 701 0 l 585 0 l 271 689 l 271 0 l 138 0 l 138 965 l 299 965 l 642 189 l 983 965 l 1146 965 l 1146 0 l 1013 0 z "},"Ν":{"ha":1021,"x_min":138,"x_max":882,"o":"m 138 0 m 753 0 l 271 701 l 271 0 l 138 0 l 138 965 l 285 965 l 749 282 l 749 965 l 882 965 l 882 0 l 753 0 z "},"Ξ":{"ha":876,"x_min":103,"x_max":739,"o":"m 103 0 l 103 129 l 739 129 l 739 0 l 103 0 m 103 836 l 103 965 l 739 965 l 739 836 l 103 836 m 197 439 l 197 553 l 646 553 l 646 439 l 197 439 z "},"Ο":{"ha":1004,"x_min":124,"x_max":882,"o":"m 124 0 m 303 0 l 124 197 l 124 768 l 311 965 l 693 965 l 882 768 l 882 197 l 701 0 l 303 0 m 747 244 l 747 722 l 625 836 l 382 836 l 258 722 l 258 244 l 376 129 l 629 129 l 747 244 z "},"Π":{"ha":1003,"x_min":138,"x_max":865,"o":"m 138 0 m 729 0 l 729 836 l 275 836 l 275 0 l 138 0 l 138 965 l 865 965 l 865 0 l 729 0 z "},"Ρ":{"ha":960,"x_min":138,"x_max":871,"o":"m 138 0 m 138 0 l 138 965 l 682 965 l 871 768 l 871 557 l 676 360 l 275 360 l 275 0 l 138 0 m 738 717 l 613 836 l 275 836 l 275 482 l 613 482 l 738 599 l 738 717 z "},"Σ":{"ha":892,"x_min":83,"x_max":786,"o":"m 174 0 l 83 107 l 389 483 l 83 858 l 174 965 l 786 965 l 786 836 l 260 836 l 547 492 l 253 129 l 786 129 l 786 0 l 174 0 z "},"Τ":{"ha":879,"x_min":78,"x_max":800,"o":"m 78 0 m 371 0 l 371 836 l 78 836 l 78 965 l 800 965 l 800 836 l 508 836 l 508 0 l 371 0 z "},"Υ":{"ha":951,"x_min":60,"x_max":890,"o":"m 60 0 m 414 0 l 414 431 l 60 965 l 210 965 l 479 575 l 739 965 l 890 965 l 550 433 l 550 0 l 414 0 z "},"Φ":{"ha":1253,"x_min":89,"x_max":1165,"o":"m 89 0 m 558 0 l 558 139 l 267 139 l 89 336 l 89 629 l 278 826 l 558 826 l 558 965 l 694 965 l 694 826 l 976 826 l 1165 629 l 1165 336 l 985 139 l 694 139 l 694 0 l 558 0 m 1031 386 l 1031 588 l 907 706 l 694 706 l 694 268 l 910 268 l 1031 386 m 342 268 l 558 268 l 558 706 l 347 706 l 224 588 l 224 388 l 342 268 z "},"Χ":{"ha":979,"x_min":78,"x_max":900,"o":"m 78 0 m 78 0 l 406 504 l 104 965 l 256 965 l 493 617 l 732 965 l 875 965 l 572 499 l 900 0 l 747 0 l 486 383 l 222 0 l 78 0 z "},"Ψ":{"ha":1324,"x_min":124,"x_max":1200,"o":"m 593 0 l 593 278 l 303 278 l 124 475 l 124 965 l 258 965 l 258 526 l 376 407 l 593 407 l 593 965 l 729 965 l 729 407 l 944 407 l 1065 525 l 1065 965 l 1200 965 l 1200 475 l 1018 278 l 729 278 l 729 0 l 593 0 z "},"Ω":{"ha":1031,"x_min":107,"x_max":922,"o":"m 578 0 l 578 140 l 760 342 l 760 718 l 636 836 l 394 836 l 269 718 l 269 342 l 454 140 l 454 0 l 107 0 l 107 129 l 328 129 l 133 333 l 133 768 l 325 965 l 707 965 l 894 768 l 894 333 l 701 129 l 922 129 l 922 0 l 578 0 z "},"Ϊ":{"ha":464,"x_min":0,"x_max":463,"o":"m 0 0 m 164 0 l 164 965 l 301 965 l 301 0 l 164 0 m 328 1057 l 328 1200 l 463 1200 l 463 1057 l 328 1057 m 0 1057 l 0 1200 l 135 1200 l 135 1057 l 0 1057 z "},"Ϋ":{"ha":951,"x_min":60,"x_max":890,"o":"m 60 0 m 414 0 l 414 431 l 60 965 l 210 965 l 479 575 l 739 965 l 890 965 l 550 433 l 550 0 l 414 0 m 576 1057 l 576 1200 l 711 1200 l 711 1057 l 576 1057 m 249 1057 l 249 1200 l 383 1200 l 383 1057 l 249 1057 z "},"ά":{"ha":971,"x_min":114,"x_max":843,"o":"m 114 0 m 714 0 l 714 92 l 594 0 l 276 0 l 114 142 l 114 557 l 276 700 l 594 700 l 714 608 l 714 700 l 843 700 l 843 0 l 714 0 m 707 219 l 707 481 l 578 574 l 346 574 l 250 499 l 250 200 l 346 126 l 578 126 l 707 219 m 403 764 l 435 1078 l 569 1078 l 517 764 l 403 764 z "},"έ":{"ha":933,"x_min":114,"x_max":821,"o":"m 114 0 m 679 0 l 819 143 l 819 244 l 689 244 l 689 190 l 603 110 l 338 110 l 249 189 l 249 247 l 318 310 l 564 310 l 564 400 l 322 400 l 253 458 l 253 515 l 343 592 l 597 592 l 689 513 l 689 457 l 819 457 l 819 557 l 671 700 l 267 700 l 119 557 l 119 443 l 203 363 l 114 274 l 114 143 l 261 0 l 679 0 m 386 764 l 418 1078 l 553 1078 l 500 764 l 386 764 z "},"ή":{"ha":976,"x_min":128,"x_max":854,"o":"m 128 0 m 421 764 l 453 1078 l 588 1078 l 535 764 l 421 764 m 719 -235 l 719 499 l 626 574 l 394 574 l 264 481 l 264 0 l 128 0 l 128 700 l 257 700 l 257 608 l 376 700 l 694 700 l 854 557 l 854 -235 l 719 -235 z "},"ί":{"ha":510,"x_min":122,"x_max":435,"o":"m 122 0 m 260 0 l 122 119 l 122 700 l 257 700 l 257 175 l 332 117 l 435 117 l 435 0 l 260 0 m 138 764 l 169 1078 l 304 1078 l 251 764 l 138 764 z "},"ΰ":{"ha":967,"x_min":122,"x_max":844,"o":"m 122 0 m 285 0 l 122 142 l 122 700 l 257 700 l 257 200 l 353 126 l 614 126 l 708 200 l 708 700 l 844 700 l 844 142 l 682 0 l 285 0 m 150 843 l 150 996 l 286 996 l 286 843 l 150 843 m 399 764 l 431 1078 l 565 1078 l 513 764 l 399 764 m 669 843 l 669 996 l 806 996 l 806 843 l 669 843 z "},"α":{"ha":971,"x_min":114,"x_max":843,"o":"m 714 0 l 714 92 l 594 0 l 276 0 l 114 142 l 114 557 l 276 700 l 594 700 l 714 608 l 714 700 l 843 700 l 843 0 l 714 0 m 707 219 l 707 481 l 578 574 l 346 574 l 250 499 l 250 200 l 346 126 l 578 126 l 707 219 z "},"β":{"ha":986,"x_min":128,"x_max":864,"o":"m 382 0 l 264 86 l 264 -235 l 128 -235 l 128 846 l 265 965 l 724 965 l 860 846 l 860 597 l 776 517 l 864 428 l 864 143 l 719 0 l 382 0 m 732 199 l 732 392 l 663 454 l 450 454 l 450 563 l 656 563 l 725 622 l 725 794 l 651 851 l 338 851 l 264 794 l 264 222 l 399 121 l 642 121 l 732 199 z "},"γ":{"ha":907,"x_min":60,"x_max":847,"o":"m 60 0 m 389 -235 l 389 -28 l 60 700 l 204 700 l 453 164 l 706 700 l 847 700 l 525 -28 l 525 -235 l 389 -235 z "},"δ":{"ha":957,"x_min":114,"x_max":843,"o":"m 276 0 l 114 147 l 114 532 l 276 681 l 478 681 l 176 907 l 260 996 l 808 996 l 808 879 l 371 879 l 843 518 l 843 147 l 681 0 l 276 0 m 706 204 l 706 482 l 581 571 l 346 571 l 249 492 l 249 206 l 346 126 l 611 126 l 706 204 z "},"ε":{"ha":933,"x_min":114,"x_max":819,"o":"m 260 0 l 114 143 l 114 274 l 203 363 l 119 443 l 119 557 l 265 700 l 671 700 l 819 557 l 819 457 l 689 457 l 689 513 l 597 592 l 343 592 l 253 515 l 253 458 l 321 400 l 563 400 l 563 310 l 318 310 l 247 247 l 247 189 l 338 110 l 601 110 l 689 190 l 689 244 l 819 244 l 819 143 l 679 0 l 260 0 z "},"ζ":{"ha":925,"x_min":114,"x_max":831,"o":"m 696 -235 l 696 -78 l 599 0 l 276 0 l 114 147 l 114 419 l 621 879 l 146 879 l 146 996 l 736 996 l 817 907 l 249 385 l 249 206 l 346 126 l 668 126 l 831 -21 l 831 -235 l 696 -235 z "},"η":{"ha":976,"x_min":128,"x_max":854,"o":"m 719 -235 l 719 499 l 626 574 l 394 574 l 264 481 l 264 0 l 128 0 l 128 700 l 257 700 l 257 608 l 376 700 l 694 700 l 854 557 l 854 -235 l 719 -235 z "},"θ":{"ha":971,"x_min":122,"x_max":851,"o":"m 285 0 l 122 142 l 122 853 l 285 996 l 689 996 l 851 853 l 851 142 l 689 0 l 285 0 m 718 199 l 718 454 l 254 454 l 254 199 l 350 125 l 622 125 l 718 199 m 718 797 l 622 871 l 350 871 l 254 797 l 254 565 l 718 565 l 718 797 z "},"ι":{"ha":510,"x_min":122,"x_max":435,"o":"m 260 0 l 122 119 l 122 700 l 257 700 l 257 175 l 332 117 l 435 117 l 435 0 l 260 0 z "},"κ":{"ha":938,"x_min":128,"x_max":788,"o":"m 128 0 m 128 0 l 128 700 l 264 700 l 264 392 l 600 700 l 764 700 l 410 382 l 788 0 l 618 0 l 264 354 l 264 0 l 128 0 z "},"λ":{"ha":907,"x_min":60,"x_max":847,"o":"m 60 0 l 400 761 l 375 826 l 307 879 l 136 879 l 136 996 l 364 996 l 478 900 l 847 0 l 703 0 l 465 600 l 203 0 l 60 0 z "},"μ":{"ha":1039,"x_min":128,"x_max":963,"o":"m 818 0 l 729 85 l 636 0 l 358 0 l 264 76 l 264 -235 l 128 -235 l 128 700 l 264 700 l 264 214 l 376 126 l 617 126 l 697 192 l 697 700 l 832 700 l 832 168 l 890 117 l 963 117 l 963 0 l 818 0 z "},"ν":{"ha":907,"x_min":60,"x_max":847,"o":"m 60 0 m 378 0 l 60 700 l 204 700 l 453 163 l 706 700 l 847 700 l 535 0 l 378 0 z "},"ξ":{"ha":944,"x_min":114,"x_max":831,"o":"m 696 -235 l 696 -79 l 599 0 l 260 0 l 114 147 l 114 415 l 225 531 l 167 590 l 167 726 l 347 879 l 146 879 l 146 996 l 779 996 l 779 879 l 506 879 l 300 704 l 300 615 l 351 567 l 665 567 l 665 453 l 332 453 l 247 376 l 247 208 l 338 126 l 668 126 l 831 -21 l 831 -235 l 696 -235 z "},"ο":{"ha":957,"x_min":114,"x_max":843,"o":"m 114 0 m 276 0 l 114 142 l 114 557 l 276 700 l 681 700 l 843 557 l 843 142 l 681 0 l 276 0 m 706 200 l 706 499 l 613 574 l 344 574 l 249 499 l 249 200 l 344 126 l 613 126 l 706 200 z "},"π":{"ha":1204,"x_min":75,"x_max":1076,"o":"m 907 0 l 771 115 l 771 579 l 357 579 l 357 0 l 221 0 l 221 579 l 75 579 l 75 700 l 1076 700 l 1076 579 l 906 579 l 906 172 l 979 117 l 1076 117 l 1076 0 l 907 0 z "},"ρ":{"ha":965,"x_min":122,"x_max":851,"o":"m 381 0 l 258 92 l 258 -235 l 122 -235 l 122 557 l 285 700 l 689 700 l 851 557 l 851 142 l 689 0 l 381 0 m 714 200 l 714 499 l 621 574 l 353 574 l 257 499 l 257 219 l 392 126 l 621 126 l 714 200 z "},"ς":{"ha":944,"x_min":114,"x_max":831,"o":"m 696 -235 l 696 -74 l 600 0 l 276 0 l 114 142 l 114 557 l 276 700 l 667 700 l 831 557 l 831 414 l 699 414 l 699 499 l 604 574 l 344 574 l 249 499 l 249 200 l 344 126 l 668 126 l 831 -17 l 831 -235 l 696 -235 z "},"σ":{"ha":1038,"x_min":114,"x_max":963,"o":"m 276 0 l 114 142 l 114 557 l 276 700 l 963 700 l 963 579 l 711 579 l 835 481 l 835 142 l 672 0 l 276 0 m 697 200 l 697 478 l 564 579 l 344 579 l 249 504 l 249 200 l 344 126 l 604 126 l 697 200 z "},"τ":{"ha":896,"x_min":76,"x_max":821,"o":"m 507 0 l 369 119 l 369 579 l 76 579 l 76 700 l 821 700 l 821 579 l 506 579 l 506 175 l 581 117 l 693 117 l 693 0 l 507 0 z "},"υ":{"ha":967,"x_min":122,"x_max":844,"o":"m 285 0 l 122 142 l 122 700 l 257 700 l 257 200 l 353 126 l 614 126 l 708 200 l 708 700 l 844 700 l 844 142 l 682 0 l 285 0 z "},"φ":{"ha":1275,"x_min":114,"x_max":1161,"o":"m 114 0 m 569 -235 l 569 0 l 276 0 l 114 142 l 114 557 l 276 700 l 569 700 l 569 965 l 706 965 l 706 700 l 999 700 l 1161 557 l 1161 142 l 999 0 l 706 0 l 706 -235 l 569 -235 m 344 126 l 569 126 l 569 574 l 344 574 l 249 499 l 249 200 l 344 126 m 1025 200 l 1025 499 l 929 574 l 706 574 l 706 126 l 929 126 l 1025 200 z "},"χ":{"ha":918,"x_min":32,"x_max":883,"o":"m 32 -235 l 375 258 l 60 700 l 214 700 l 458 357 l 713 700 l 856 700 l 540 243 l 883 -235 l 726 -235 l 456 144 l 175 -235 l 32 -235 z "},"ψ":{"ha":1285,"x_min":122,"x_max":1163,"o":"m 575 -235 l 575 0 l 285 0 l 122 142 l 122 700 l 257 700 l 257 200 l 353 126 l 575 126 l 575 843 l 711 843 l 711 126 l 931 126 l 1026 200 l 1026 700 l 1163 700 l 1163 142 l 1000 0 l 711 0 l 711 -235 l 575 -235 z "},"ω":{"ha":1257,"x_min":122,"x_max":1119,"o":"m 694 0 l 622 65 l 551 0 l 285 0 l 122 142 l 122 700 l 257 700 l 257 200 l 353 126 l 506 126 l 561 174 l 561 554 l 685 554 l 685 174 l 740 126 l 888 126 l 985 200 l 985 700 l 1119 700 l 1119 142 l 957 0 l 694 0 z "},"ϊ":{"ha":554,"x_min":0,"x_max":476,"o":"m 0 0 m 301 0 l 164 119 l 164 700 l 299 700 l 299 175 l 374 117 l 476 117 l 476 0 l 301 0 m 331 843 l 331 996 l 465 996 l 465 843 l 331 843 m 0 843 l 0 996 l 136 996 l 136 843 l 0 843 z "},"ϋ":{"ha":967,"x_min":122,"x_max":844,"o":"m 122 0 m 285 0 l 122 142 l 122 700 l 257 700 l 257 200 l 353 126 l 614 126 l 708 200 l 708 700 l 844 700 l 844 142 l 682 0 l 285 0 m 578 843 l 578 996 l 713 996 l 713 843 l 578 843 m 247 843 l 247 996 l 383 996 l 383 843 l 247 843 z "},"ό":{"ha":957,"x_min":114,"x_max":843,"o":"m 114 0 m 276 0 l 114 142 l 114 557 l 276 700 l 681 700 l 843 557 l 843 142 l 681 0 l 276 0 m 706 200 l 706 499 l 613 574 l 344 574 l 249 499 l 249 200 l 344 126 l 613 126 l 706 200 m 413 764 l 444 1078 l 579 1078 l 526 764 l 413 764 z "},"ύ":{"ha":967,"x_min":122,"x_max":844,"o":"m 122 0 m 285 0 l 122 142 l 122 700 l 257 700 l 257 200 l 353 126 l 614 126 l 708 200 l 708 700 l 844 700 l 844 142 l 682 0 l 285 0 m 414 764 l 446 1078 l 581 1078 l 528 764 l 414 764 z "},"ώ":{"ha":1257,"x_min":122,"x_max":1119,"o":"m 122 0 m 694 0 l 622 65 l 551 0 l 285 0 l 122 142 l 122 700 l 257 700 l 257 200 l 353 126 l 506 126 l 561 174 l 561 554 l 685 554 l 685 174 l 740 126 l 888 126 l 985 200 l 985 700 l 1119 700 l 1119 142 l 957 0 l 694 0 m 567 764 l 599 1078 l 733 1078 l 681 764 l 567 764 z "},"Ѐ":{"ha":876,"x_min":138,"x_max":772,"o":"m 138 0 m 138 0 l 138 965 l 772 965 l 772 836 l 275 836 l 275 553 l 615 553 l 615 439 l 275 439 l 275 129 l 772 129 l 772 0 l 138 0 m 433 1000 l 282 1278 l 422 1278 l 553 1000 l 433 1000 z "},"Ё":{"ha":876,"x_min":138,"x_max":772,"o":"m 138 0 m 138 0 l 138 965 l 772 965 l 772 836 l 275 836 l 275 553 l 615 553 l 615 439 l 275 439 l 275 129 l 772 129 l 772 0 l 138 0 m 563 1057 l 563 1200 l 697 1200 l 697 1057 l 563 1057 m 235 1057 l 235 1200 l 369 1200 l 369 1057 l 235 1057 z "},"Ђ":{"ha":1217,"x_min":81,"x_max":1082,"o":"m 703 -235 l 703 -108 l 850 -108 l 947 -25 l 947 383 l 829 503 l 554 503 l 554 0 l 418 0 l 418 836 l 81 836 l 81 965 l 958 965 l 958 836 l 554 836 l 554 632 l 903 632 l 1082 435 l 1082 -82 l 919 -235 l 703 -235 z "},"Ѓ":{"ha":822,"x_min":138,"x_max":742,"o":"m 138 0 m 138 0 l 138 965 l 742 965 l 742 836 l 275 836 l 275 0 l 138 0 m 335 1000 l 468 1278 l 608 1278 l 454 1000 l 335 1000 z "},"Є":{"ha":1000,"x_min":124,"x_max":878,"o":"m 303 0 l 124 197 l 124 768 l 311 965 l 690 965 l 878 768 l 878 618 l 746 618 l 746 718 l 622 836 l 382 836 l 258 718 l 258 547 l 668 547 l 668 442 l 258 442 l 258 249 l 376 129 l 626 129 l 746 247 l 746 372 l 878 372 l 878 197 l 699 0 l 303 0 z "},"Ѕ":{"ha":1000,"x_min":124,"x_max":878,"o":"m 124 0 m 294 0 l 124 183 l 124 322 l 253 322 l 253 225 l 367 118 l 632 118 l 746 226 l 746 353 l 639 439 l 299 439 l 124 586 l 124 781 l 294 965 l 690 965 l 864 781 l 864 642 l 733 642 l 733 738 l 619 847 l 368 847 l 256 739 l 256 633 l 367 544 l 703 544 l 878 403 l 878 183 l 707 0 l 294 0 z "},"І":{"ha":413,"x_min":138,"x_max":275,"o":"m 138 0 m 138 0 l 138 965 l 275 965 l 275 0 l 138 0 z "},"Ї":{"ha":464,"x_min":0,"x_max":463,"o":"m 0 0 m 164 0 l 164 965 l 301 965 l 301 0 l 164 0 m 328 1057 l 328 1200 l 463 1200 l 463 1057 l 328 1057 m 0 1057 l 0 1200 l 135 1200 l 135 1057 l 0 1057 z "},"Ј":{"ha":950,"x_min":78,"x_max":821,"o":"m 78 0 m 261 0 l 78 197 l 78 372 l 211 372 l 211 247 l 332 129 l 564 129 l 686 247 l 686 965 l 821 965 l 821 197 l 638 0 l 261 0 z "},"Љ":{"ha":1639,"x_min":78,"x_max":1551,"o":"m 817 0 l 817 836 l 558 836 l 418 128 l 286 0 l 78 0 l 78 128 l 218 128 l 297 201 l 446 965 l 954 965 l 954 603 l 1346 603 l 1551 404 l 1551 197 l 1363 0 l 817 0 m 1417 361 l 1283 481 l 954 481 l 954 129 l 1292 129 l 1417 249 l 1417 361 z "},"Њ":{"ha":1551,"x_min":138,"x_max":1464,"o":"m 729 0 l 729 483 l 275 483 l 275 0 l 138 0 l 138 965 l 275 965 l 275 603 l 729 603 l 729 965 l 867 965 l 867 603 l 1260 603 l 1464 404 l 1464 197 l 1275 0 l 729 0 m 1329 361 l 1196 481 l 867 481 l 867 129 l 1206 129 l 1329 249 l 1329 361 z "},"Ћ":{"ha":1206,"x_min":81,"x_max":1082,"o":"m 958 836 l 524 836 l 524 606 l 903 606 l 1082 408 l 1082 0 l 947 0 l 947 357 l 829 476 l 524 476 l 524 0 l 386 0 l 386 836 l 81 836 l 81 965 l 958 965 l 958 836 z "},"Ќ":{"ha":935,"x_min":138,"x_max":854,"o":"m 138 0 m 138 0 l 138 965 l 275 965 l 275 536 l 678 965 l 835 965 l 404 525 l 854 0 l 699 0 l 275 489 l 275 0 l 138 0 m 283 1000 l 417 1278 l 557 1278 l 403 1000 l 283 1000 z "},"Ѝ":{"ha":1022,"x_min":138,"x_max":885,"o":"m 138 0 m 749 0 l 749 696 l 275 0 l 138 0 l 138 965 l 275 965 l 275 267 l 749 965 l 885 965 l 885 0 l 749 0 m 386 1000 l 235 1278 l 375 1278 l 506 1000 l 386 1000 z "},"Ў":{"ha":1036,"x_min":60,"x_max":975,"o":"m 60 0 m 115 0 l 115 129 l 349 129 l 432 206 l 435 211 l 60 965 l 201 965 l 508 354 l 826 965 l 975 965 l 544 128 l 411 0 l 115 0 m 597 1008 l 244 1008 l 132 1104 l 132 1278 l 236 1278 l 236 1150 l 294 1106 l 547 1106 l 606 1150 l 606 1278 l 713 1278 l 713 1104 l 597 1008 z "},"Џ":{"ha":1003,"x_min":138,"x_max":865,"o":"m 442 -235 l 442 0 l 138 0 l 138 965 l 275 965 l 275 129 l 729 129 l 729 965 l 865 965 l 865 0 l 563 0 l 563 -235 l 442 -235 z "},"А":{"ha":924,"x_min":69,"x_max":854,"o":"m 69 0 m 713 0 l 660 171 l 261 171 l 208 0 l 69 0 l 363 965 l 563 965 l 854 0 l 713 0 m 294 279 l 626 279 l 461 821 l 294 279 z "},"Б":{"ha":960,"x_min":138,"x_max":871,"o":"m 138 0 l 138 965 l 742 965 l 742 836 l 275 836 l 275 603 l 667 603 l 871 404 l 871 197 l 682 0 l 138 0 m 738 361 l 604 481 l 275 481 l 275 129 l 613 129 l 738 249 l 738 361 z "},"В":{"ha":1006,"x_min":138,"x_max":882,"o":"m 138 0 m 138 0 l 138 965 l 688 965 l 875 768 l 875 611 l 769 500 l 882 378 l 882 197 l 694 0 l 138 0 m 740 632 l 740 728 l 617 844 l 275 844 l 275 549 l 653 549 l 740 632 m 747 247 l 747 353 l 657 443 l 275 443 l 275 129 l 624 129 l 747 247 z "},"Г":{"ha":822,"x_min":138,"x_max":742,"o":"m 138 0 l 138 965 l 742 965 l 742 836 l 275 836 l 275 0 l 138 0 z "},"Д":{"ha":1197,"x_min":78,"x_max":1119,"o":"m 78 -235 l 78 128 l 226 128 l 307 201 l 456 965 l 965 965 l 965 129 l 1119 129 l 1119 -235 l 999 -235 l 999 0 l 199 0 l 199 -235 l 78 -235 m 439 183 l 382 129 l 828 129 l 828 836 l 568 836 l 439 183 z "},"Е":{"ha":876,"x_min":138,"x_max":772,"o":"m 138 0 m 138 0 l 138 965 l 772 965 l 772 836 l 275 836 l 275 553 l 615 553 l 615 439 l 275 439 l 275 129 l 772 129 l 772 0 l 138 0 z "},"Ж":{"ha":1456,"x_min":79,"x_max":1376,"o":"m 79 0 l 531 524 l 100 965 l 256 965 l 660 547 l 660 965 l 797 965 l 797 547 l 1200 965 l 1357 965 l 928 525 l 1376 0 l 1222 0 l 797 479 l 797 0 l 660 0 l 660 479 l 235 0 l 79 0 z "},"З":{"ha":1008,"x_min":119,"x_max":885,"o":"m 119 0 m 299 0 l 119 197 l 119 372 l 251 372 l 251 249 l 371 129 l 626 129 l 751 247 l 751 353 l 660 443 l 421 443 l 421 549 l 657 549 l 744 632 l 744 725 l 621 842 l 376 842 l 251 725 l 251 618 l 119 618 l 119 768 l 308 965 l 690 965 l 879 768 l 879 611 l 772 500 l 885 378 l 885 197 l 697 0 l 299 0 z "},"И":{"ha":1022,"x_min":138,"x_max":885,"o":"m 749 0 l 749 696 l 275 0 l 138 0 l 138 965 l 275 965 l 275 267 l 749 965 l 885 965 l 885 0 l 749 0 z "},"Й":{"ha":1022,"x_min":138,"x_max":885,"o":"m 138 0 m 749 0 l 749 696 l 275 0 l 138 0 l 138 965 l 275 965 l 275 267 l 749 965 l 885 965 l 885 0 l 749 0 m 682 1008 l 329 1008 l 217 1104 l 217 1278 l 321 1278 l 321 1150 l 379 1106 l 632 1106 l 690 1150 l 690 1278 l 797 1278 l 797 1104 l 682 1008 z "},"К":{"ha":935,"x_min":138,"x_max":854,"o":"m 138 0 l 138 965 l 275 965 l 275 536 l 678 965 l 835 965 l 404 525 l 854 0 l 699 0 l 275 489 l 275 0 l 138 0 z "},"Л":{"ha":1092,"x_min":78,"x_max":954,"o":"m 818 0 l 818 836 l 558 836 l 418 128 l 286 0 l 78 0 l 78 128 l 218 128 l 297 201 l 446 965 l 954 965 l 954 0 l 818 0 z "},"М":{"ha":1283,"x_min":138,"x_max":1146,"o":"m 138 0 m 1013 0 l 1013 689 l 701 0 l 585 0 l 271 689 l 271 0 l 138 0 l 138 965 l 299 965 l 642 189 l 983 965 l 1146 965 l 1146 0 l 1013 0 z "},"Н":{"ha":1003,"x_min":138,"x_max":865,"o":"m 138 0 m 729 0 l 729 438 l 275 438 l 275 0 l 138 0 l 138 965 l 275 965 l 275 557 l 729 557 l 729 965 l 865 965 l 865 0 l 729 0 z "},"О":{"ha":1004,"x_min":124,"x_max":882,"o":"m 124 0 m 303 0 l 124 197 l 124 768 l 311 965 l 693 965 l 882 768 l 882 197 l 701 0 l 303 0 m 747 244 l 747 722 l 625 836 l 382 836 l 258 722 l 258 244 l 376 129 l 629 129 l 747 244 z "},"П":{"ha":1003,"x_min":138,"x_max":865,"o":"m 729 0 l 729 836 l 275 836 l 275 0 l 138 0 l 138 965 l 865 965 l 865 0 l 729 0 z "},"Р":{"ha":960,"x_min":138,"x_max":871,"o":"m 138 0 m 138 0 l 138 965 l 682 965 l 871 768 l 871 557 l 676 360 l 275 360 l 275 0 l 138 0 m 738 717 l 613 836 l 275 836 l 275 482 l 613 482 l 738 599 l 738 717 z "},"С":{"ha":1000,"x_min":124,"x_max":878,"o":"m 124 0 m 303 0 l 124 197 l 124 768 l 311 965 l 690 965 l 878 768 l 878 613 l 746 613 l 746 722 l 628 836 l 382 836 l 258 722 l 258 244 l 382 129 l 628 129 l 746 244 l 746 378 l 878 378 l 878 197 l 699 0 l 303 0 z "},"Т":{"ha":879,"x_min":78,"x_max":800,"o":"m 78 0 m 371 0 l 371 836 l 78 836 l 78 965 l 800 965 l 800 836 l 508 836 l 508 0 l 371 0 z "},"У":{"ha":1036,"x_min":60,"x_max":975,"o":"m 115 0 l 115 129 l 349 129 l 432 206 l 435 211 l 60 965 l 201 965 l 508 354 l 826 965 l 975 965 l 544 128 l 411 0 l 115 0 z "},"Ф":{"ha":1253,"x_min":89,"x_max":1165,"o":"m 558 0 l 558 139 l 267 139 l 89 336 l 89 629 l 278 826 l 558 826 l 558 965 l 694 965 l 694 826 l 976 826 l 1165 629 l 1165 336 l 985 139 l 694 139 l 694 0 l 558 0 m 1031 386 l 1031 588 l 907 706 l 694 706 l 694 268 l 910 268 l 1031 386 m 342 268 l 558 268 l 558 706 l 347 706 l 224 588 l 224 388 l 342 268 z "},"Х":{"ha":979,"x_min":78,"x_max":900,"o":"m 78 0 m 78 0 l 406 504 l 104 965 l 256 965 l 493 617 l 732 965 l 875 965 l 572 499 l 900 0 l 747 0 l 486 383 l 222 0 l 78 0 z "},"Ц":{"ha":1099,"x_min":138,"x_max":1021,"o":"m 900 -235 l 900 0 l 138 0 l 138 965 l 275 965 l 275 129 l 729 129 l 729 965 l 865 965 l 865 129 l 1021 129 l 1021 -235 l 900 -235 z "},"Ч":{"ha":989,"x_min":124,"x_max":853,"o":"m 715 0 l 715 360 l 303 360 l 124 557 l 124 965 l 258 965 l 258 608 l 376 489 l 715 489 l 715 965 l 853 965 l 853 0 l 715 0 z "},"Ш":{"ha":1447,"x_min":138,"x_max":1307,"o":"m 138 0 l 138 965 l 275 965 l 275 129 l 654 129 l 654 965 l 792 965 l 792 129 l 1169 129 l 1169 965 l 1307 965 l 1307 0 l 138 0 z "},"Щ":{"ha":1539,"x_min":138,"x_max":1461,"o":"m 1342 -235 l 1342 0 l 138 0 l 138 965 l 275 965 l 275 129 l 654 129 l 654 965 l 792 965 l 792 129 l 1169 129 l 1169 965 l 1307 965 l 1307 129 l 1461 129 l 1461 -235 l 1342 -235 z "},"Ъ":{"ha":1271,"x_min":78,"x_max":1182,"o":"m 449 0 l 449 836 l 78 836 l 78 965 l 585 965 l 585 603 l 978 603 l 1182 404 l 1182 197 l 993 0 l 449 0 m 1049 361 l 915 481 l 585 481 l 585 129 l 924 129 l 1049 249 l 1049 361 z "},"Ы":{"ha":1367,"x_min":138,"x_max":1229,"o":"m 138 0 m 138 0 l 138 965 l 275 965 l 275 603 l 667 603 l 871 404 l 871 197 l 682 0 l 138 0 m 738 361 l 604 481 l 275 481 l 275 129 l 613 129 l 738 249 l 738 361 m 1092 0 l 1092 965 l 1229 965 l 1229 0 l 1092 0 z "},"Ь":{"ha":960,"x_min":138,"x_max":871,"o":"m 138 0 l 138 965 l 275 965 l 275 603 l 667 603 l 871 404 l 871 197 l 682 0 l 138 0 m 738 361 l 604 481 l 275 481 l 275 129 l 613 129 l 738 249 l 738 361 z "},"Э":{"ha":1000,"x_min":124,"x_max":878,"o":"m 304 0 l 124 197 l 124 372 l 256 372 l 256 247 l 376 129 l 625 129 l 743 249 l 743 442 l 335 442 l 335 547 l 743 547 l 743 718 l 619 836 l 381 836 l 256 718 l 256 618 l 124 618 l 124 768 l 311 965 l 690 965 l 878 768 l 878 197 l 700 0 l 304 0 z "},"Ю":{"ha":1424,"x_min":138,"x_max":1301,"o":"m 138 0 l 138 965 l 275 965 l 275 553 l 543 553 l 543 768 l 731 965 l 1113 965 l 1301 768 l 1301 197 l 1121 0 l 722 0 l 543 197 l 543 439 l 275 439 l 275 0 l 138 0 m 1167 244 l 1167 722 l 1044 836 l 801 836 l 678 722 l 678 244 l 796 129 l 1049 129 l 1167 244 z "},"Я":{"ha":992,"x_min":93,"x_max":854,"o":"m 93 0 l 286 403 l 121 560 l 121 768 l 311 965 l 854 965 l 854 0 l 718 0 l 718 361 l 413 361 l 239 0 l 93 0 m 254 597 l 388 479 l 718 479 l 718 836 l 379 836 l 254 717 l 254 597 z "},"а":{"ha":961,"x_min":104,"x_max":839,"o":"m 104 0 m 708 0 l 708 92 l 593 0 l 225 0 l 104 108 l 104 304 l 218 411 l 697 411 l 697 522 l 624 579 l 168 579 l 168 700 l 701 700 l 839 582 l 839 0 l 708 0 m 697 211 l 697 317 l 297 317 l 239 268 l 239 161 l 303 111 l 565 111 l 697 211 z "},"б":{"ha":965,"x_min":122,"x_max":851,"o":"m 285 0 l 122 142 l 122 872 l 268 996 l 647 996 l 724 1053 l 724 1106 l 847 1106 l 847 994 l 710 875 l 324 875 l 244 811 l 244 613 l 350 686 l 689 686 l 851 544 l 851 142 l 689 0 l 285 0 m 717 200 l 717 488 l 621 563 l 371 563 l 258 479 l 258 200 l 354 126 l 621 126 l 717 200 z "},"в":{"ha":967,"x_min":128,"x_max":853,"o":"m 128 0 l 128 700 l 700 700 l 847 557 l 847 444 l 764 365 l 853 276 l 853 143 l 706 0 l 128 0 m 714 515 l 622 594 l 264 594 l 264 407 l 646 407 l 714 465 l 714 515 m 719 190 l 719 253 l 649 315 l 264 315 l 264 113 l 629 113 l 719 190 z "},"г":{"ha":731,"x_min":128,"x_max":654,"o":"m 128 0 l 128 700 l 654 700 l 654 579 l 264 579 l 264 0 l 128 0 z "},"д":{"ha":1125,"x_min":78,"x_max":1047,"o":"m 78 -167 l 78 121 l 222 121 l 294 179 l 407 700 l 910 700 l 910 121 l 1047 121 l 1047 -167 l 932 -167 l 932 0 l 192 0 l 192 -167 l 78 -167 m 415 165 l 364 121 l 774 121 l 774 579 l 508 579 l 415 165 z "},"е":{"ha":953,"x_min":114,"x_max":831,"o":"m 114 0 m 699 511 l 604 586 l 342 586 l 246 511 l 246 396 l 699 396 l 699 511 m 276 0 l 114 142 l 114 557 l 276 700 l 667 700 l 831 557 l 831 297 l 246 297 l 246 196 l 342 121 l 821 121 l 821 0 l 276 0 z "},"ж":{"ha":1326,"x_min":71,"x_max":1256,"o":"m 71 0 l 449 381 l 96 700 l 261 700 l 594 397 l 594 700 l 731 700 l 731 397 l 1067 700 l 1231 700 l 878 382 l 1256 0 l 1085 0 l 731 346 l 731 0 l 594 0 l 594 346 l 240 0 l 71 0 z "},"з":{"ha":933,"x_min":114,"x_max":819,"o":"m 254 0 l 114 143 l 114 244 l 244 244 l 244 190 l 331 110 l 596 110 l 685 189 l 685 247 l 615 310 l 369 310 l 369 400 l 611 400 l 681 458 l 681 515 l 590 592 l 336 592 l 244 513 l 244 457 l 114 457 l 114 557 l 263 700 l 667 700 l 814 557 l 814 443 l 731 363 l 819 274 l 819 143 l 672 0 l 254 0 z "},"и":{"ha":983,"x_min":128,"x_max":854,"o":"m 719 0 l 719 490 l 264 0 l 128 0 l 128 700 l 264 700 l 264 211 l 719 700 l 854 700 l 854 0 l 719 0 z "},"й":{"ha":983,"x_min":128,"x_max":854,"o":"m 128 0 m 719 0 l 719 490 l 264 0 l 128 0 l 128 700 l 264 700 l 264 211 l 719 700 l 854 700 l 854 0 l 719 0 m 314 779 l 201 888 l 201 1078 l 307 1078 l 307 938 l 367 885 l 615 885 l 676 938 l 676 1078 l 783 1078 l 783 888 l 667 779 l 314 779 z "},"к":{"ha":858,"x_min":128,"x_max":788,"o":"m 128 0 l 128 700 l 264 700 l 264 392 l 600 700 l 764 700 l 410 382 l 788 0 l 618 0 l 264 354 l 264 0 l 128 0 z "},"л":{"ha":1024,"x_min":78,"x_max":896,"o":"m 761 0 l 761 579 l 494 579 l 390 101 l 257 0 l 78 0 l 78 121 l 207 121 l 281 179 l 393 700 l 896 700 l 896 0 l 761 0 z "},"м":{"ha":1253,"x_min":128,"x_max":1125,"o":"m 992 0 l 992 489 l 685 0 l 568 0 l 260 489 l 260 0 l 128 0 l 128 700 l 300 700 l 626 161 l 953 700 l 1125 700 l 1125 0 l 992 0 z "},"н":{"ha":947,"x_min":128,"x_max":821,"o":"m 685 0 l 685 296 l 264 296 l 264 0 l 128 0 l 128 700 l 264 700 l 264 415 l 685 415 l 685 700 l 821 700 l 821 0 l 685 0 z "},"о":{"ha":957,"x_min":114,"x_max":843,"o":"m 114 0 m 276 0 l 114 142 l 114 557 l 276 700 l 681 700 l 843 557 l 843 142 l 681 0 l 276 0 m 706 200 l 706 499 l 613 574 l 344 574 l 249 499 l 249 200 l 344 126 l 613 126 l 706 200 z "},"п":{"ha":947,"x_min":128,"x_max":821,"o":"m 685 0 l 685 579 l 264 579 l 264 0 l 128 0 l 128 700 l 821 700 l 821 0 l 685 0 z "},"р":{"ha":972,"x_min":128,"x_max":858,"o":"m 128 0 m 722 200 l 722 499 l 626 574 l 394 574 l 264 481 l 264 219 l 394 126 l 626 126 l 722 200 m 382 0 l 264 92 l 264 -235 l 128 -235 l 128 700 l 257 700 l 257 608 l 376 700 l 696 700 l 858 557 l 858 142 l 696 0 l 382 0 z "},"с":{"ha":944,"x_min":114,"x_max":831,"o":"m 114 0 m 276 0 l 114 142 l 114 557 l 276 700 l 667 700 l 831 557 l 831 414 l 699 414 l 699 499 l 604 574 l 344 574 l 249 499 l 249 200 l 344 126 l 604 126 l 699 200 l 699 285 l 831 285 l 831 142 l 667 0 l 276 0 z "},"т":{"ha":896,"x_min":76,"x_max":821,"o":"m 379 0 l 379 579 l 76 579 l 76 700 l 821 700 l 821 579 l 514 579 l 514 0 l 379 0 z "},"у":{"ha":907,"x_min":60,"x_max":847,"o":"m 60 0 m 121 -235 l 121 -114 l 278 -114 l 361 -50 l 382 -3 l 60 700 l 207 700 l 451 149 l 703 700 l 847 700 l 465 -115 l 331 -235 l 121 -235 z "},"ф":{"ha":1275,"x_min":114,"x_max":1161,"o":"m 569 -235 l 569 0 l 276 0 l 114 142 l 114 557 l 276 700 l 569 700 l 569 965 l 706 965 l 706 700 l 999 700 l 1161 557 l 1161 142 l 999 0 l 706 0 l 706 -235 l 569 -235 m 344 126 l 569 126 l 569 574 l 344 574 l 249 499 l 249 200 l 344 126 m 1025 200 l 1025 499 l 929 574 l 706 574 l 706 126 l 929 126 l 1025 200 z "},"х":{"ha":996,"x_min":72,"x_max":925,"o":"m 72 0 m 72 0 l 406 367 l 101 700 l 264 700 l 503 453 l 743 700 l 897 700 l 589 361 l 925 0 l 761 0 l 493 274 l 226 0 l 72 0 z "},"ц":{"ha":1036,"x_min":128,"x_max":958,"o":"m 843 -167 l 843 0 l 128 0 l 128 700 l 264 700 l 264 121 l 685 121 l 685 700 l 821 700 l 821 121 l 958 121 l 958 -167 l 843 -167 z "},"ч":{"ha":947,"x_min":128,"x_max":821,"o":"m 685 0 l 685 238 l 307 238 l 128 382 l 128 700 l 264 700 l 264 428 l 376 346 l 685 346 l 685 700 l 821 700 l 821 0 l 685 0 z "},"ш":{"ha":1375,"x_min":128,"x_max":1247,"o":"m 128 0 l 128 700 l 264 700 l 264 121 l 619 121 l 619 700 l 756 700 l 756 121 l 1111 121 l 1111 700 l 1247 700 l 1247 0 l 128 0 z "},"щ":{"ha":1463,"x_min":128,"x_max":1385,"o":"m 1269 -167 l 1269 0 l 128 0 l 128 700 l 264 700 l 264 121 l 619 121 l 619 700 l 756 700 l 756 121 l 1111 121 l 1111 700 l 1247 700 l 1247 121 l 1385 121 l 1385 -167 l 1269 -167 z "},"ъ":{"ha":1206,"x_min":76,"x_max":1094,"o":"m 369 0 l 369 579 l 76 579 l 76 700 l 504 700 l 504 482 l 924 482 l 1094 342 l 1094 140 l 936 0 l 369 0 m 961 292 l 854 368 l 504 368 l 504 121 l 861 121 l 961 199 l 961 292 z "},"ы":{"ha":1347,"x_min":128,"x_max":1221,"o":"m 128 0 m 128 0 l 128 700 l 264 700 l 264 482 l 682 482 l 853 342 l 853 140 l 694 0 l 128 0 m 719 292 l 614 368 l 264 368 l 264 121 l 619 121 l 719 199 l 719 292 m 1085 0 l 1085 700 l 1221 700 l 1221 0 l 1085 0 z "},"ь":{"ha":963,"x_min":128,"x_max":853,"o":"m 128 0 l 128 700 l 264 700 l 264 482 l 682 482 l 853 342 l 853 140 l 694 0 l 128 0 m 719 292 l 614 368 l 264 368 l 264 121 l 619 121 l 719 199 l 719 292 z "},"э":{"ha":944,"x_min":115,"x_max":831,"o":"m 293 306 l 293 394 l 697 394 l 697 506 l 601 581 l 340 581 l 246 506 l 246 457 l 115 457 l 115 557 l 276 700 l 668 700 l 831 557 l 831 142 l 668 0 l 276 0 l 115 142 l 115 244 l 246 244 l 246 194 l 340 121 l 601 121 l 697 194 l 697 306 l 293 306 z "},"ю":{"ha":1383,"x_min":128,"x_max":1269,"o":"m 128 0 l 128 700 l 264 700 l 264 413 l 540 413 l 540 557 l 703 700 l 1108 700 l 1269 557 l 1269 142 l 1108 0 l 703 0 l 540 142 l 540 292 l 264 292 l 264 0 l 128 0 m 1133 200 l 1133 499 l 1039 574 l 771 574 l 675 499 l 675 200 l 771 126 l 1039 126 l 1133 200 z "},"я":{"ha":967,"x_min":125,"x_max":850,"o":"m 125 0 l 260 254 l 125 367 l 125 560 l 283 700 l 850 700 l 850 0 l 714 0 l 714 226 l 388 226 l 268 0 l 125 0 m 714 579 l 356 579 l 258 503 l 258 417 l 364 340 l 714 340 l 714 579 z "},"ѐ":{"ha":953,"x_min":114,"x_max":831,"o":"m 114 0 m 699 511 l 604 586 l 342 586 l 246 511 l 246 396 l 699 396 l 699 511 m 276 0 l 114 142 l 114 557 l 276 700 l 667 700 l 831 557 l 831 297 l 246 297 l 246 196 l 342 121 l 821 121 l 821 0 l 276 0 m 449 764 l 290 1078 l 432 1078 l 567 764 l 449 764 z "},"ё":{"ha":953,"x_min":114,"x_max":831,"o":"m 114 0 m 699 511 l 604 586 l 342 586 l 246 511 l 246 396 l 699 396 l 699 511 m 276 0 l 114 142 l 114 557 l 276 700 l 667 700 l 831 557 l 831 297 l 246 297 l 246 196 l 342 121 l 821 121 l 821 0 l 276 0 m 572 843 l 572 996 l 707 996 l 707 843 l 572 843 m 242 843 l 242 996 l 378 996 l 378 843 l 242 843 z "},"ђ":{"ha":976,"x_min":-10,"x_max":854,"o":"m 264 826 l 264 608 l 383 700 l 694 700 l 854 557 l 854 -115 l 719 -235 l 557 -235 l 557 -114 l 647 -114 l 719 -56 l 719 499 l 626 574 l 394 574 l 264 481 l 264 0 l 128 0 l 128 826 l -10 826 l -10 929 l 128 929 l 128 965 l 264 965 l 264 929 l 679 929 l 679 826 l 264 826 z "},"ѓ":{"ha":731,"x_min":128,"x_max":654,"o":"m 128 0 m 128 0 l 128 700 l 654 700 l 654 579 l 264 579 l 264 0 l 128 0 m 292 764 l 418 1078 l 558 1078 l 401 764 l 292 764 z "},"є":{"ha":944,"x_min":114,"x_max":831,"o":"m 246 306 l 246 194 l 343 121 l 604 121 l 699 194 l 699 244 l 831 244 l 831 142 l 667 0 l 276 0 l 114 142 l 114 557 l 276 700 l 667 700 l 831 557 l 831 457 l 699 457 l 699 506 l 604 581 l 343 581 l 246 506 l 246 394 l 650 394 l 650 306 l 246 306 z "},"ѕ":{"ha":883,"x_min":103,"x_max":782,"o":"m 103 0 m 117 0 l 117 121 l 575 121 l 651 178 l 651 247 l 571 304 l 253 304 l 103 410 l 103 582 l 240 700 l 757 700 l 757 579 l 311 579 l 235 524 l 235 457 l 318 401 l 633 401 l 782 294 l 782 119 l 646 0 l 117 0 z "},"і":{"ha":403,"x_min":128,"x_max":264,"o":"m 128 0 m 128 0 l 128 700 l 264 700 l 264 0 l 128 0 m 128 843 l 128 996 l 264 996 l 264 843 l 128 843 z "},"ї":{"ha":488,"x_min":13,"x_max":478,"o":"m 13 0 m 176 0 l 176 700 l 313 700 l 313 0 l 176 0 m 343 843 l 343 996 l 478 996 l 478 843 l 343 843 m 13 843 l 13 996 l 149 996 l 149 843 l 13 843 z "},"ј":{"ha":422,"x_min":-31,"x_max":290,"o":"m 0 0 m -31 -235 l -31 -114 l 82 -114 l 156 -56 l 156 700 l 290 700 l 290 -115 l 154 -235 l -31 -235 m 154 843 l 154 996 l 290 996 l 290 843 l 154 843 z "},"љ":{"ha":1596,"x_min":78,"x_max":1485,"o":"m 761 0 l 761 579 l 494 579 l 390 101 l 257 0 l 78 0 l 78 121 l 207 121 l 281 179 l 393 700 l 896 700 l 896 482 l 1314 482 l 1485 342 l 1485 140 l 1326 0 l 761 0 m 1351 292 l 1246 368 l 896 368 l 896 121 l 1253 121 l 1351 199 l 1351 292 z "},"њ":{"ha":1519,"x_min":128,"x_max":1410,"o":"m 685 0 l 685 364 l 264 364 l 264 0 l 128 0 l 128 700 l 264 700 l 264 482 l 685 482 l 685 700 l 821 700 l 821 482 l 1239 482 l 1410 342 l 1410 140 l 1251 0 l 685 0 m 1276 292 l 1171 368 l 821 368 l 821 121 l 1178 121 l 1276 199 l 1276 292 z "},"ћ":{"ha":976,"x_min":-10,"x_max":854,"o":"m 0 0 m 264 826 l 264 608 l 382 700 l 694 700 l 854 557 l 854 0 l 719 0 l 719 499 l 626 574 l 394 574 l 264 481 l 264 0 l 128 0 l 128 826 l -10 826 l -10 929 l 128 929 l 128 965 l 264 965 l 264 929 l 679 929 l 679 826 l 264 826 z "},"ќ":{"ha":938,"x_min":128,"x_max":788,"o":"m 128 0 m 128 0 l 128 700 l 264 700 l 264 392 l 600 700 l 764 700 l 410 382 l 788 0 l 618 0 l 264 354 l 264 0 l 128 0 m 322 764 l 449 1078 l 589 1078 l 432 764 l 322 764 z "},"ѝ":{"ha":983,"x_min":128,"x_max":854,"o":"m 128 0 m 719 0 l 719 490 l 264 0 l 128 0 l 128 700 l 264 700 l 264 211 l 719 700 l 854 700 l 854 0 l 719 0 m 456 764 l 297 1078 l 439 1078 l 574 764 l 456 764 z "},"ў":{"ha":907,"x_min":60,"x_max":847,"o":"m 60 0 m 121 -235 l 121 -114 l 278 -114 l 361 -50 l 382 -3 l 60 700 l 207 700 l 451 149 l 703 700 l 847 700 l 465 -115 l 331 -235 l 121 -235 m 275 779 l 163 888 l 163 1078 l 268 1078 l 268 938 l 328 885 l 576 885 l 638 938 l 638 1078 l 744 1078 l 744 888 l 628 779 l 275 779 z "},"џ":{"ha":947,"x_min":128,"x_max":821,"o":"m 418 -167 l 418 0 l 128 0 l 128 700 l 264 700 l 264 121 l 685 121 l 685 700 l 821 700 l 821 0 l 532 0 l 532 -167 l 418 -167 z "},"Ґ":{"ha":822,"x_min":138,"x_max":742,"o":"m 138 0 l 138 965 l 621 965 l 621 1200 l 742 1200 l 742 836 l 275 836 l 275 0 l 138 0 z "},"ґ":{"ha":731,"x_min":128,"x_max":654,"o":"m 264 579 l 264 0 l 128 0 l 128 700 l 540 700 l 540 868 l 654 868 l 654 579 l 264 579 z "},"Ғ":{"ha":843,"x_min":25,"x_max":763,"o":"m 158 0 l 158 413 l 25 413 l 25 515 l 158 515 l 158 965 l 763 965 l 763 836 l 296 836 l 296 515 l 714 515 l 714 413 l 296 413 l 296 0 l 158 0 z "},"ғ":{"ha":806,"x_min":50,"x_max":714,"o":"m 186 0 l 186 285 l 50 285 l 50 388 l 186 388 l 186 700 l 714 700 l 714 579 l 322 579 l 322 388 l 643 388 l 643 285 l 322 285 l 322 0 l 186 0 z "},"Җ":{"ha":1531,"x_min":79,"x_max":1453,"o":"m 79 0 l 531 524 l 100 965 l 256 965 l 660 547 l 660 965 l 797 965 l 797 547 l 1200 965 l 1357 965 l 928 525 l 1304 129 l 1453 129 l 1453 -235 l 1333 -235 l 1333 0 l 1222 0 l 797 479 l 797 0 l 660 0 l 660 479 l 235 0 l 79 0 z "},"җ":{"ha":1399,"x_min":71,"x_max":1321,"o":"m 71 0 l 449 381 l 96 700 l 261 700 l 594 397 l 594 700 l 731 700 l 731 397 l 1067 700 l 1231 700 l 878 382 l 1169 121 l 1321 121 l 1321 -167 l 1207 -167 l 1207 0 l 1085 0 l 731 346 l 731 0 l 594 0 l 594 346 l 240 0 l 71 0 z "},"Ҙ":{"ha":1008,"x_min":119,"x_max":885,"o":"m 436 -389 l 297 -260 l 592 0 l 299 0 l 119 197 l 119 372 l 251 372 l 251 249 l 371 129 l 626 129 l 751 247 l 751 353 l 660 443 l 421 443 l 421 549 l 657 549 l 744 632 l 744 725 l 621 842 l 376 842 l 251 725 l 251 618 l 119 618 l 119 768 l 308 965 l 690 965 l 879 768 l 879 611 l 772 500 l 885 378 l 885 197 l 458 -215 l 521 -268 l 740 -268 l 740 -389 l 436 -389 z "},"ҙ":{"ha":933,"x_min":114,"x_max":819,"o":"m 411 -389 l 272 -260 l 567 0 l 254 0 l 114 143 l 114 244 l 244 244 l 244 190 l 331 110 l 596 110 l 685 189 l 685 247 l 615 310 l 369 310 l 369 400 l 611 400 l 681 458 l 681 515 l 590 592 l 336 592 l 244 513 l 244 457 l 114 457 l 114 557 l 263 700 l 667 700 l 814 557 l 814 443 l 731 363 l 819 274 l 819 143 l 433 -215 l 496 -268 l 717 -268 l 717 -389 l 411 -389 z "},"Қ":{"ha":1019,"x_min":138,"x_max":942,"o":"m 138 0 l 138 965 l 275 965 l 275 547 l 678 965 l 835 965 l 404 525 l 782 129 l 942 129 l 942 -235 l 821 -235 l 821 0 l 699 0 l 275 479 l 275 0 l 138 0 z "},"қ":{"ha":932,"x_min":128,"x_max":854,"o":"m 128 0 l 128 700 l 264 700 l 264 397 l 600 700 l 764 700 l 410 382 l 703 121 l 854 121 l 854 -167 l 739 -167 l 739 0 l 618 0 l 264 346 l 264 0 l 128 0 z "},"Ҡ":{"ha":1247,"x_min":81,"x_max":1168,"o":"m 450 0 l 450 836 l 81 836 l 81 965 l 588 965 l 588 547 l 992 965 l 1147 965 l 718 525 l 1168 0 l 1013 0 l 588 479 l 588 0 l 450 0 z "},"ҡ":{"ha":1181,"x_min":76,"x_max":1031,"o":"m 369 0 l 369 579 l 76 579 l 76 700 l 506 700 l 506 397 l 842 700 l 1007 700 l 653 382 l 1031 0 l 860 0 l 506 346 l 506 0 l 369 0 z "},"Ң":{"ha":1099,"x_min":138,"x_max":1021,"o":"m 900 -235 l 900 0 l 729 0 l 729 438 l 275 438 l 275 0 l 138 0 l 138 965 l 275 965 l 275 557 l 729 557 l 729 965 l 865 965 l 865 129 l 1021 129 l 1021 -235 l 900 -235 z "},"ң":{"ha":1036,"x_min":128,"x_max":958,"o":"m 843 -167 l 843 0 l 685 0 l 685 296 l 264 296 l 264 0 l 128 0 l 128 700 l 264 700 l 264 415 l 685 415 l 685 700 l 821 700 l 821 121 l 958 121 l 958 -167 l 843 -167 z "},"Ҫ":{"ha":1000,"x_min":124,"x_max":878,"o":"m 436 -389 l 297 -260 l 593 0 l 303 0 l 124 197 l 124 768 l 311 965 l 690 965 l 878 768 l 878 613 l 746 613 l 746 722 l 628 836 l 382 836 l 258 722 l 258 244 l 382 129 l 628 129 l 746 244 l 746 378 l 878 378 l 878 197 l 458 -215 l 521 -268 l 742 -268 l 742 -389 l 436 -389 z "},"ҫ":{"ha":957,"x_min":114,"x_max":831,"o":"m 406 -389 l 267 -260 l 563 0 l 276 0 l 114 142 l 114 557 l 276 700 l 667 700 l 831 557 l 831 414 l 699 414 l 699 499 l 604 574 l 344 574 l 249 499 l 249 200 l 344 126 l 604 126 l 699 200 l 699 285 l 831 285 l 831 142 l 428 -215 l 490 -268 l 711 -268 l 711 -389 l 406 -389 z "},"Ү":{"ha":951,"x_min":60,"x_max":890,"o":"m 60 0 m 414 0 l 414 431 l 60 965 l 210 965 l 479 575 l 739 965 l 890 965 l 550 433 l 550 0 l 414 0 z "},"ү":{"ha":907,"x_min":60,"x_max":847,"o":"m 389 -235 l 389 -28 l 60 700 l 204 700 l 453 164 l 706 700 l 847 700 l 525 -28 l 525 -235 l 389 -235 z "},"Ұ":{"ha":951,"x_min":60,"x_max":890,"o":"m 414 0 l 414 274 l 131 274 l 131 376 l 414 376 l 414 431 l 60 965 l 210 965 l 479 575 l 739 965 l 890 965 l 550 433 l 550 376 l 821 376 l 821 274 l 550 274 l 550 0 l 414 0 z "},"ұ":{"ha":907,"x_min":60,"x_max":847,"o":"m 389 -235 l 389 -51 l 108 -51 l 108 51 l 353 51 l 60 700 l 204 700 l 453 164 l 706 700 l 847 700 l 560 51 l 799 51 l 799 -51 l 525 -51 l 525 -235 l 389 -235 z "},"Ҳ":{"ha":1078,"x_min":78,"x_max":1000,"o":"m 78 0 l 413 508 l 104 965 l 256 965 l 494 636 l 732 965 l 875 965 l 567 497 l 831 129 l 1000 129 l 1000 -235 l 879 -235 l 879 0 l 747 0 l 485 368 l 222 0 l 78 0 z "},"ҳ":{"ha":1075,"x_min":72,"x_max":997,"o":"m 72 0 l 414 369 l 101 700 l 264 700 l 506 468 l 743 700 l 897 700 l 583 360 l 833 121 l 997 121 l 997 -167 l 883 -167 l 883 0 l 761 0 l 490 261 l 226 0 l 72 0 z "},"Ҷ":{"ha":1099,"x_min":138,"x_max":1021,"o":"m 900 -235 l 900 0 l 729 0 l 729 360 l 317 360 l 138 557 l 138 965 l 272 965 l 272 608 l 390 489 l 729 489 l 729 965 l 865 965 l 865 129 l 1021 129 l 1021 -235 l 900 -235 z "},"ҷ":{"ha":1036,"x_min":128,"x_max":958,"o":"m 843 -167 l 843 0 l 685 0 l 685 238 l 307 238 l 128 382 l 128 700 l 264 700 l 264 428 l 376 346 l 685 346 l 685 700 l 821 700 l 821 121 l 958 121 l 958 -167 l 843 -167 z "},"Һ":{"ha":989,"x_min":138,"x_max":865,"o":"m 275 965 l 275 606 l 688 606 l 865 408 l 865 0 l 731 0 l 731 357 l 614 476 l 275 476 l 275 0 l 138 0 l 138 965 l 275 965 z "},"һ":{"ha":976,"x_min":128,"x_max":854,"o":"m 128 0 m 719 0 l 719 499 l 626 574 l 394 574 l 264 481 l 264 0 l 128 0 l 128 965 l 264 965 l 264 608 l 382 700 l 694 700 l 854 557 l 854 0 l 719 0 z "},"Ӏ":{"ha":413,"x_min":138,"x_max":275,"o":"m 138 0 m 138 0 l 138 965 l 275 965 l 275 0 l 138 0 z "},"Ӄ":{"ha":935,"x_min":138,"x_max":856,"o":"m 138 0 l 138 965 l 275 965 l 275 547 l 678 965 l 835 965 l 404 525 l 856 0 l 856 -115 l 719 -235 l 557 -235 l 557 -114 l 647 -114 l 719 -61 l 719 -14 l 275 481 l 275 0 l 138 0 z "},"ӄ":{"ha":938,"x_min":128,"x_max":788,"o":"m 128 0 l 128 700 l 264 700 l 264 397 l 600 700 l 764 700 l 410 382 l 788 0 l 788 -115 l 651 -235 l 490 -235 l 490 -114 l 581 -114 l 651 -60 l 651 -10 l 264 349 l 264 0 l 128 0 z "},"Ӈ":{"ha":1003,"x_min":138,"x_max":865,"o":"m 567 -235 l 567 -114 l 657 -114 l 729 -56 l 729 438 l 275 438 l 275 0 l 138 0 l 138 965 l 275 965 l 275 557 l 729 557 l 729 965 l 865 965 l 865 -115 l 731 -235 l 567 -235 z "},"ӈ":{"ha":947,"x_min":128,"x_max":821,"o":"m 521 -235 l 521 -114 l 611 -114 l 685 -56 l 685 296 l 264 296 l 264 0 l 128 0 l 128 700 l 264 700 l 264 415 l 685 415 l 685 700 l 821 700 l 821 -115 l 685 -235 l 521 -235 z "},"ӏ":{"ha":392,"x_min":128,"x_max":264,"o":"m 128 0 m 128 0 l 128 965 l 264 965 l 264 0 l 128 0 z "},"Ә":{"ha":1004,"x_min":124,"x_max":878,"o":"m 124 0 m 311 0 l 124 197 l 124 504 l 743 504 l 743 721 l 626 836 l 375 836 l 256 721 l 256 599 l 124 599 l 124 768 l 304 965 l 700 965 l 878 768 l 878 197 l 690 0 l 311 0 m 743 401 l 256 401 l 256 247 l 382 129 l 622 129 l 743 247 l 743 401 z "},"ә":{"ha":951,"x_min":115,"x_max":831,"o":"m 115 0 m 246 190 l 340 114 l 603 114 l 699 190 l 699 306 l 246 306 l 246 190 m 668 700 l 831 558 l 831 143 l 668 0 l 276 0 l 115 143 l 115 403 l 699 403 l 699 506 l 603 579 l 124 579 l 124 700 l 668 700 z "},"Ө":{"ha":1004,"x_min":124,"x_max":882,"o":"m 303 0 l 124 197 l 124 768 l 311 965 l 693 965 l 882 768 l 882 197 l 701 0 l 303 0 m 747 244 l 747 439 l 258 439 l 258 244 l 376 129 l 629 129 l 747 244 m 258 553 l 747 553 l 747 722 l 625 836 l 382 836 l 258 722 l 258 553 z "},"ө":{"ha":957,"x_min":114,"x_max":843,"o":"m 276 0 l 114 142 l 114 557 l 276 700 l 681 700 l 843 557 l 843 142 l 681 0 l 276 0 m 706 200 l 706 313 l 249 313 l 249 200 l 344 126 l 613 126 l 706 200 m 249 396 l 706 396 l 706 499 l 613 574 l 344 574 l 249 499 l 249 396 z "},"Ӯ":{"ha":1036,"x_min":60,"x_max":975,"o":"m 60 0 m 115 0 l 115 129 l 349 129 l 432 206 l 435 211 l 60 965 l 201 965 l 508 354 l 826 965 l 975 965 l 544 128 l 411 0 l 115 0 m 171 1078 l 171 1172 l 863 1172 l 863 1078 l 171 1078 z "},"ӯ":{"ha":907,"x_min":60,"x_max":847,"o":"m 60 0 m 121 -235 l 121 -114 l 278 -114 l 361 -50 l 382 -3 l 60 700 l 207 700 l 451 149 l 703 700 l 847 700 l 465 -115 l 331 -235 l 121 -235 m 110 854 l 110 957 l 799 957 l 799 854 l 110 854 z "},"Ԓ":{"ha":1092,"x_min":78,"x_max":954,"o":"m 654 -235 l 654 -114 l 744 -114 l 818 -56 l 818 836 l 558 836 l 418 128 l 286 0 l 78 0 l 78 128 l 218 128 l 297 201 l 446 965 l 954 965 l 954 -115 l 818 -235 l 654 -235 z "},"ԓ":{"ha":1024,"x_min":78,"x_max":896,"o":"m 597 -235 l 597 -114 l 686 -114 l 761 -56 l 761 579 l 494 579 l 390 101 l 257 0 l 78 0 l 78 121 l 207 121 l 281 179 l 393 700 l 896 700 l 896 -115 l 760 -235 l 597 -235 z "},"֏":{"ha":1038,"x_min":78,"x_max":1014,"o":"m 821 261 l 821 0 l 686 0 l 686 261 l 310 261 l 310 332 l 686 332 l 686 467 l 310 467 l 310 536 l 686 536 l 686 718 l 564 836 l 332 836 l 211 718 l 211 593 l 78 593 l 78 768 l 261 965 l 638 965 l 821 768 l 821 536 l 1014 536 l 1014 467 l 821 467 l 821 332 l 1014 332 l 1014 261 l 821 261 z "},"Ḍ":{"ha":971,"x_min":138,"x_max":849,"o":"m 138 0 m 138 0 l 138 965 l 660 965 l 849 768 l 849 197 l 667 0 l 138 0 m 714 244 l 714 722 l 594 836 l 275 836 l 275 129 l 594 129 l 714 244 m 397 -289 l 397 -146 l 533 -146 l 533 -289 l 397 -289 z "},"ḍ":{"ha":971,"x_min":114,"x_max":843,"o":"m 114 0 m 714 0 l 714 92 l 594 0 l 276 0 l 114 142 l 114 557 l 276 700 l 588 700 l 707 608 l 707 965 l 843 965 l 843 0 l 714 0 m 707 219 l 707 481 l 578 574 l 346 574 l 250 499 l 250 200 l 346 126 l 578 126 l 707 219 m 407 -289 l 407 -146 l 543 -146 l 543 -289 l 407 -289 z "},"Ḓ":{"ha":971,"x_min":138,"x_max":849,"o":"m 138 0 m 138 0 l 138 965 l 660 965 l 849 768 l 849 197 l 667 0 l 138 0 m 714 244 l 714 722 l 594 836 l 275 836 l 275 129 l 594 129 l 714 244 m 654 -389 l 467 -193 l 281 -389 l 161 -389 l 389 -111 l 544 -111 l 774 -389 l 654 -389 z "},"ḓ":{"ha":971,"x_min":114,"x_max":843,"o":"m 114 0 m 714 0 l 714 92 l 594 0 l 276 0 l 114 142 l 114 557 l 276 700 l 588 700 l 707 608 l 707 965 l 843 965 l 843 0 l 714 0 m 707 219 l 707 481 l 578 574 l 346 574 l 250 499 l 250 200 l 346 126 l 578 126 l 707 219 m 658 -389 l 471 -193 l 285 -389 l 165 -389 l 393 -111 l 549 -111 l 778 -389 l 658 -389 z "},"Ḥ":{"ha":1003,"x_min":138,"x_max":865,"o":"m 138 0 m 729 0 l 729 438 l 275 438 l 275 0 l 138 0 l 138 965 l 275 965 l 275 557 l 729 557 l 729 965 l 865 965 l 865 0 l 729 0 m 431 -289 l 431 -146 l 567 -146 l 567 -289 l 431 -289 z "},"ḥ":{"ha":976,"x_min":128,"x_max":854,"o":"m 128 0 m 719 0 l 719 499 l 626 574 l 394 574 l 264 481 l 264 0 l 128 0 l 128 965 l 264 965 l 264 608 l 382 700 l 694 700 l 854 557 l 854 0 l 719 0 m 426 -289 l 426 -146 l 563 -146 l 563 -289 l 426 -289 z "},"Ḽ":{"ha":822,"x_min":106,"x_max":742,"o":"m 106 0 m 138 0 l 138 965 l 275 965 l 275 129 l 742 129 l 742 0 l 138 0 m 599 -389 l 411 -193 l 225 -389 l 106 -389 l 333 -111 l 489 -111 l 718 -389 l 599 -389 z "},"ḽ":{"ha":493,"x_min":-60,"x_max":553,"o":"m 0 0 m 178 0 l 178 965 l 314 965 l 314 0 l 178 0 m 433 -389 l 246 -193 l 60 -389 l -60 -389 l 168 -111 l 324 -111 l 553 -389 l 433 -389 z "},"Ṅ":{"ha":1021,"x_min":138,"x_max":882,"o":"m 138 0 m 753 0 l 271 701 l 271 0 l 138 0 l 138 965 l 285 965 l 749 282 l 749 965 l 882 965 l 882 0 l 753 0 m 438 1057 l 438 1200 l 574 1200 l 574 1057 l 438 1057 z "},"ṅ":{"ha":976,"x_min":128,"x_max":854,"o":"m 128 0 m 719 0 l 719 499 l 626 574 l 394 574 l 264 481 l 264 0 l 128 0 l 128 700 l 257 700 l 257 608 l 376 700 l 694 700 l 854 557 l 854 0 l 719 0 m 426 843 l 426 996 l 563 996 l 563 843 l 426 843 z "},"Ṋ":{"ha":1021,"x_min":138,"x_max":882,"o":"m 138 0 m 753 0 l 271 701 l 271 0 l 138 0 l 138 965 l 285 965 l 749 282 l 749 965 l 882 965 l 882 0 l 753 0 m 683 -389 l 496 -193 l 310 -389 l 190 -389 l 418 -111 l 574 -111 l 803 -389 l 683 -389 z "},"ṋ":{"ha":976,"x_min":128,"x_max":854,"o":"m 128 0 m 719 0 l 719 499 l 626 574 l 394 574 l 264 481 l 264 0 l 128 0 l 128 700 l 257 700 l 257 608 l 376 700 l 694 700 l 854 557 l 854 0 l 719 0 m 661 -389 l 474 -193 l 288 -389 l 168 -389 l 396 -111 l 551 -111 l 781 -389 l 661 -389 z "},"Ṛ":{"ha":992,"x_min":138,"x_max":899,"o":"m 138 0 m 753 0 l 583 361 l 275 361 l 275 0 l 138 0 l 138 965 l 682 965 l 871 768 l 871 560 l 708 403 l 899 0 l 753 0 m 738 717 l 613 836 l 275 836 l 275 479 l 604 479 l 738 597 l 738 717 m 417 -289 l 417 -146 l 553 -146 l 553 -289 l 417 -289 z "},"ṛ":{"ha":731,"x_min":128,"x_max":654,"o":"m 128 0 m 128 0 l 128 700 l 257 700 l 257 583 l 421 700 l 654 700 l 654 579 l 433 579 l 264 464 l 264 0 l 128 0 m 129 -289 l 129 -146 l 265 -146 l 265 -289 l 129 -289 z "},"Ṣ":{"ha":1000,"x_min":124,"x_max":878,"o":"m 124 0 m 294 0 l 124 183 l 124 322 l 253 322 l 253 225 l 367 118 l 632 118 l 746 226 l 746 353 l 639 439 l 299 439 l 124 586 l 124 781 l 294 965 l 690 965 l 864 781 l 864 642 l 733 642 l 733 738 l 619 847 l 368 847 l 256 739 l 256 633 l 367 544 l 703 544 l 878 403 l 878 183 l 707 0 l 294 0 m 428 -289 l 428 -146 l 564 -146 l 564 -289 l 428 -289 z "},"ṣ":{"ha":883,"x_min":103,"x_max":782,"o":"m 103 0 m 117 0 l 117 121 l 575 121 l 651 178 l 651 247 l 571 304 l 253 304 l 103 410 l 103 582 l 240 700 l 757 700 l 757 579 l 311 579 l 235 524 l 235 457 l 318 401 l 633 401 l 782 294 l 782 119 l 646 0 l 117 0 m 371 -289 l 371 -146 l 507 -146 l 507 -289 l 371 -289 z "},"Ṭ":{"ha":879,"x_min":78,"x_max":800,"o":"m 78 0 m 371 0 l 371 836 l 78 836 l 78 965 l 800 965 l 800 836 l 508 836 l 508 0 l 371 0 m 371 -289 l 371 -146 l 507 -146 l 507 -289 l 371 -289 z "},"ṭ":{"ha":722,"x_min":75,"x_max":592,"o":"m 75 0 m 333 579 l 333 175 l 408 117 l 592 117 l 592 0 l 336 0 l 197 119 l 197 579 l 75 579 l 75 700 l 197 700 l 197 899 l 333 899 l 333 700 l 592 700 l 592 579 l 333 579 m 319 -289 l 319 -146 l 456 -146 l 456 -289 l 319 -289 z "},"Ẁ":{"ha":1331,"x_min":75,"x_max":1254,"o":"m 75 0 m 869 0 l 661 767 l 457 0 l 261 0 l 75 965 l 211 965 l 367 174 l 575 965 l 751 965 l 964 174 l 1118 965 l 1254 965 l 1065 0 l 869 0 m 631 1000 l 479 1278 l 619 1278 l 750 1000 l 631 1000 z "},"ẁ":{"ha":1315,"x_min":58,"x_max":1257,"o":"m 58 0 m 868 0 l 653 554 l 444 0 l 257 0 l 58 700 l 200 700 l 358 146 l 569 700 l 740 700 l 957 146 l 1118 700 l 1257 700 l 1058 0 l 868 0 m 624 764 l 465 1078 l 607 1078 l 742 764 l 624 764 z "},"Ẃ":{"ha":1331,"x_min":75,"x_max":1254,"o":"m 75 0 m 869 0 l 661 767 l 457 0 l 261 0 l 75 965 l 211 965 l 367 174 l 575 965 l 751 965 l 964 174 l 1118 965 l 1254 965 l 1065 0 l 869 0 m 575 1000 l 708 1278 l 849 1278 l 694 1000 l 575 1000 z "},"ẃ":{"ha":1315,"x_min":58,"x_max":1257,"o":"m 58 0 m 868 0 l 653 554 l 444 0 l 257 0 l 58 700 l 200 700 l 358 146 l 569 700 l 740 700 l 957 146 l 1118 700 l 1257 700 l 1058 0 l 868 0 m 572 764 l 699 1078 l 839 1078 l 682 764 l 572 764 z "},"Ẅ":{"ha":1331,"x_min":75,"x_max":1254,"o":"m 75 0 m 869 0 l 661 767 l 457 0 l 261 0 l 75 965 l 211 965 l 367 174 l 575 965 l 751 965 l 964 174 l 1118 965 l 1254 965 l 1065 0 l 869 0 m 758 1057 l 758 1200 l 893 1200 l 893 1057 l 758 1057 m 431 1057 l 431 1200 l 565 1200 l 565 1057 l 431 1057 z "},"ẅ":{"ha":1315,"x_min":58,"x_max":1257,"o":"m 58 0 m 868 0 l 653 554 l 444 0 l 257 0 l 58 700 l 200 700 l 358 146 l 569 700 l 740 700 l 957 146 l 1118 700 l 1257 700 l 1058 0 l 868 0 m 753 843 l 753 996 l 888 996 l 888 843 l 753 843 m 422 843 l 422 996 l 558 996 l 558 843 l 422 843 z "},"Ẓ":{"ha":911,"x_min":89,"x_max":824,"o":"m 89 0 m 178 0 l 89 107 l 650 836 l 121 836 l 121 965 l 735 965 l 824 858 l 263 129 l 797 129 l 797 0 l 178 0 m 382 -289 l 382 -146 l 518 -146 l 518 -289 l 382 -289 z "},"ẓ":{"ha":849,"x_min":75,"x_max":778,"o":"m 75 0 m 158 0 l 75 89 l 585 579 l 106 579 l 106 700 l 696 700 l 778 611 l 268 121 l 765 121 l 765 0 l 158 0 m 364 -289 l 364 -146 l 500 -146 l 500 -289 l 364 -289 z "},"Ạ":{"ha":924,"x_min":69,"x_max":854,"o":"m 69 0 m 713 0 l 660 171 l 261 171 l 208 0 l 69 0 l 363 965 l 563 965 l 854 0 l 713 0 m 294 279 l 626 279 l 461 821 l 294 279 m 392 -289 l 392 -146 l 528 -146 l 528 -289 l 392 -289 z "},"ạ":{"ha":961,"x_min":104,"x_max":839,"o":"m 104 0 m 708 0 l 708 92 l 593 0 l 225 0 l 104 108 l 104 304 l 218 411 l 697 411 l 697 522 l 624 579 l 168 579 l 168 700 l 701 700 l 839 582 l 839 0 l 708 0 m 697 211 l 697 317 l 297 317 l 239 268 l 239 161 l 303 111 l 565 111 l 697 211 m 408 -289 l 408 -146 l 544 -146 l 544 -289 l 408 -289 z "},"Ả":{"ha":924,"x_min":69,"x_max":854,"o":"m 69 0 m 713 0 l 660 171 l 261 171 l 208 0 l 69 0 l 363 965 l 563 965 l 854 0 l 713 0 m 294 279 l 626 279 l 461 821 l 294 279 m 532 1044 l 503 1021 l 503 988 l 418 988 l 418 1058 l 481 1117 l 547 1117 l 586 1149 l 586 1190 l 544 1226 l 339 1226 l 339 1308 l 590 1308 l 678 1226 l 678 1115 l 604 1044 l 532 1044 z "},"ả":{"ha":961,"x_min":104,"x_max":839,"o":"m 104 0 m 708 0 l 708 92 l 593 0 l 225 0 l 104 108 l 104 304 l 218 411 l 697 411 l 697 522 l 624 579 l 168 579 l 168 700 l 701 700 l 839 582 l 839 0 l 708 0 m 697 211 l 697 317 l 297 317 l 239 268 l 239 161 l 303 111 l 565 111 l 697 211 m 536 832 l 507 808 l 507 775 l 422 775 l 422 846 l 485 904 l 551 904 l 590 936 l 590 978 l 549 1014 l 343 1014 l 343 1096 l 594 1096 l 682 1014 l 682 903 l 608 832 l 536 832 z "},"Ấ":{"ha":924,"x_min":69,"x_max":982,"o":"m 69 0 m 713 0 l 660 171 l 261 171 l 208 0 l 69 0 l 363 965 l 563 965 l 854 0 l 713 0 m 294 279 l 626 279 l 461 821 l 294 279 m 642 1000 l 454 1196 l 268 1000 l 149 1000 l 376 1278 l 532 1278 l 761 1000 l 642 1000 m 708 1107 l 842 1385 l 982 1385 l 828 1107 l 708 1107 z "},"ấ":{"ha":961,"x_min":104,"x_max":911,"o":"m 104 0 m 708 0 l 708 92 l 593 0 l 225 0 l 104 108 l 104 304 l 218 411 l 697 411 l 697 522 l 624 579 l 168 579 l 168 700 l 701 700 l 839 582 l 839 0 l 708 0 m 697 211 l 697 317 l 297 317 l 239 268 l 239 161 l 303 111 l 565 111 l 697 211 m 660 788 l 472 983 l 286 788 l 167 788 l 394 1065 l 550 1065 l 779 788 l 660 788 m 638 1000 l 771 1278 l 911 1278 l 757 1000 l 638 1000 z "},"Ầ":{"ha":924,"x_min":69,"x_max":885,"o":"m 69 0 m 713 0 l 660 171 l 261 171 l 208 0 l 69 0 l 363 965 l 563 965 l 854 0 l 713 0 m 294 279 l 626 279 l 461 821 l 294 279 m 642 1000 l 454 1196 l 268 1000 l 149 1000 l 376 1278 l 532 1278 l 761 1000 l 642 1000 m 765 1107 l 614 1385 l 754 1385 l 885 1107 l 765 1107 z "},"ầ":{"ha":961,"x_min":104,"x_max":839,"o":"m 104 0 m 708 0 l 708 92 l 593 0 l 225 0 l 104 108 l 104 304 l 218 411 l 697 411 l 697 522 l 624 579 l 168 579 l 168 700 l 701 700 l 839 582 l 839 0 l 708 0 m 697 211 l 697 317 l 297 317 l 239 268 l 239 161 l 303 111 l 565 111 l 697 211 m 657 788 l 469 983 l 283 788 l 164 788 l 392 1065 l 547 1065 l 776 788 l 657 788 m 688 1000 l 536 1278 l 676 1278 l 807 1000 l 688 1000 z "},"Ẩ":{"ha":924,"x_min":69,"x_max":982,"o":"m 69 0 m 713 0 l 660 171 l 261 171 l 208 0 l 69 0 l 363 965 l 563 965 l 854 0 l 713 0 m 294 279 l 626 279 l 461 821 l 294 279 m 642 1000 l 454 1196 l 268 1000 l 149 1000 l 376 1278 l 532 1278 l 761 1000 l 642 1000 m 836 1142 l 807 1118 l 807 1085 l 722 1085 l 722 1156 l 785 1214 l 851 1214 l 890 1246 l 890 1288 l 849 1324 l 643 1324 l 643 1406 l 894 1406 l 982 1324 l 982 1213 l 908 1142 l 836 1142 z "},"ẩ":{"ha":961,"x_min":104,"x_max":908,"o":"m 104 0 m 708 0 l 708 92 l 593 0 l 225 0 l 104 108 l 104 304 l 218 411 l 697 411 l 697 522 l 624 579 l 168 579 l 168 700 l 701 700 l 839 582 l 839 0 l 708 0 m 697 211 l 697 317 l 297 317 l 239 268 l 239 161 l 303 111 l 565 111 l 697 211 m 665 788 l 478 983 l 292 788 l 172 788 l 400 1065 l 556 1065 l 785 788 l 665 788 m 763 1044 l 733 1021 l 733 988 l 649 988 l 649 1058 l 711 1117 l 778 1117 l 817 1149 l 817 1190 l 775 1226 l 569 1226 l 569 1308 l 821 1308 l 908 1226 l 908 1115 l 835 1044 l 763 1044 z "},"Ẫ":{"ha":924,"x_min":69,"x_max":854,"o":"m 69 0 m 713 0 l 660 171 l 261 171 l 208 0 l 69 0 l 363 965 l 563 965 l 854 0 l 713 0 m 294 279 l 626 279 l 461 821 l 294 279 m 646 1000 l 458 1196 l 272 1000 l 153 1000 l 381 1278 l 536 1278 l 765 1000 l 646 1000 m 632 1300 l 310 1379 l 193 1310 l 131 1383 l 285 1478 l 606 1397 l 725 1471 l 785 1394 l 632 1300 z "},"ẫ":{"ha":961,"x_min":104,"x_max":839,"o":"m 104 0 m 708 0 l 708 92 l 593 0 l 225 0 l 104 108 l 104 304 l 218 411 l 697 411 l 697 522 l 624 579 l 168 579 l 168 700 l 701 700 l 839 582 l 839 0 l 708 0 m 697 211 l 697 317 l 297 317 l 239 268 l 239 161 l 303 111 l 565 111 l 697 211 m 672 779 l 485 975 l 299 779 l 179 779 l 407 1057 l 563 1057 l 792 779 l 672 779 m 661 1076 l 339 1156 l 222 1086 l 160 1160 l 314 1254 l 635 1174 l 754 1247 l 814 1171 l 661 1076 z "},"Ậ":{"ha":924,"x_min":69,"x_max":854,"o":"m 69 0 m 713 0 l 660 171 l 261 171 l 208 0 l 69 0 l 363 965 l 563 965 l 854 0 l 713 0 m 294 279 l 626 279 l 461 821 l 294 279 m 647 1000 l 460 1196 l 274 1000 l 154 1000 l 382 1278 l 538 1278 l 767 1000 l 647 1000 m 392 -289 l 392 -146 l 528 -146 l 528 -289 l 392 -289 z "},"ậ":{"ha":961,"x_min":104,"x_max":839,"o":"m 104 0 m 708 0 l 708 92 l 593 0 l 225 0 l 104 108 l 104 304 l 218 411 l 697 411 l 697 522 l 624 579 l 168 579 l 168 700 l 701 700 l 839 582 l 839 0 l 708 0 m 697 211 l 697 317 l 297 317 l 239 268 l 239 161 l 303 111 l 565 111 l 697 211 m 667 764 l 479 989 l 292 764 l 172 764 l 401 1078 l 557 1078 l 785 764 l 667 764 m 411 -289 l 411 -146 l 547 -146 l 547 -289 l 411 -289 z "},"Ắ":{"ha":924,"x_min":69,"x_max":854,"o":"m 69 0 m 713 0 l 660 171 l 261 171 l 208 0 l 69 0 l 363 965 l 563 965 l 854 0 l 713 0 m 294 279 l 626 279 l 461 821 l 294 279 m 635 994 l 282 994 l 169 1090 l 169 1264 l 274 1264 l 274 1136 l 332 1092 l 585 1092 l 643 1136 l 643 1264 l 750 1264 l 750 1090 l 635 994 m 401 1214 l 535 1492 l 675 1492 l 521 1214 l 401 1214 z "},"ắ":{"ha":961,"x_min":104,"x_max":839,"o":"m 104 0 m 708 0 l 708 92 l 593 0 l 225 0 l 104 108 l 104 304 l 218 411 l 697 411 l 697 522 l 624 579 l 168 579 l 168 700 l 701 700 l 839 582 l 839 0 l 708 0 m 697 211 l 697 317 l 297 317 l 239 268 l 239 161 l 303 111 l 565 111 l 697 211 m 650 782 l 297 782 l 185 878 l 185 1051 l 289 1051 l 289 924 l 347 879 l 600 879 l 658 924 l 658 1051 l 765 1051 l 765 878 l 650 782 m 407 1024 l 540 1301 l 681 1301 l 526 1024 l 407 1024 z "},"Ằ":{"ha":924,"x_min":69,"x_max":854,"o":"m 69 0 m 713 0 l 660 171 l 261 171 l 208 0 l 69 0 l 363 965 l 563 965 l 854 0 l 713 0 m 294 279 l 626 279 l 461 821 l 294 279 m 635 994 l 282 994 l 169 1090 l 169 1264 l 274 1264 l 274 1136 l 332 1092 l 585 1092 l 643 1136 l 643 1264 l 750 1264 l 750 1090 l 635 994 m 406 1214 l 254 1492 l 394 1492 l 525 1214 l 406 1214 z "},"ằ":{"ha":961,"x_min":104,"x_max":839,"o":"m 104 0 m 708 0 l 708 92 l 593 0 l 225 0 l 104 108 l 104 304 l 218 411 l 697 411 l 697 522 l 624 579 l 168 579 l 168 700 l 701 700 l 839 582 l 839 0 l 708 0 m 697 211 l 697 317 l 297 317 l 239 268 l 239 161 l 303 111 l 565 111 l 697 211 m 650 782 l 297 782 l 185 878 l 185 1051 l 289 1051 l 289 924 l 347 879 l 600 879 l 658 924 l 658 1051 l 765 1051 l 765 878 l 650 782 m 414 1024 l 263 1301 l 403 1301 l 533 1024 l 414 1024 z "},"Ẳ":{"ha":924,"x_min":69,"x_max":854,"o":"m 69 0 m 713 0 l 660 171 l 261 171 l 208 0 l 69 0 l 363 965 l 563 965 l 854 0 l 713 0 m 294 279 l 626 279 l 461 821 l 294 279 m 636 994 l 283 994 l 171 1090 l 171 1264 l 275 1264 l 275 1136 l 333 1092 l 586 1092 l 644 1136 l 644 1264 l 751 1264 l 751 1090 l 636 994 m 489 1231 l 460 1207 l 460 1174 l 375 1174 l 375 1244 l 438 1303 l 504 1303 l 543 1335 l 543 1376 l 501 1413 l 296 1413 l 296 1494 l 547 1494 l 635 1413 l 635 1301 l 561 1231 l 489 1231 z "},"ẳ":{"ha":961,"x_min":104,"x_max":839,"o":"m 104 0 m 708 0 l 708 92 l 593 0 l 225 0 l 104 108 l 104 304 l 218 411 l 697 411 l 697 522 l 624 579 l 168 579 l 168 700 l 701 700 l 839 582 l 839 0 l 708 0 m 697 211 l 697 317 l 297 317 l 239 268 l 239 161 l 303 111 l 565 111 l 697 211 m 656 782 l 303 782 l 190 878 l 190 1051 l 294 1051 l 294 924 l 353 879 l 606 879 l 664 924 l 664 1051 l 771 1051 l 771 878 l 656 782 m 529 1058 l 500 1035 l 500 1001 l 415 1001 l 415 1072 l 478 1131 l 544 1131 l 583 1163 l 583 1204 l 542 1240 l 336 1240 l 336 1322 l 588 1322 l 675 1240 l 675 1129 l 601 1058 l 529 1058 z "},"Ẵ":{"ha":924,"x_min":69,"x_max":854,"o":"m 69 0 m 713 0 l 660 171 l 261 171 l 208 0 l 69 0 l 363 965 l 563 965 l 854 0 l 713 0 m 294 279 l 626 279 l 461 821 l 294 279 m 636 1008 l 283 1008 l 171 1104 l 171 1278 l 275 1278 l 275 1150 l 333 1106 l 586 1106 l 644 1150 l 644 1278 l 751 1278 l 751 1104 l 636 1008 m 636 1328 l 314 1407 l 197 1338 l 135 1411 l 289 1506 l 610 1425 l 729 1499 l 789 1422 l 636 1328 z "},"ẵ":{"ha":961,"x_min":104,"x_max":839,"o":"m 104 0 m 708 0 l 708 92 l 593 0 l 225 0 l 104 108 l 104 304 l 218 411 l 697 411 l 697 522 l 624 579 l 168 579 l 168 700 l 701 700 l 839 582 l 839 0 l 708 0 m 697 211 l 697 317 l 297 317 l 239 268 l 239 161 l 303 111 l 565 111 l 697 211 m 649 782 l 296 782 l 183 878 l 183 1051 l 288 1051 l 288 924 l 346 879 l 599 879 l 657 924 l 657 1051 l 764 1051 l 764 878 l 649 782 m 650 1106 l 328 1185 l 211 1115 l 149 1189 l 303 1283 l 624 1203 l 743 1276 l 803 1200 l 650 1106 z "},"Ặ":{"ha":924,"x_min":69,"x_max":854,"o":"m 69 0 m 713 0 l 660 171 l 261 171 l 208 0 l 69 0 l 363 965 l 563 965 l 854 0 l 713 0 m 294 279 l 626 279 l 461 821 l 294 279 m 635 1008 l 282 1008 l 169 1104 l 169 1278 l 274 1278 l 274 1150 l 332 1106 l 585 1106 l 643 1150 l 643 1278 l 750 1278 l 750 1104 l 635 1008 m 392 -289 l 392 -146 l 528 -146 l 528 -289 l 392 -289 z "},"ặ":{"ha":961,"x_min":104,"x_max":839,"o":"m 104 0 m 708 0 l 708 92 l 593 0 l 225 0 l 104 108 l 104 304 l 218 411 l 697 411 l 697 522 l 624 579 l 168 579 l 168 700 l 701 700 l 839 582 l 839 0 l 708 0 m 697 211 l 697 317 l 297 317 l 239 268 l 239 161 l 303 111 l 565 111 l 697 211 m 300 779 l 188 888 l 188 1078 l 293 1078 l 293 938 l 353 885 l 601 885 l 663 938 l 663 1078 l 769 1078 l 769 888 l 653 779 l 300 779 m 413 -289 l 413 -146 l 549 -146 l 549 -289 l 413 -289 z "},"Ẹ":{"ha":876,"x_min":138,"x_max":772,"o":"m 138 0 m 138 0 l 138 965 l 772 965 l 772 836 l 275 836 l 275 553 l 615 553 l 615 439 l 275 439 l 275 129 l 772 129 l 772 0 l 138 0 m 400 -289 l 400 -146 l 536 -146 l 536 -289 l 400 -289 z "},"ẹ":{"ha":953,"x_min":114,"x_max":831,"o":"m 114 0 m 699 511 l 604 586 l 342 586 l 246 511 l 246 396 l 699 396 l 699 511 m 276 0 l 114 142 l 114 557 l 276 700 l 667 700 l 831 557 l 831 297 l 246 297 l 246 196 l 342 121 l 821 121 l 821 0 l 276 0 m 403 -289 l 403 -146 l 539 -146 l 539 -289 l 403 -289 z "},"Ẻ":{"ha":876,"x_min":138,"x_max":772,"o":"m 138 0 m 138 0 l 138 965 l 772 965 l 772 836 l 275 836 l 275 553 l 615 553 l 615 439 l 275 439 l 275 129 l 772 129 l 772 0 l 138 0 m 504 1044 l 475 1021 l 475 988 l 390 988 l 390 1058 l 453 1117 l 519 1117 l 558 1149 l 558 1190 l 517 1226 l 311 1226 l 311 1308 l 563 1308 l 650 1226 l 650 1115 l 576 1044 l 504 1044 z "},"ẻ":{"ha":953,"x_min":114,"x_max":831,"o":"m 114 0 m 699 511 l 604 586 l 342 586 l 246 511 l 246 396 l 699 396 l 699 511 m 276 0 l 114 142 l 114 557 l 276 700 l 667 700 l 831 557 l 831 297 l 246 297 l 246 196 l 342 121 l 821 121 l 821 0 l 276 0 m 546 832 l 517 808 l 517 775 l 432 775 l 432 846 l 494 904 l 561 904 l 600 936 l 600 978 l 558 1014 l 353 1014 l 353 1096 l 604 1096 l 692 1014 l 692 903 l 618 832 l 546 832 z "},"Ẽ":{"ha":876,"x_min":138,"x_max":793,"o":"m 138 0 m 138 0 l 138 965 l 772 965 l 772 836 l 275 836 l 275 553 l 615 553 l 615 439 l 275 439 l 275 129 l 772 129 l 772 0 l 138 0 m 640 1050 l 318 1129 l 201 1060 l 139 1133 l 293 1228 l 614 1147 l 733 1221 l 793 1144 l 640 1050 z "},"ẽ":{"ha":951,"x_min":114,"x_max":831,"o":"m 114 0 m 699 511 l 604 586 l 342 586 l 246 511 l 246 396 l 699 396 l 699 511 m 276 0 l 114 142 l 114 557 l 276 700 l 667 700 l 831 557 l 831 297 l 246 297 l 246 196 l 342 121 l 821 121 l 821 0 l 276 0 m 651 832 l 332 915 l 214 843 l 151 924 l 306 1024 l 626 939 l 746 1017 l 806 933 l 651 832 z "},"Ế":{"ha":876,"x_min":138,"x_max":985,"o":"m 138 0 m 138 0 l 138 965 l 772 965 l 772 836 l 275 836 l 275 553 l 615 553 l 615 439 l 275 439 l 275 129 l 772 129 l 772 0 l 138 0 m 644 1000 l 457 1196 l 271 1000 l 151 1000 l 379 1278 l 535 1278 l 764 1000 l 644 1000 m 711 1107 l 844 1385 l 985 1385 l 831 1107 l 711 1107 z "},"ế":{"ha":953,"x_min":114,"x_max":910,"o":"m 114 0 m 699 511 l 604 586 l 342 586 l 246 511 l 246 396 l 699 396 l 699 511 m 276 0 l 114 142 l 114 557 l 276 700 l 667 700 l 831 557 l 831 297 l 246 297 l 246 196 l 342 121 l 821 121 l 821 0 l 276 0 m 665 788 l 478 983 l 292 788 l 172 788 l 400 1065 l 556 1065 l 785 788 l 665 788 m 636 1000 l 769 1278 l 910 1278 l 756 1000 l 636 1000 z "},"Ề":{"ha":876,"x_min":138,"x_max":892,"o":"m 138 0 m 138 0 l 138 965 l 772 965 l 772 836 l 275 836 l 275 553 l 615 553 l 615 439 l 275 439 l 275 129 l 772 129 l 772 0 l 138 0 m 647 1000 l 460 1196 l 274 1000 l 154 1000 l 382 1278 l 538 1278 l 767 1000 l 647 1000 m 772 1107 l 621 1385 l 761 1385 l 892 1107 l 772 1107 z "},"ề":{"ha":953,"x_min":114,"x_max":831,"o":"m 114 0 m 699 511 l 604 586 l 342 586 l 246 511 l 246 396 l 699 396 l 699 511 m 276 0 l 114 142 l 114 557 l 276 700 l 667 700 l 831 557 l 831 297 l 246 297 l 246 196 l 342 121 l 821 121 l 821 0 l 276 0 m 657 788 l 469 983 l 283 788 l 164 788 l 392 1065 l 547 1065 l 776 788 l 657 788 m 683 1000 l 532 1278 l 672 1278 l 803 1000 l 683 1000 z "},"Ể":{"ha":876,"x_min":138,"x_max":989,"o":"m 138 0 m 138 0 l 138 965 l 772 965 l 772 836 l 275 836 l 275 553 l 615 553 l 615 439 l 275 439 l 275 129 l 772 129 l 772 0 l 138 0 m 647 1000 l 460 1196 l 274 1000 l 154 1000 l 382 1278 l 538 1278 l 767 1000 l 647 1000 m 843 1142 l 814 1118 l 814 1085 l 729 1085 l 729 1156 l 792 1214 l 858 1214 l 897 1246 l 897 1288 l 856 1324 l 650 1324 l 650 1406 l 901 1406 l 989 1324 l 989 1213 l 915 1142 l 843 1142 z "},"ể":{"ha":953,"x_min":114,"x_max":897,"o":"m 114 0 m 699 511 l 604 586 l 342 586 l 246 511 l 246 396 l 699 396 l 699 511 m 276 0 l 114 142 l 114 557 l 276 700 l 667 700 l 831 557 l 831 297 l 246 297 l 246 196 l 342 121 l 821 121 l 821 0 l 276 0 m 654 788 l 467 983 l 281 788 l 161 788 l 389 1065 l 544 1065 l 774 788 l 654 788 m 751 1044 l 722 1021 l 722 988 l 638 988 l 638 1058 l 700 1117 l 767 1117 l 806 1149 l 806 1190 l 764 1226 l 558 1226 l 558 1308 l 810 1308 l 897 1226 l 897 1115 l 824 1044 l 751 1044 z "},"Ễ":{"ha":876,"x_min":138,"x_max":793,"o":"m 138 0 m 138 0 l 138 965 l 772 965 l 772 836 l 275 836 l 275 553 l 615 553 l 615 439 l 275 439 l 275 129 l 772 129 l 772 0 l 138 0 m 654 1000 l 467 1196 l 281 1000 l 161 1000 l 389 1278 l 544 1278 l 774 1000 l 654 1000 m 640 1328 l 318 1407 l 201 1338 l 139 1411 l 293 1506 l 614 1425 l 733 1499 l 793 1422 l 640 1328 z "},"ễ":{"ha":953,"x_min":114,"x_max":831,"o":"m 114 0 m 699 511 l 604 586 l 342 586 l 246 511 l 246 396 l 699 396 l 699 511 m 276 0 l 114 142 l 114 557 l 276 700 l 667 700 l 831 557 l 831 297 l 246 297 l 246 196 l 342 121 l 821 121 l 821 0 l 276 0 m 674 779 l 486 975 l 300 779 l 181 779 l 408 1057 l 564 1057 l 793 779 l 674 779 m 661 1076 l 339 1156 l 222 1086 l 160 1160 l 314 1254 l 635 1174 l 754 1247 l 814 1171 l 661 1076 z "},"Ệ":{"ha":876,"x_min":138,"x_max":774,"o":"m 138 0 m 138 0 l 138 965 l 772 965 l 772 836 l 275 836 l 275 553 l 615 553 l 615 439 l 275 439 l 275 129 l 772 129 l 772 0 l 138 0 m 654 1000 l 467 1196 l 281 1000 l 161 1000 l 389 1278 l 544 1278 l 774 1000 l 654 1000 m 397 -289 l 397 -146 l 533 -146 l 533 -289 l 397 -289 z "},"ệ":{"ha":953,"x_min":114,"x_max":831,"o":"m 114 0 m 699 511 l 604 586 l 342 586 l 246 511 l 246 396 l 699 396 l 699 511 m 276 0 l 114 142 l 114 557 l 276 700 l 667 700 l 831 557 l 831 297 l 246 297 l 246 196 l 342 121 l 821 121 l 821 0 l 276 0 m 664 764 l 476 989 l 289 764 l 169 764 l 399 1078 l 554 1078 l 782 764 l 664 764 m 407 -289 l 407 -146 l 543 -146 l 543 -289 l 407 -289 z "},"Ỉ":{"ha":411,"x_min":83,"x_max":422,"o":"m 83 0 m 138 0 l 138 965 l 275 965 l 275 0 l 138 0 m 276 1044 l 247 1021 l 247 988 l 163 988 l 163 1058 l 225 1117 l 292 1117 l 331 1149 l 331 1190 l 289 1226 l 83 1226 l 83 1308 l 335 1308 l 422 1226 l 422 1115 l 349 1044 l 276 1044 z "},"ỉ":{"ha":415,"x_min":76,"x_max":415,"o":"m 76 0 m 128 0 l 128 700 l 264 700 l 264 0 l 128 0 m 269 832 l 240 808 l 240 775 l 156 775 l 156 846 l 218 904 l 285 904 l 324 936 l 324 978 l 282 1014 l 76 1014 l 76 1096 l 328 1096 l 415 1014 l 415 903 l 342 832 l 269 832 z "},"Ị":{"ha":413,"x_min":138,"x_max":275,"o":"m 138 0 m 138 0 l 138 965 l 275 965 l 275 0 l 138 0 m 138 -289 l 138 -146 l 274 -146 l 274 -289 l 138 -289 z "},"ị":{"ha":392,"x_min":128,"x_max":264,"o":"m 128 0 m 128 0 l 128 700 l 264 700 l 264 0 l 128 0 m 128 843 l 128 996 l 264 996 l 264 843 l 128 843 m 128 -289 l 128 -146 l 264 -146 l 264 -289 l 128 -289 z "},"Ọ":{"ha":1004,"x_min":124,"x_max":882,"o":"m 124 0 m 303 0 l 124 197 l 124 768 l 311 965 l 693 965 l 882 768 l 882 197 l 701 0 l 303 0 m 747 244 l 747 722 l 625 836 l 382 836 l 258 722 l 258 244 l 376 129 l 629 129 l 747 244 m 433 -289 l 433 -146 l 569 -146 l 569 -289 l 433 -289 z "},"ọ":{"ha":957,"x_min":114,"x_max":843,"o":"m 114 0 m 276 0 l 114 142 l 114 557 l 276 700 l 681 700 l 843 557 l 843 142 l 681 0 l 276 0 m 706 200 l 706 499 l 613 574 l 344 574 l 249 499 l 249 200 l 344 126 l 613 126 l 706 200 m 410 -289 l 410 -146 l 546 -146 l 546 -289 l 410 -289 z "},"Ỏ":{"ha":1004,"x_min":124,"x_max":882,"o":"m 124 0 m 303 0 l 124 197 l 124 768 l 311 965 l 693 965 l 882 768 l 882 197 l 701 0 l 303 0 m 747 244 l 747 722 l 625 836 l 382 836 l 258 722 l 258 244 l 376 129 l 629 129 l 747 244 m 576 1044 l 547 1021 l 547 988 l 463 988 l 463 1058 l 525 1117 l 592 1117 l 631 1149 l 631 1190 l 589 1226 l 383 1226 l 383 1308 l 635 1308 l 722 1226 l 722 1115 l 649 1044 l 576 1044 z "},"ỏ":{"ha":957,"x_min":114,"x_max":843,"o":"m 114 0 m 276 0 l 114 142 l 114 557 l 276 700 l 681 700 l 843 557 l 843 142 l 681 0 l 276 0 m 706 200 l 706 499 l 613 574 l 344 574 l 249 499 l 249 200 l 344 126 l 613 126 l 706 200 m 554 832 l 525 808 l 525 775 l 440 775 l 440 846 l 503 904 l 569 904 l 608 936 l 608 978 l 567 1014 l 361 1014 l 361 1096 l 613 1096 l 700 1014 l 700 903 l 626 832 l 554 832 z "},"Ố":{"ha":1004,"x_min":124,"x_max":1026,"o":"m 124 0 m 303 0 l 124 197 l 124 768 l 311 965 l 693 965 l 882 768 l 882 197 l 701 0 l 303 0 m 747 244 l 747 722 l 625 836 l 382 836 l 258 722 l 258 244 l 376 129 l 629 129 l 747 244 m 689 1000 l 501 1196 l 315 1000 l 196 1000 l 424 1278 l 579 1278 l 808 1000 l 689 1000 m 753 1107 l 886 1385 l 1026 1385 l 872 1107 l 753 1107 z "},"ố":{"ha":957,"x_min":114,"x_max":911,"o":"m 114 0 m 276 0 l 114 142 l 114 557 l 276 700 l 681 700 l 843 557 l 843 142 l 681 0 l 276 0 m 706 200 l 706 499 l 613 574 l 344 574 l 249 499 l 249 200 l 344 126 l 613 126 l 706 200 m 665 788 l 478 983 l 292 788 l 172 788 l 400 1065 l 556 1065 l 785 788 l 665 788 m 638 1000 l 771 1278 l 911 1278 l 757 1000 l 638 1000 z "},"Ồ":{"ha":1004,"x_min":124,"x_max":938,"o":"m 124 0 m 303 0 l 124 197 l 124 768 l 311 965 l 693 965 l 882 768 l 882 197 l 701 0 l 303 0 m 747 244 l 747 722 l 625 836 l 382 836 l 258 722 l 258 244 l 376 129 l 629 129 l 747 244 m 688 1000 l 500 1196 l 314 1000 l 194 1000 l 422 1278 l 578 1278 l 807 1000 l 688 1000 m 818 1107 l 667 1385 l 807 1385 l 938 1107 l 818 1107 z "},"ồ":{"ha":957,"x_min":114,"x_max":843,"o":"m 114 0 m 276 0 l 114 142 l 114 557 l 276 700 l 681 700 l 843 557 l 843 142 l 681 0 l 276 0 m 706 200 l 706 499 l 613 574 l 344 574 l 249 499 l 249 200 l 344 126 l 613 126 l 706 200 m 663 788 l 475 983 l 289 788 l 169 788 l 397 1065 l 553 1065 l 782 788 l 663 788 m 697 1000 l 546 1278 l 686 1278 l 817 1000 l 697 1000 z "},"Ổ":{"ha":1004,"x_min":124,"x_max":1024,"o":"m 124 0 m 303 0 l 124 197 l 124 768 l 311 965 l 693 965 l 882 768 l 882 197 l 701 0 l 303 0 m 747 244 l 747 722 l 625 836 l 382 836 l 258 722 l 258 244 l 376 129 l 629 129 l 747 244 m 688 1000 l 500 1196 l 314 1000 l 194 1000 l 422 1278 l 578 1278 l 807 1000 l 688 1000 m 878 1142 l 849 1118 l 849 1085 l 764 1085 l 764 1156 l 826 1214 l 893 1214 l 932 1246 l 932 1288 l 890 1324 l 685 1324 l 685 1406 l 936 1406 l 1024 1324 l 1024 1213 l 950 1142 l 878 1142 z "},"ổ":{"ha":957,"x_min":114,"x_max":908,"o":"m 114 0 m 276 0 l 114 142 l 114 557 l 276 700 l 681 700 l 843 557 l 843 142 l 681 0 l 276 0 m 706 200 l 706 499 l 613 574 l 344 574 l 249 499 l 249 200 l 344 126 l 613 126 l 706 200 m 664 788 l 476 983 l 290 788 l 171 788 l 399 1065 l 554 1065 l 783 788 l 664 788 m 763 1044 l 733 1021 l 733 988 l 649 988 l 649 1058 l 711 1117 l 778 1117 l 817 1149 l 817 1190 l 775 1226 l 569 1226 l 569 1308 l 821 1308 l 908 1226 l 908 1115 l 835 1044 l 763 1044 z "},"Ỗ":{"ha":1004,"x_min":124,"x_max":882,"o":"m 124 0 m 303 0 l 124 197 l 124 768 l 311 965 l 693 965 l 882 768 l 882 197 l 701 0 l 303 0 m 747 244 l 747 722 l 625 836 l 382 836 l 258 722 l 258 244 l 376 129 l 629 129 l 747 244 m 696 1000 l 508 1196 l 322 1000 l 203 1000 l 431 1278 l 586 1278 l 815 1000 l 696 1000 m 686 1300 l 364 1379 l 247 1310 l 185 1383 l 339 1478 l 660 1397 l 779 1471 l 839 1394 l 686 1300 z "},"ỗ":{"ha":957,"x_min":114,"x_max":843,"o":"m 114 0 m 276 0 l 114 142 l 114 557 l 276 700 l 681 700 l 843 557 l 843 142 l 681 0 l 276 0 m 706 200 l 706 499 l 613 574 l 344 574 l 249 499 l 249 200 l 344 126 l 613 126 l 706 200 m 664 779 l 476 975 l 290 779 l 171 779 l 399 1057 l 554 1057 l 783 779 l 664 779 m 651 1076 l 329 1156 l 213 1086 l 150 1160 l 304 1254 l 625 1174 l 744 1247 l 804 1171 l 651 1076 z "},"Ộ":{"ha":1004,"x_min":124,"x_max":882,"o":"m 124 0 m 303 0 l 124 197 l 124 768 l 311 965 l 693 965 l 882 768 l 882 197 l 701 0 l 303 0 m 747 244 l 747 722 l 625 836 l 382 836 l 258 722 l 258 244 l 376 129 l 629 129 l 747 244 m 688 1000 l 500 1196 l 314 1000 l 194 1000 l 422 1278 l 578 1278 l 807 1000 l 688 1000 m 432 -289 l 432 -146 l 568 -146 l 568 -289 l 432 -289 z "},"ộ":{"ha":957,"x_min":114,"x_max":843,"o":"m 114 0 m 276 0 l 114 142 l 114 557 l 276 700 l 681 700 l 843 557 l 843 142 l 681 0 l 276 0 m 706 200 l 706 499 l 613 574 l 344 574 l 249 499 l 249 200 l 344 126 l 613 126 l 706 200 m 665 764 l 478 989 l 290 764 l 171 764 l 400 1078 l 556 1078 l 783 764 l 665 764 m 411 -289 l 411 -146 l 547 -146 l 547 -289 l 411 -289 z "},"Ớ":{"ha":1032,"x_min":124,"x_max":1032,"o":"m 124 0 m 769 881 l 882 768 l 882 197 l 701 0 l 303 0 l 124 197 l 124 768 l 311 965 l 858 965 l 919 1021 l 919 1190 l 1032 1190 l 1032 992 l 913 881 l 769 881 m 747 244 l 747 722 l 629 836 l 382 836 l 258 722 l 258 244 l 382 129 l 629 129 l 747 244 m 415 1000 l 549 1278 l 689 1278 l 535 1000 l 415 1000 z "},"ớ":{"ha":1046,"x_min":114,"x_max":1046,"o":"m 114 0 m 769 615 l 843 557 l 843 142 l 681 0 l 276 0 l 114 142 l 114 557 l 276 700 l 872 700 l 933 756 l 933 925 l 1046 925 l 1046 726 l 928 615 l 769 615 m 706 200 l 706 499 l 613 574 l 344 574 l 249 499 l 249 200 l 344 126 l 613 126 l 706 200 m 389 764 l 515 1078 l 656 1078 l 499 764 l 389 764 z "},"Ờ":{"ha":1032,"x_min":124,"x_max":1032,"o":"m 124 0 m 769 881 l 882 768 l 882 197 l 701 0 l 303 0 l 124 197 l 124 768 l 311 965 l 858 965 l 919 1021 l 919 1190 l 1032 1190 l 1032 992 l 913 881 l 769 881 m 747 244 l 747 722 l 629 836 l 382 836 l 258 722 l 258 244 l 382 129 l 629 129 l 747 244 m 474 1000 l 322 1278 l 463 1278 l 593 1000 l 474 1000 z "},"ờ":{"ha":1046,"x_min":114,"x_max":1046,"o":"m 114 0 m 769 615 l 843 557 l 843 142 l 681 0 l 276 0 l 114 142 l 114 557 l 276 700 l 872 700 l 933 756 l 933 925 l 1046 925 l 1046 726 l 928 615 l 769 615 m 706 200 l 706 499 l 613 574 l 344 574 l 249 499 l 249 200 l 344 126 l 613 126 l 706 200 m 453 764 l 294 1078 l 436 1078 l 571 764 l 453 764 z "},"Ở":{"ha":1032,"x_min":124,"x_max":1032,"o":"m 124 0 m 769 881 l 882 768 l 882 197 l 701 0 l 303 0 l 124 197 l 124 768 l 311 965 l 858 965 l 919 1021 l 919 1190 l 1032 1190 l 1032 992 l 913 881 l 769 881 m 747 244 l 747 722 l 629 836 l 382 836 l 258 722 l 258 244 l 382 129 l 629 129 l 747 244 m 575 1044 l 546 1021 l 546 988 l 461 988 l 461 1058 l 524 1117 l 590 1117 l 629 1149 l 629 1190 l 588 1226 l 382 1226 l 382 1308 l 633 1308 l 721 1226 l 721 1115 l 647 1044 l 575 1044 z "},"ở":{"ha":1046,"x_min":114,"x_max":1046,"o":"m 114 0 m 769 615 l 843 557 l 843 142 l 681 0 l 276 0 l 114 142 l 114 557 l 276 700 l 872 700 l 933 756 l 933 925 l 1046 925 l 1046 726 l 928 615 l 769 615 m 706 200 l 706 499 l 613 574 l 344 574 l 249 499 l 249 200 l 344 126 l 613 126 l 706 200 m 550 832 l 521 808 l 521 775 l 436 775 l 436 846 l 499 904 l 565 904 l 604 936 l 604 978 l 563 1014 l 357 1014 l 357 1096 l 608 1096 l 696 1014 l 696 903 l 622 832 l 550 832 z "},"Ỡ":{"ha":1032,"x_min":124,"x_max":1032,"o":"m 124 0 m 769 881 l 882 768 l 882 197 l 701 0 l 303 0 l 124 197 l 124 768 l 311 965 l 858 965 l 919 1021 l 919 1190 l 1032 1190 l 1032 992 l 913 881 l 769 881 m 747 244 l 747 722 l 629 836 l 382 836 l 258 722 l 258 244 l 382 129 l 629 129 l 747 244 m 669 1050 l 347 1129 l 231 1060 l 168 1133 l 322 1228 l 643 1147 l 763 1221 l 822 1144 l 669 1050 z "},"ỡ":{"ha":1046,"x_min":114,"x_max":1046,"o":"m 114 0 m 769 615 l 843 557 l 843 142 l 681 0 l 276 0 l 114 142 l 114 557 l 276 700 l 872 700 l 933 756 l 933 925 l 1046 925 l 1046 726 l 928 615 l 769 615 m 706 200 l 706 499 l 613 574 l 344 574 l 249 499 l 249 200 l 344 126 l 613 126 l 706 200 m 651 832 l 332 915 l 214 843 l 151 924 l 306 1024 l 626 939 l 746 1017 l 806 933 l 651 832 z "},"Ợ":{"ha":1032,"x_min":124,"x_max":1032,"o":"m 124 0 m 769 881 l 882 768 l 882 197 l 701 0 l 303 0 l 124 197 l 124 768 l 311 965 l 858 965 l 919 1021 l 919 1190 l 1032 1190 l 1032 992 l 913 881 l 769 881 m 747 244 l 747 722 l 629 836 l 382 836 l 258 722 l 258 244 l 382 129 l 629 129 l 747 244 m 440 -289 l 440 -146 l 576 -146 l 576 -289 l 440 -289 z "},"ợ":{"ha":1046,"x_min":114,"x_max":1046,"o":"m 114 0 m 769 615 l 843 557 l 843 142 l 681 0 l 276 0 l 114 142 l 114 557 l 276 700 l 872 700 l 933 756 l 933 925 l 1046 925 l 1046 726 l 928 615 l 769 615 m 706 200 l 706 499 l 613 574 l 344 574 l 249 499 l 249 200 l 344 126 l 613 126 l 706 200 m 413 -289 l 413 -146 l 549 -146 l 549 -289 l 413 -289 z "},"Ụ":{"ha":1003,"x_min":129,"x_max":874,"o":"m 129 0 m 293 0 l 129 178 l 129 965 l 264 965 l 264 238 l 369 132 l 635 132 l 740 238 l 740 965 l 874 965 l 874 178 l 711 0 l 293 0 m 438 -289 l 438 -146 l 574 -146 l 574 -289 l 438 -289 z "},"ụ":{"ha":976,"x_min":122,"x_max":849,"o":"m 122 0 m 719 0 l 719 100 l 594 0 l 285 0 l 122 142 l 122 700 l 257 700 l 257 200 l 353 126 l 578 126 l 713 228 l 713 700 l 849 700 l 849 0 l 719 0 m 415 -289 l 415 -146 l 551 -146 l 551 -289 l 415 -289 z "},"Ủ":{"ha":1003,"x_min":129,"x_max":874,"o":"m 129 0 m 293 0 l 129 178 l 129 965 l 264 965 l 264 238 l 369 132 l 635 132 l 740 238 l 740 965 l 874 965 l 874 178 l 711 0 l 293 0 m 579 1044 l 550 1021 l 550 988 l 465 988 l 465 1058 l 528 1117 l 594 1117 l 633 1149 l 633 1190 l 592 1226 l 386 1226 l 386 1308 l 638 1308 l 725 1226 l 725 1115 l 651 1044 l 579 1044 z "},"ủ":{"ha":976,"x_min":122,"x_max":849,"o":"m 122 0 m 719 0 l 719 100 l 594 0 l 285 0 l 122 142 l 122 700 l 257 700 l 257 200 l 353 126 l 578 126 l 713 228 l 713 700 l 849 700 l 849 0 l 719 0 m 553 832 l 524 808 l 524 775 l 439 775 l 439 846 l 501 904 l 568 904 l 607 936 l 607 978 l 565 1014 l 360 1014 l 360 1096 l 611 1096 l 699 1014 l 699 903 l 625 832 l 553 832 z "},"Ứ":{"ha":1132,"x_min":129,"x_max":1132,"o":"m 129 0 m 293 0 l 129 178 l 129 965 l 264 965 l 264 238 l 368 132 l 636 132 l 740 238 l 740 965 l 957 965 l 1018 1021 l 1018 1190 l 1132 1190 l 1132 992 l 1013 881 l 874 881 l 874 178 l 711 0 l 293 0 m 419 1000 l 553 1278 l 693 1278 l 539 1000 l 419 1000 z "},"ứ":{"ha":1108,"x_min":122,"x_max":1108,"o":"m 122 0 m 719 0 l 719 100 l 594 0 l 285 0 l 122 142 l 122 700 l 257 700 l 257 200 l 353 126 l 578 126 l 713 228 l 713 700 l 933 700 l 994 756 l 994 925 l 1108 925 l 1108 726 l 989 615 l 849 615 l 849 0 l 719 0 m 397 764 l 524 1078 l 664 1078 l 507 764 l 397 764 z "},"Ừ":{"ha":1132,"x_min":129,"x_max":1132,"o":"m 129 0 m 293 0 l 129 178 l 129 965 l 264 965 l 264 238 l 368 132 l 636 132 l 740 238 l 740 965 l 957 965 l 1018 1021 l 1018 1190 l 1132 1190 l 1132 992 l 1013 881 l 874 881 l 874 178 l 711 0 l 293 0 m 472 1000 l 321 1278 l 461 1278 l 592 1000 l 472 1000 z "},"ừ":{"ha":1108,"x_min":122,"x_max":1108,"o":"m 122 0 m 719 0 l 719 100 l 594 0 l 285 0 l 122 142 l 122 700 l 257 700 l 257 200 l 353 126 l 578 126 l 713 228 l 713 700 l 933 700 l 994 756 l 994 925 l 1108 925 l 1108 726 l 989 615 l 849 615 l 849 0 l 719 0 m 450 764 l 292 1078 l 433 1078 l 568 764 l 450 764 z "},"Ử":{"ha":1132,"x_min":129,"x_max":1132,"o":"m 129 0 m 293 0 l 129 178 l 129 965 l 264 965 l 264 238 l 368 132 l 636 132 l 740 238 l 740 965 l 957 965 l 1018 1021 l 1018 1190 l 1132 1190 l 1132 992 l 1013 881 l 874 881 l 874 178 l 711 0 l 293 0 m 571 1044 l 542 1021 l 542 988 l 457 988 l 457 1058 l 519 1117 l 586 1117 l 625 1149 l 625 1190 l 583 1226 l 378 1226 l 378 1308 l 629 1308 l 717 1226 l 717 1115 l 643 1044 l 571 1044 z "},"ử":{"ha":1108,"x_min":122,"x_max":1108,"o":"m 122 0 m 719 0 l 719 100 l 594 0 l 285 0 l 122 142 l 122 700 l 257 700 l 257 200 l 353 126 l 578 126 l 713 228 l 713 700 l 933 700 l 994 756 l 994 925 l 1108 925 l 1108 726 l 989 615 l 849 615 l 849 0 l 719 0 m 553 832 l 524 808 l 524 775 l 439 775 l 439 846 l 501 904 l 568 904 l 607 936 l 607 978 l 565 1014 l 360 1014 l 360 1096 l 611 1096 l 699 1014 l 699 903 l 625 832 l 553 832 z "},"Ữ":{"ha":1132,"x_min":129,"x_max":1132,"o":"m 129 0 m 293 0 l 129 178 l 129 965 l 264 965 l 264 238 l 368 132 l 636 132 l 740 238 l 740 965 l 957 965 l 1018 1021 l 1018 1190 l 1132 1190 l 1132 992 l 1013 881 l 874 881 l 874 178 l 711 0 l 293 0 m 681 1050 l 358 1129 l 242 1060 l 179 1133 l 333 1228 l 654 1147 l 774 1221 l 833 1144 l 681 1050 z "},"ữ":{"ha":1108,"x_min":122,"x_max":1108,"o":"m 122 0 m 719 0 l 719 100 l 594 0 l 285 0 l 122 142 l 122 700 l 257 700 l 257 200 l 353 126 l 578 126 l 713 228 l 713 700 l 933 700 l 994 756 l 994 925 l 1108 925 l 1108 726 l 989 615 l 849 615 l 849 0 l 719 0 m 660 832 l 340 915 l 222 843 l 160 924 l 314 1024 l 635 939 l 754 1017 l 814 933 l 660 832 z "},"Ự":{"ha":1132,"x_min":129,"x_max":1132,"o":"m 129 0 m 293 0 l 129 178 l 129 965 l 264 965 l 264 238 l 368 132 l 636 132 l 740 238 l 740 965 l 957 965 l 1018 1021 l 1018 1190 l 1132 1190 l 1132 992 l 1013 881 l 874 881 l 874 178 l 711 0 l 293 0 m 439 -289 l 439 -146 l 575 -146 l 575 -289 l 439 -289 z "},"ự":{"ha":1108,"x_min":122,"x_max":1108,"o":"m 122 0 m 719 0 l 719 100 l 594 0 l 285 0 l 122 142 l 122 700 l 257 700 l 257 200 l 353 126 l 578 126 l 713 228 l 713 700 l 933 700 l 994 756 l 994 925 l 1108 925 l 1108 726 l 989 615 l 849 615 l 849 0 l 719 0 m 417 -289 l 417 -146 l 553 -146 l 553 -289 l 417 -289 z "},"Ỳ":{"ha":951,"x_min":60,"x_max":890,"o":"m 60 0 m 414 0 l 414 431 l 60 965 l 210 965 l 479 575 l 739 965 l 890 965 l 550 433 l 550 0 l 414 0 m 446 1000 l 294 1278 l 435 1278 l 565 1000 l 446 1000 z "},"ỳ":{"ha":907,"x_min":60,"x_max":847,"o":"m 60 0 m 121 -235 l 121 -114 l 278 -114 l 361 -50 l 382 -3 l 60 700 l 207 700 l 451 149 l 703 700 l 847 700 l 465 -115 l 331 -235 l 121 -235 m 424 764 l 265 1078 l 407 1078 l 542 764 l 424 764 z "},"Ỷ":{"ha":951,"x_min":60,"x_max":890,"o":"m 60 0 m 414 0 l 414 431 l 60 965 l 210 965 l 479 575 l 739 965 l 890 965 l 550 433 l 550 0 l 414 0 m 549 1044 l 519 1021 l 519 988 l 435 988 l 435 1058 l 497 1117 l 564 1117 l 603 1149 l 603 1190 l 561 1226 l 356 1226 l 356 1308 l 607 1308 l 694 1226 l 694 1115 l 621 1044 l 549 1044 z "},"ỷ":{"ha":907,"x_min":60,"x_max":847,"o":"m 60 0 m 121 -235 l 121 -114 l 278 -114 l 361 -50 l 382 -3 l 60 700 l 207 700 l 451 149 l 703 700 l 847 700 l 465 -115 l 331 -235 l 121 -235 m 515 832 l 486 808 l 486 775 l 401 775 l 401 846 l 464 904 l 531 904 l 569 936 l 569 978 l 528 1014 l 322 1014 l 322 1096 l 574 1096 l 661 1014 l 661 903 l 588 832 l 515 832 z "},"–":{"ha":1051,"x_min":75,"x_max":976,"o":"m 75 385 l 75 506 l 976 506 l 976 385 l 75 385 z "},"—":{"ha":1443,"x_min":75,"x_max":1371,"o":"m 75 385 l 75 506 l 1371 506 l 1371 385 l 75 385 z "},"‘":{"ha":392,"x_min":128,"x_max":264,"o":"m 128 644 l 128 789 l 181 965 l 251 965 l 218 797 l 264 797 l 264 644 l 128 644 z "},"’":{"ha":392,"x_min":128,"x_max":264,"o":"m 128 644 m 146 644 l 172 813 l 128 813 l 128 965 l 264 965 l 264 822 l 217 644 l 146 644 z "},"‚":{"ha":392,"x_min":128,"x_max":264,"o":"m 128 0 m 146 -168 l 172 0 l 128 0 l 128 153 l 264 153 l 264 10 l 217 -168 l 146 -168 z "},"“":{"ha":656,"x_min":128,"x_max":528,"o":"m 128 644 m 128 644 l 128 789 l 181 965 l 251 965 l 218 797 l 264 797 l 264 644 l 128 644 m 392 644 l 392 789 l 444 965 l 515 965 l 482 797 l 528 797 l 528 644 l 392 644 z "},"”":{"ha":656,"x_min":128,"x_max":528,"o":"m 128 644 m 146 644 l 172 813 l 128 813 l 128 965 l 264 965 l 264 822 l 217 644 l 146 644 m 410 644 l 436 813 l 392 813 l 392 965 l 528 965 l 528 822 l 481 644 l 410 644 z "},"„":{"ha":656,"x_min":128,"x_max":528,"o":"m 128 0 m 146 -168 l 172 0 l 128 0 l 128 153 l 264 153 l 264 10 l 217 -168 l 146 -168 m 410 -168 l 436 0 l 392 0 l 392 153 l 528 153 l 528 10 l 481 -168 l 410 -168 z "},"†":{"ha":1051,"x_min":181,"x_max":872,"o":"m 475 -139 l 475 601 l 181 601 l 181 692 l 475 692 l 475 965 l 575 965 l 575 692 l 872 692 l 872 601 l 575 601 l 575 -139 l 475 -139 z "},"‡":{"ha":1051,"x_min":181,"x_max":872,"o":"m 475 -139 l 475 133 l 181 133 l 181 225 l 475 225 l 475 601 l 181 601 l 181 693 l 475 693 l 475 965 l 575 965 l 575 693 l 872 693 l 872 601 l 575 601 l 575 225 l 872 225 l 872 133 l 575 133 l 575 -139 l 475 -139 z "},"•":{"ha":582,"x_min":146,"x_max":436,"o":"m 207 340 l 146 401 l 146 558 l 207 618 l 374 618 l 436 558 l 436 401 l 375 340 l 207 340 z "},"…":{"ha":1072,"x_min":153,"x_max":919,"o":"m 153 0 m 153 0 l 153 153 l 289 153 l 289 0 l 153 0 m 469 0 l 469 153 l 606 153 l 606 0 l 469 0 m 783 0 l 783 153 l 919 153 l 919 0 l 783 0 z "},"‰":{"ha":1328,"x_min":0,"x_max":1326,"o":"m 0 0 m 101 518 l 0 626 l 0 940 l 106 1049 l 315 1049 l 418 940 l 418 626 l 321 518 l 101 518 m 325 658 l 325 914 l 265 968 l 154 968 l 94 914 l 94 658 l 151 603 l 268 603 l 325 658 m 57 0 l 686 965 l 804 965 l 171 0 l 57 0 m 540 -83 l 439 25 l 439 339 l 544 447 l 754 447 l 857 339 l 857 25 l 760 -83 l 540 -83 m 764 57 l 764 313 l 704 367 l 593 367 l 533 313 l 533 57 l 590 1 l 707 1 l 764 57 m 1010 -83 l 908 25 l 908 339 l 1014 447 l 1224 447 l 1326 339 l 1326 25 l 1229 -83 l 1010 -83 m 1233 57 l 1233 313 l 1174 367 l 1063 367 l 1003 313 l 1003 57 l 1060 1 l 1176 1 l 1233 57 z "},"‹":{"ha":426,"x_min":69,"x_max":357,"o":"m 242 0 l 69 350 l 242 700 l 357 700 l 186 350 l 357 0 l 242 0 z "},"›":{"ha":429,"x_min":69,"x_max":360,"o":"m 69 0 l 240 350 l 69 700 l 183 700 l 360 350 l 183 0 l 69 0 z "},"⁄":{"ha":275,"x_min":-235,"x_max":513,"o":"m -235 0 l 394 965 l 513 965 l -121 0 l -235 0 z "},"⁰":{"ha":642,"x_min":111,"x_max":529,"o":"m 111 435 m 213 435 l 111 543 l 111 857 l 217 965 l 426 965 l 529 857 l 529 543 l 432 435 l 213 435 m 436 575 l 436 831 l 376 885 l 265 885 l 206 831 l 206 575 l 263 519 l 379 519 l 436 575 z "},"⁴":{"ha":628,"x_min":92,"x_max":549,"o":"m 92 435 m 383 435 l 383 556 l 92 556 l 92 633 l 383 965 l 478 965 l 478 633 l 549 633 l 549 556 l 478 556 l 478 435 l 383 435 m 383 831 l 200 633 l 383 633 l 383 831 z "},"⁵":{"ha":640,"x_min":117,"x_max":524,"o":"m 117 435 m 213 435 l 117 536 l 117 625 l 208 625 l 208 565 l 261 515 l 379 515 l 431 565 l 431 639 l 383 678 l 215 678 l 122 754 l 122 965 l 515 965 l 515 879 l 217 879 l 217 789 l 263 753 l 426 753 l 524 671 l 524 536 l 431 435 l 213 435 z "},"⁶":{"ha":643,"x_min":111,"x_max":532,"o":"m 111 435 m 206 435 l 111 536 l 111 864 l 210 965 l 424 965 l 526 857 l 526 781 l 433 781 l 433 832 l 376 885 l 260 885 l 206 836 l 206 740 l 433 740 l 532 644 l 532 531 l 443 435 l 206 435 m 439 558 l 439 617 l 385 665 l 206 665 l 206 563 l 257 514 l 393 514 l 439 558 z "},"⁷":{"ha":585,"x_min":104,"x_max":507,"o":"m 104 435 m 160 435 l 399 879 l 104 879 l 104 965 l 446 965 l 507 896 l 265 435 l 160 435 z "},"⁸":{"ha":657,"x_min":111,"x_max":546,"o":"m 111 435 m 217 435 l 111 543 l 111 646 l 175 714 l 117 775 l 117 857 l 221 965 l 436 965 l 540 857 l 540 775 l 481 714 l 546 646 l 546 543 l 442 435 l 217 435 m 451 628 l 403 674 l 254 674 l 206 628 l 206 575 l 265 519 l 392 519 l 451 575 l 451 628 m 446 790 l 446 831 l 388 885 l 269 885 l 210 831 l 210 792 l 257 746 l 397 746 l 446 790 z "},"⁹":{"ha":643,"x_min":111,"x_max":532,"o":"m 111 435 m 221 435 l 117 543 l 117 621 l 210 621 l 210 568 l 267 515 l 383 515 l 436 564 l 436 658 l 206 658 l 111 754 l 111 869 l 200 965 l 438 965 l 532 865 l 532 536 l 433 435 l 221 435 m 436 838 l 386 886 l 250 886 l 204 842 l 204 772 l 265 729 l 436 729 l 436 838 z "},"₀":{"ha":642,"x_min":111,"x_max":529,"o":"m 213 0 l 111 108 l 111 422 l 217 531 l 426 531 l 529 422 l 529 108 l 432 0 l 213 0 m 436 140 l 436 396 l 376 450 l 265 450 l 206 396 l 206 140 l 263 85 l 379 85 l 436 140 z "},"₁":{"ha":336,"x_min":119,"x_max":215,"o":"m 119 0 l 119 531 l 215 531 l 215 0 l 119 0 z "},"₂":{"ha":640,"x_min":117,"x_max":524,"o":"m 117 0 l 117 208 l 214 288 l 383 288 l 431 326 l 431 400 l 379 450 l 261 450 l 208 400 l 208 340 l 117 340 l 117 429 l 213 531 l 431 531 l 524 429 l 524 294 l 426 214 l 258 214 l 211 175 l 211 85 l 515 85 l 515 0 l 117 0 z "},"₃":{"ha":646,"x_min":110,"x_max":532,"o":"m 208 0 l 110 108 l 110 204 l 203 204 l 203 140 l 260 85 l 381 85 l 438 140 l 438 192 l 389 240 l 278 240 l 278 313 l 388 313 l 433 357 l 433 396 l 375 450 l 263 450 l 203 396 l 203 340 l 110 340 l 110 422 l 215 531 l 425 531 l 528 422 l 528 340 l 468 279 l 532 211 l 532 108 l 431 0 l 208 0 z "},"₄":{"ha":628,"x_min":92,"x_max":549,"o":"m 383 0 l 383 121 l 92 121 l 92 199 l 383 531 l 478 531 l 478 199 l 549 199 l 549 121 l 478 121 l 478 0 l 383 0 m 383 396 l 200 199 l 383 199 l 383 396 z "},"₅":{"ha":640,"x_min":117,"x_max":524,"o":"m 213 0 l 117 101 l 117 190 l 208 190 l 208 131 l 261 81 l 379 81 l 431 131 l 431 204 l 383 243 l 215 243 l 122 319 l 122 531 l 515 531 l 515 444 l 217 444 l 217 354 l 263 318 l 426 318 l 524 236 l 524 101 l 431 0 l 213 0 z "},"₆":{"ha":643,"x_min":111,"x_max":532,"o":"m 206 0 l 111 101 l 111 429 l 210 531 l 424 531 l 526 422 l 526 346 l 433 346 l 433 397 l 376 450 l 260 450 l 206 401 l 206 306 l 433 306 l 532 210 l 532 96 l 443 0 l 206 0 m 439 124 l 439 182 l 385 231 l 206 231 l 206 128 l 257 79 l 393 79 l 439 124 z "},"₇":{"ha":585,"x_min":104,"x_max":507,"o":"m 160 0 l 399 444 l 104 444 l 104 531 l 446 531 l 507 461 l 265 0 l 160 0 z "},"₈":{"ha":657,"x_min":111,"x_max":546,"o":"m 217 0 l 111 108 l 111 211 l 175 279 l 117 340 l 117 422 l 221 531 l 436 531 l 540 422 l 540 340 l 481 279 l 546 211 l 546 108 l 442 0 l 217 0 m 451 193 l 403 239 l 254 239 l 206 193 l 206 140 l 265 85 l 392 85 l 451 140 l 451 193 m 446 356 l 446 396 l 388 450 l 269 450 l 210 396 l 210 357 l 257 311 l 397 311 l 446 356 z "},"₉":{"ha":643,"x_min":111,"x_max":532,"o":"m 221 0 l 117 108 l 117 186 l 210 186 l 210 133 l 267 81 l 383 81 l 436 129 l 436 224 l 206 224 l 111 319 l 111 435 l 200 531 l 438 531 l 532 431 l 532 101 l 433 0 l 221 0 m 436 403 l 386 451 l 250 451 l 204 407 l 204 338 l 265 294 l 436 294 l 436 403 z "},"₩":{"ha":1338,"x_min":18,"x_max":1322,"o":"m 868 0 l 776 347 l 556 347 l 465 0 l 293 0 l 228 347 l 18 347 l 18 415 l 215 415 l 178 617 l 18 617 l 18 683 l 165 683 l 114 965 l 236 965 l 289 683 l 515 683 l 589 965 l 747 965 l 819 683 l 1049 683 l 1103 965 l 1224 965 l 1171 683 l 1322 683 l 1322 617 l 1158 617 l 1121 415 l 1322 415 l 1322 347 l 1108 347 l 1043 0 l 868 0 m 889 415 l 999 415 l 1036 617 l 838 617 l 889 415 m 339 415 l 446 415 l 499 617 l 301 617 l 339 415 m 574 415 l 758 415 l 704 617 l 626 617 l 574 415 m 953 174 l 985 347 l 907 347 l 953 174 m 385 174 l 429 347 l 351 347 l 385 174 m 643 683 l 688 683 l 665 767 l 643 683 z "},"₪":{"ha":1279,"x_min":138,"x_max":1142,"o":"m 732 250 l 732 667 l 663 729 l 254 729 l 254 0 l 138 0 l 138 836 l 722 836 l 849 714 l 849 250 l 732 250 m 560 0 l 431 122 l 431 586 l 547 586 l 547 169 l 617 107 l 1025 107 l 1025 836 l 1142 836 l 1142 0 l 560 0 z "},"₫":{"ha":857,"x_min":53,"x_max":826,"o":"m 643 147 l 643 233 l 528 147 l 226 147 l 76 276 l 76 536 l 226 667 l 522 667 l 638 579 l 638 751 l 185 751 l 185 840 l 638 840 l 638 965 l 754 965 l 754 840 l 826 840 l 826 751 l 754 751 l 754 147 l 643 147 m 53 0 l 53 89 l 789 89 l 789 0 l 53 0 m 638 344 l 638 469 l 510 558 l 286 558 l 194 486 l 194 325 l 286 254 l 510 254 l 638 344 z "},"€":{"ha":996,"x_min":88,"x_max":915,"o":"m 325 346 l 325 247 l 444 129 l 883 129 l 883 0 l 372 0 l 190 197 l 190 346 l 88 346 l 88 421 l 190 421 l 190 542 l 88 542 l 88 615 l 190 615 l 190 768 l 381 965 l 915 965 l 878 836 l 449 836 l 325 718 l 325 615 l 790 615 l 767 542 l 325 542 l 325 421 l 725 421 l 701 346 l 325 346 z "},"₭":{"ha":982,"x_min":15,"x_max":968,"o":"m 443 472 l 874 0 l 719 0 l 293 471 l 293 0 l 157 0 l 157 472 l 15 472 l 15 554 l 157 554 l 157 965 l 293 965 l 293 554 l 697 965 l 853 965 l 436 554 l 968 554 l 968 472 l 443 472 z "},"₮":{"ha":879,"x_min":78,"x_max":800,"o":"m 371 0 l 371 243 l 153 150 l 153 246 l 371 339 l 371 465 l 153 372 l 153 468 l 371 561 l 371 836 l 78 836 l 78 965 l 800 965 l 800 836 l 508 836 l 508 621 l 725 714 l 725 618 l 508 525 l 508 399 l 725 492 l 725 396 l 508 303 l 508 0 l 371 0 z "},"₱":{"ha":1058,"x_min":24,"x_max":1000,"o":"m 871 486 l 871 460 l 676 263 l 285 263 l 285 0 l 147 0 l 147 486 l 24 486 l 24 542 l 147 542 l 147 683 l 35 683 l 35 739 l 147 739 l 147 965 l 682 965 l 871 768 l 871 739 l 1000 739 l 1000 683 l 871 683 l 871 542 l 988 542 l 988 486 l 871 486 m 285 542 l 738 542 l 738 683 l 285 683 l 285 542 m 613 378 l 726 486 l 285 486 l 285 378 l 613 378 m 285 739 l 721 739 l 613 842 l 285 842 l 285 739 z "},"₲":{"ha":1001,"x_min":92,"x_max":910,"o":"m 92 -18 l 190 124 l 124 197 l 124 768 l 313 965 l 692 965 l 751 900 l 838 1024 l 910 983 l 576 508 l 879 508 l 879 192 l 700 0 l 303 0 l 247 61 l 163 -58 l 92 -18 m 258 238 l 274 222 l 676 793 l 626 843 l 375 843 l 258 729 l 258 238 m 501 403 l 333 164 l 375 124 l 633 124 l 751 238 l 751 403 l 501 403 z "},"₴":{"ha":1000,"x_min":19,"x_max":982,"o":"m 268 363 l 256 353 l 256 226 l 369 118 l 635 118 l 749 225 l 749 278 l 878 278 l 878 183 l 707 0 l 296 0 l 122 183 l 122 363 l 19 363 l 19 422 l 146 422 l 300 544 l 636 544 l 651 557 l 19 557 l 19 617 l 726 617 l 747 633 l 747 739 l 633 847 l 383 847 l 269 738 l 269 686 l 139 686 l 139 781 l 311 965 l 707 965 l 878 781 l 878 617 l 982 617 l 982 557 l 843 557 l 704 439 l 364 439 l 343 422 l 982 422 l 982 363 l 268 363 z "},"₸":{"ha":896,"x_min":76,"x_max":821,"o":"m 379 0 l 379 532 l 76 532 l 76 653 l 821 653 l 821 532 l 514 532 l 514 0 l 379 0 m 76 846 l 76 965 l 821 965 l 821 846 l 76 846 z "},"₹":{"ha":947,"x_min":104,"x_max":854,"o":"m 594 0 l 428 336 l 575 488 l 575 606 l 104 606 l 104 688 l 553 688 l 397 883 l 104 883 l 104 965 l 854 965 l 854 883 l 547 883 l 699 688 l 854 688 l 854 606 l 710 606 l 710 449 l 578 321 l 739 0 l 594 0 z "},"₺":{"ha":964,"x_min":72,"x_max":865,"o":"m 290 439 l 290 129 l 608 129 l 731 247 l 731 357 l 865 357 l 865 197 l 682 0 l 153 0 l 153 381 l 72 346 l 72 440 l 153 475 l 153 603 l 72 568 l 72 663 l 153 697 l 153 965 l 290 965 l 290 756 l 646 908 l 646 814 l 290 661 l 290 533 l 646 686 l 646 592 l 290 439 z "},"₼":{"ha":1324,"x_min":124,"x_max":1200,"o":"m 731 965 l 731 599 l 1019 599 l 1200 401 l 1200 0 l 1065 0 l 1065 351 l 946 469 l 731 469 l 731 0 l 593 0 l 593 469 l 378 469 l 258 351 l 258 0 l 124 0 l 124 401 l 304 599 l 593 599 l 593 965 l 731 965 z "},"₽":{"ha":990,"x_min":33,"x_max":901,"o":"m 168 0 l 168 154 l 33 154 l 33 257 l 168 257 l 168 383 l 33 383 l 33 506 l 168 506 l 168 965 l 713 965 l 901 768 l 901 581 l 707 383 l 304 383 l 304 257 l 822 257 l 822 154 l 304 154 l 304 0 l 168 0 m 767 717 l 643 836 l 304 836 l 304 506 l 643 506 l 767 622 l 767 717 z "},"₾":{"ha":1042,"x_min":107,"x_max":965,"o":"m 440 547 l 440 836 l 394 836 l 269 718 l 269 433 l 542 128 l 542 0 l 107 0 l 107 129 l 410 129 l 133 432 l 133 768 l 325 965 l 440 965 l 440 1090 l 514 1090 l 514 965 l 606 965 l 606 1090 l 679 1090 l 679 965 l 776 965 l 965 768 l 965 547 l 846 547 l 846 718 l 722 836 l 679 836 l 679 547 l 606 547 l 606 836 l 514 836 l 514 547 l 440 547 z "},"№":{"ha":1525,"x_min":138,"x_max":1426,"o":"m 138 0 m 753 0 l 271 701 l 271 0 l 138 0 l 138 965 l 285 965 l 749 282 l 749 965 l 882 965 l 882 0 l 753 0 m 1110 435 l 1008 543 l 1008 857 l 1114 965 l 1324 965 l 1426 857 l 1426 543 l 1329 435 l 1110 435 m 1333 575 l 1333 831 l 1274 885 l 1163 885 l 1103 831 l 1103 575 l 1160 519 l 1276 519 l 1333 575 m 1153 157 l 1153 310 l 1289 310 l 1289 157 l 1153 157 z "},"℗":{"ha":1269,"x_min":124,"x_max":1147,"o":"m 411 171 l 411 796 l 771 796 l 894 668 l 894 535 l 767 406 l 496 406 l 496 171 l 411 171 m 811 638 l 728 718 l 496 718 l 496 479 l 728 479 l 811 558 l 811 638 m 303 0 l 124 197 l 124 768 l 311 965 l 957 965 l 1147 768 l 1147 197 l 965 0 l 303 0 m 1061 228 l 1061 736 l 911 885 l 358 885 l 210 738 l 210 228 l 350 79 l 918 79 l 1061 228 z "},"™":{"ha":1364,"x_min":33,"x_max":1269,"o":"m 218 371 l 218 878 l 33 878 l 33 965 l 496 965 l 496 878 l 313 878 l 313 371 l 218 371 m 1176 371 l 1176 783 l 968 371 l 883 371 l 672 783 l 672 371 l 579 371 l 579 965 l 696 965 l 924 497 l 1151 965 l 1269 965 l 1269 371 l 1176 371 z "},"⅓":{"ha":1146,"x_min":122,"x_max":1024,"o":"m 122 0 m 182 435 l 182 965 l 278 965 l 278 435 l 182 435 m 122 0 l 751 965 l 869 965 l 236 0 l 122 0 m 700 0 l 601 108 l 601 204 l 694 204 l 694 140 l 751 85 l 872 85 l 929 140 l 929 192 l 881 240 l 769 240 l 769 313 l 879 313 l 925 357 l 925 396 l 867 450 l 754 450 l 694 396 l 694 340 l 601 340 l 601 422 l 707 531 l 917 531 l 1019 422 l 1019 340 l 960 279 l 1024 211 l 1024 108 l 922 0 l 700 0 z "},"⅔":{"ha":1146,"x_min":24,"x_max":1119,"o":"m 24 0 m 24 435 l 24 643 l 121 722 l 290 722 l 338 761 l 338 835 l 286 885 l 168 885 l 115 835 l 115 775 l 24 775 l 24 864 l 119 965 l 338 965 l 431 864 l 431 729 l 333 649 l 165 649 l 118 610 l 118 519 l 422 519 l 422 435 l 24 435 m 219 0 l 849 965 l 967 965 l 333 0 l 219 0 m 796 0 l 697 108 l 697 204 l 790 204 l 790 140 l 847 85 l 968 85 l 1025 140 l 1025 192 l 976 240 l 865 240 l 865 313 l 975 313 l 1021 357 l 1021 396 l 963 450 l 850 450 l 790 396 l 790 340 l 697 340 l 697 422 l 803 531 l 1013 531 l 1115 422 l 1115 340 l 1056 279 l 1119 211 l 1119 108 l 1018 0 l 796 0 z "},"⅕":{"ha":1146,"x_min":103,"x_max":1043,"o":"m 103 0 m 163 435 l 163 965 l 258 965 l 258 435 l 163 435 m 103 0 l 732 965 l 850 965 l 217 0 l 103 0 m 732 0 l 636 101 l 636 190 l 728 190 l 728 131 l 781 81 l 899 81 l 950 131 l 950 204 l 903 243 l 735 243 l 642 319 l 642 531 l 1035 531 l 1035 444 l 736 444 l 736 354 l 782 318 l 946 318 l 1043 236 l 1043 101 l 950 0 l 732 0 z "},"⅖":{"ha":1146,"x_min":7,"x_max":1136,"o":"m 7 0 m 7 435 l 7 643 l 104 722 l 274 722 l 321 761 l 321 835 l 269 885 l 151 885 l 99 835 l 99 775 l 7 775 l 7 864 l 103 965 l 321 965 l 414 864 l 414 729 l 317 649 l 149 649 l 101 610 l 101 519 l 406 519 l 406 435 l 7 435 m 200 0 l 829 965 l 947 965 l 314 0 l 200 0 m 825 0 l 729 101 l 729 190 l 821 190 l 821 131 l 874 81 l 992 81 l 1043 131 l 1043 204 l 996 243 l 828 243 l 735 319 l 735 531 l 1128 531 l 1128 444 l 829 444 l 829 354 l 875 318 l 1039 318 l 1136 236 l 1136 101 l 1043 0 l 825 0 z "},"⅗":{"ha":1146,"x_min":22,"x_max":1121,"o":"m 22 0 m 121 435 l 22 543 l 22 639 l 115 639 l 115 575 l 172 519 l 293 519 l 350 575 l 350 626 l 301 675 l 190 675 l 190 747 l 300 747 l 346 792 l 346 831 l 288 885 l 175 885 l 115 831 l 115 775 l 22 775 l 22 857 l 128 965 l 338 965 l 440 857 l 440 775 l 381 714 l 444 646 l 444 543 l 343 435 l 121 435 m 182 0 l 811 965 l 929 965 l 296 0 l 182 0 m 810 0 l 714 101 l 714 190 l 806 190 l 806 131 l 858 81 l 976 81 l 1028 131 l 1028 204 l 981 243 l 813 243 l 719 319 l 719 531 l 1113 531 l 1113 444 l 814 444 l 814 354 l 860 318 l 1024 318 l 1121 236 l 1121 101 l 1028 0 l 810 0 z "},"⅘":{"ha":1146,"x_min":-1,"x_max":1147,"o":"m 0 0 m 290 435 l 290 556 l -1 556 l -1 633 l 290 965 l 385 965 l 385 633 l 456 633 l 456 556 l 385 556 l 385 435 l 290 435 m 290 831 l 107 633 l 290 633 l 290 831 m 207 0 l 836 965 l 954 965 l 321 0 l 207 0 m 836 0 l 740 101 l 740 190 l 832 190 l 832 131 l 885 81 l 1003 81 l 1054 131 l 1054 204 l 1007 243 l 839 243 l 746 319 l 746 531 l 1139 531 l 1139 444 l 840 444 l 840 354 l 886 318 l 1050 318 l 1147 236 l 1147 101 l 1054 0 l 836 0 z "},"⅙":{"ha":1146,"x_min":122,"x_max":1024,"o":"m 122 0 m 182 435 l 182 965 l 278 965 l 278 435 l 182 435 m 122 0 l 751 965 l 869 965 l 236 0 l 122 0 m 697 0 l 603 101 l 603 429 l 701 531 l 915 531 l 1018 422 l 1018 346 l 925 346 l 925 397 l 868 450 l 751 450 l 697 401 l 697 306 l 925 306 l 1024 210 l 1024 96 l 935 0 l 697 0 m 931 124 l 931 182 l 876 231 l 697 231 l 697 128 l 749 79 l 885 79 l 931 124 z "},"⅚":{"ha":1146,"x_min":49,"x_max":1096,"o":"m 49 0 m 144 435 l 49 536 l 49 625 l 140 625 l 140 565 l 193 515 l 311 515 l 363 565 l 363 639 l 315 678 l 147 678 l 54 754 l 54 965 l 447 965 l 447 879 l 149 879 l 149 789 l 194 753 l 358 753 l 456 671 l 456 536 l 363 435 l 144 435 m 196 0 l 825 965 l 943 965 l 310 0 l 196 0 m 769 0 l 675 101 l 675 429 l 774 531 l 988 531 l 1090 422 l 1090 346 l 997 346 l 997 397 l 940 450 l 824 450 l 769 401 l 769 306 l 997 306 l 1096 210 l 1096 96 l 1007 0 l 769 0 m 1003 124 l 1003 182 l 949 231 l 769 231 l 769 128 l 821 79 l 957 79 l 1003 124 z "},"⅛":{"ha":1146,"x_min":115,"x_max":1029,"o":"m 115 0 m 174 435 l 174 965 l 269 965 l 269 435 l 174 435 m 115 0 l 744 965 l 863 965 l 229 0 l 115 0 m 700 0 l 594 108 l 594 211 l 658 279 l 600 340 l 600 422 l 704 531 l 919 531 l 1024 422 l 1024 340 l 964 279 l 1029 211 l 1029 108 l 925 0 l 700 0 m 935 193 l 886 239 l 738 239 l 689 193 l 689 140 l 749 85 l 875 85 l 935 140 l 935 193 m 929 356 l 929 396 l 871 450 l 753 450 l 693 396 l 693 357 l 740 311 l 881 311 l 929 356 z "},"⅜":{"ha":1146,"x_min":36,"x_max":1108,"o":"m 36 0 m 135 435 l 36 543 l 36 639 l 129 639 l 129 575 l 186 519 l 307 519 l 364 575 l 364 626 l 315 675 l 204 675 l 204 747 l 314 747 l 360 792 l 360 831 l 301 885 l 189 885 l 129 831 l 129 775 l 36 775 l 36 857 l 142 965 l 351 965 l 454 857 l 454 775 l 394 714 l 458 646 l 458 543 l 357 435 l 135 435 m 193 0 l 822 965 l 940 965 l 307 0 l 193 0 m 779 0 l 674 108 l 674 211 l 738 279 l 679 340 l 679 422 l 783 531 l 999 531 l 1103 422 l 1103 340 l 1043 279 l 1108 211 l 1108 108 l 1004 0 l 779 0 m 1014 193 l 965 239 l 817 239 l 768 193 l 768 140 l 828 85 l 954 85 l 1014 140 l 1014 193 m 1008 356 l 1008 396 l 950 450 l 832 450 l 772 396 l 772 357 l 819 311 l 960 311 l 1008 356 z "},"⅝":{"ha":1146,"x_min":42,"x_max":1103,"o":"m 42 0 m 138 435 l 42 536 l 42 625 l 133 625 l 133 565 l 186 515 l 304 515 l 356 565 l 356 639 l 308 678 l 140 678 l 47 754 l 47 965 l 440 965 l 440 879 l 142 879 l 142 789 l 188 753 l 351 753 l 449 671 l 449 536 l 356 435 l 138 435 m 189 0 l 818 965 l 936 965 l 303 0 l 189 0 m 774 0 l 668 108 l 668 211 l 732 279 l 674 340 l 674 422 l 778 531 l 993 531 l 1097 422 l 1097 340 l 1038 279 l 1103 211 l 1103 108 l 999 0 l 774 0 m 1008 193 l 960 239 l 811 239 l 763 193 l 763 140 l 822 85 l 949 85 l 1008 140 l 1008 193 m 1003 356 l 1003 396 l 944 450 l 826 450 l 767 396 l 767 357 l 814 311 l 954 311 l 1003 356 z "},"⅞":{"ha":1146,"x_min":88,"x_max":1058,"o":"m 88 0 m 143 435 l 382 879 l 88 879 l 88 965 l 429 965 l 490 896 l 249 435 l 143 435 m 144 0 l 774 965 l 892 965 l 258 0 l 144 0 m 729 0 l 624 108 l 624 211 l 688 279 l 629 340 l 629 422 l 733 531 l 949 531 l 1053 422 l 1053 340 l 993 279 l 1058 211 l 1058 108 l 954 0 l 729 0 m 964 193 l 915 239 l 767 239 l 718 193 l 718 140 l 778 85 l 904 85 l 964 140 l 964 193 m 958 356 l 958 396 l 900 450 l 782 450 l 722 396 l 722 357 l 769 311 l 910 311 l 958 356 z "},"∂":{"ha":1051,"x_min":85,"x_max":968,"o":"m 253 0 l 85 169 l 85 419 l 253 588 l 868 588 l 868 765 l 751 879 l 257 879 l 257 965 l 799 965 l 968 794 l 968 169 l 799 0 l 253 0 m 868 199 l 868 503 l 300 503 l 183 390 l 183 199 l 300 86 l 751 86 l 868 199 z "},"∏":{"ha":1003,"x_min":138,"x_max":865,"o":"m 138 0 m 729 0 l 729 836 l 275 836 l 275 0 l 138 0 l 138 965 l 865 965 l 865 0 l 729 0 z "},"∑":{"ha":892,"x_min":83,"x_max":786,"o":"m 83 0 m 174 0 l 83 107 l 389 483 l 83 858 l 174 965 l 786 965 l 786 836 l 260 836 l 547 492 l 253 129 l 786 129 l 786 0 l 174 0 z "},"−":{"ha":1051,"x_min":85,"x_max":968,"o":"m 85 431 l 85 533 l 968 533 l 968 431 l 85 431 z "},"√":{"ha":1053,"x_min":79,"x_max":990,"o":"m 488 0 l 343 356 l 79 356 l 79 457 l 428 457 l 556 132 l 872 965 l 990 965 l 624 0 l 488 0 z "},"∞":{"ha":1194,"x_min":85,"x_max":1108,"o":"m 769 246 l 597 413 l 422 246 l 253 246 l 85 414 l 85 547 l 253 717 l 422 717 l 597 546 l 769 717 l 940 717 l 1108 547 l 1108 414 l 940 246 l 769 246 m 1008 444 l 1008 518 l 893 631 l 803 631 l 646 479 l 804 332 l 889 332 l 1008 444 m 543 479 l 389 631 l 300 631 l 183 517 l 183 444 l 300 332 l 389 332 l 543 479 z "},"∫":{"ha":1051,"x_min":63,"x_max":989,"o":"m 63 -333 l 63 -231 l 339 -231 l 469 -118 l 469 1076 l 669 1260 l 989 1260 l 989 1157 l 711 1157 l 581 1044 l 581 -150 l 381 -333 l 63 -333 z "},"≈":{"ha":1051,"x_min":85,"x_max":968,"o":"m 85 218 m 821 529 l 647 529 l 390 657 l 254 657 l 85 542 l 85 654 l 235 760 l 404 760 l 663 632 l 797 632 l 968 749 l 968 635 l 821 529 m 821 218 l 647 218 l 390 346 l 254 346 l 85 231 l 85 343 l 235 449 l 404 449 l 663 321 l 797 321 l 968 438 l 968 324 l 821 218 z "},"≠":{"ha":1051,"x_min":85,"x_max":968,"o":"m 153 0 l 322 260 l 85 260 l 85 363 l 389 363 l 544 601 l 85 601 l 85 704 l 611 704 l 782 965 l 900 965 l 728 704 l 968 704 l 968 601 l 661 601 l 504 363 l 968 363 l 968 260 l 436 260 l 267 0 l 153 0 z "},"≤":{"ha":1051,"x_min":85,"x_max":968,"o":"m 85 33 m 85 507 l 85 626 l 968 860 l 968 749 l 221 565 l 968 386 l 968 275 l 85 507 m 85 33 l 85 136 l 968 136 l 968 33 l 85 33 z "}}}
